<?xml version="1.0" encoding="utf-8"?>
<!-- Generator: Adobe Illustrator 23.0.4, SVG Export Plug-In . SVG Version: 6.00 Build 0)  -->
<svg version="1.1" id="Layer_1" xmlns="http://www.w3.org/2000/svg" xmlns:xlink="http://www.w3.org/1999/xlink" x="0px" y="0px"
	 viewBox="0 0 300 277.1" style="enable-background:new 0 0 300 277.1;" xml:space="preserve">
<style type="text/css">
	.st0{fill:#AB1D38;}
	.st1{fill:#214093;}
</style>
<g>
	<path class="st0" d="M156.9,224c6.2,0.3,14.5-2.4,19.1-2.4c4.5,0,12.3-2.2,15.7,1.2c3.4,3.4,1.8,13.2,0,18.5
		c-1.8,5.3-3.2,19.5-3.6,25.7c-0.5,6.2-0.5,8.3-2.1,9.2c-1.7,0.9-6,1.4-6,0c0-1.4,2-1.2,2.7-3.9c0.8-2.7,2.4-10.9-0.2-11
		s-1.8,11.5-4.8,12.3c-3,0.8-7.4,1.2-7.4-0.6c0-1.8,7.7-6.7,7.7-11.3s-1.6-7.6-2.6-8.6s-3.1-1.8-5.4-0.3s-3.8,4.7-6.7,4.8
		c-2.9,0.2-4.2-3.3-9.4-3.5s-10-0.8-10.7-0.8s-1.5,2-0.8,7c0.8,5,2,10,0.8,11.8c-1.2,1.8-4.5,3.6-7.1,3.8c-2.6,0.2-2.4-2.6-1.2-3.5
		c1.2-0.9,3.6-1.5,3.6-3.8c0-2.3-0.2-6.8-0.8-6.8c-0.6,0-0.3,5-1.8,6c-1.5,1.1-5.6,3.5-6.2,1.8c-0.6-1.7,2-5.3,3-5.3
		s2.3-6.5,1.1-8.3c-1.2-1.8-5.9-2.4-7.7-4.4c-1.8-2-4.7-8.2-8-9.7c-3.3-1.5-4.1-3-6.7-2.9c-2.6,0.2-7.6,2.3-8.8-1.8
		c-1.6-5.5,3.9-6.4,3.5-8.3c-0.3-2-0.1-2.7-0.1-4.4c0-1.7,2.6-2.1,2.6-3.6s-3.2-2.5-2.7-4.3c0.5-1.8,1.4,1.1,3.3,1.1s2.7-2,3.9-1.7
		c1.2,0.3,4.7,0.7,5,3.2c0,0,0.1,0.2,0.2,0.2c0.4,0.1,1.7,0.3,2-1.9c0.3-2.6,2.6,0,1.7,2.1c-0.9,2.1,3.3,1.4,5.9,0.8
		c2.6-0.6,9.4-2.4,12.7-2S149.5,223.7,156.9,224z"/>
	<g>
		<path class="st1" d="M266.5,157.8c-1.2-1-2.9,0.2-2.9,0.2s2.2-4,1-4.9c-1.3-1-3.8,1.1-3.8,1.1s0.9-3.1-0.8-3.7
			c-1.7-0.6-6.3,3.7-7,12.4c-0.7,8.7-2.9,2.6-4.9,2.6s-3.7,0.4-4.9-2.8c-1.2-3.3-0.1-6.4-1.9-8.3c-1.8-1.9-3.3-0.5-3.3-1.6
			c0-1,1.6-2.5,0.8-3.8c-0.7-1.3-4.1-0.6-5.7-0.6c-1.6,0-2.5,2.2-2.5,4.6s1,2.9,1,3.6s-2.3,1-2.3,1.9c0,0.8,2.8,0.9,4.3,0.9
			c3.8,0-2.3,6.6-2.3,14.2c0,6.8,5.3,14.4,11.6,15.4c0.1,0,0.1,0.1,0.1,0.1c0,0,0,0.1,0,0.1c-0.8,4.8-1.3,4.7-3.1,5
			c-1.8,0.4-0.7,1.8,0.5,2.1c1.2,0.3,2.5-0.4,2.7-1c0.2-0.6,0.7-5.3,0.8-6c0-0.1,0.1-0.1,0.1-0.1c0.4,0.1,0.8,0.2,1.2,0.2
			c0.4,0.1,0.7,0.1,1,0.1c0,0,0.1,0.1,0,0.1c-0.2,0.4-0.5,1.1-0.2,2.1c0.4,1.7,1.2,3,0.5,3.8c-0.7,0.7-4,2.1-2.7,2.4
			c1.2,0.3,2.7,2.2,3.8,1.5c1.1-0.7,1.2-1.3,0.8-3s-1.4-3.3-1.1-5.1c0.1-0.7,0.1-1.3,0-1.7c0,0,0-0.1,0.1-0.1c3.4-0.2-0.1-3,1.7-3
			c2.1,0,11.7-1.6,11.7-4.9c0-3.2-2.1-8.7-0.8-10c1.3-1.3,6.2-3.6,6.2-5.9c0-2.3-1.5-2.5-1.5-2.5S267.7,158.8,266.5,157.8z"/>
		<path class="st1" d="M106.9,55.9c0.9,0-0.6-2.1,1.1-2.9c0.5-0.3,1.2-0.4,1.8-0.5c1.1,6.2,3.5,11.2,3.1,13.2
			c-0.4,2.5-2.2,2.2-2.2,4.5c0,2.3,1.3,3.8,1.3,5.4s-1.3,5,1.3,5.8c2.6,0.9,4.1,2,4.1,0s-2.8-3.9-2.6-5.8c0.1-1.9,1.5-6.4,3.4-6.6
			c1.9-0.1,2.6,7.3,3.9,7.3c1.3,0,2.5-0.7,2.8,0.4c0.3,1.2,0.4,2.2,2.3,1.9c1.9-0.3,1.7-2.3,0.4-3.4c-1.3-1-3.4-1.9-3.4-5.1
			c0-3.2,0-5.8,2.2-5.5c2.2,0.3,3.9,1.9,7.9,1.7c3.9-0.1,13.8-2,14.9-1.3c1,0.7,0.9,8.3,1,9.8c0.1,1.5,0.3,3.1,1.5,3.5
			c1.2,0.4,4.7,0.7,4.2-0.1c-0.4-0.9-2.3-2.6-2.3-3.8c0-1.2-0.6-4.4,0.4-4.4c1,0,0,2.9,1.2,4.1c1.2,1.2,0.4,2.5,2.3,2.5
			c1.9,0,3.1-0.4,2.9-1.3c-0.1-0.9-1.9-0.7-2.2-2.3c-0.3-1.6-0.3-8,0-8.6c0.3-0.6,1.6-1.3,5.8-2c4.2-0.7,8.2-0.2,10.9-3.1
			c2.8-2.9,3.8-4.4,5-4.4c1.2,0,1.9-1.7,1.7-3.4c-0.1-1.4-1.1-1.1-1.4-1c0,0-0.1,0-0.1,0c-0.5-0.1-3.3-0.7-4.1-1
			c-0.9-0.3,0.4-1.6-0.4-3.5c-0.8-1.7-3.3-2.9-4.3-3.1c-0.1,0-0.5,0-0.3-0.4c0.2-0.3,0.5-1,0.7-2.3c0.4-2.9-0.9-2-3.4,0.1
			c-2.5,2.2-1.9,1.2-3.8,0.6c-1.9-0.6-15.6-7.6-34.1-5c-6.8,1-21.3,3.1-21.1,11.5c0,0.1,0,0.3,0,0.4c-2,1.3-3.6,2.2-3.4,4.1
			C106.2,54.2,106,55.9,106.9,55.9z"/>
		<path class="st1" d="M297.8,44.8c-1.2-1.1-53.1-41.3-54.6-42.6c-5.7-5-13.8-0.3-17.1,4.1c-2.6,3.4-24.4,46.3-83.1,118.9
			C115.4,96.9,90.9,72,78.9,60C48.6,29.7,5.2-2,0.4,1.7c-1.6,1.2,2.4,17.2,9.1,35.8c4.4,12.2,11.7,27.4,23,46
			c23.8,40.3,66,70.6,70.1,70.6c4,0.1,16.6-17.6,20-18.5c1.2-0.3,3.5,0.5,8.2,4.1c-18.8,22-63.1,73.3-95.4,105.6
			c-13.5,13.5-7.2,23.7-1.5,27.8c7.6,5.5,18.9,6.7,30.7-8.5c7.6-9.8,13.8-28.5,25.6-45.2c19.7-27.9,41.7-50.1,57.3-64.3
			c9.7,9.9,23,24.6,41.3,46.3c18.6,22,29.9,49.6,40.8,62.6c12.4,14.8,23.7,12.9,29.3,8.6c6.8-5.2,11.1-16.5-0.9-29.1
			c-21.1-22.1-60.1-62.3-97.1-100.1c2.9-2.4,5-4,6.2-4.9c0.7-0.5,2.9-1.1,7,1.6c3.9,2.6,17,11.9,18.3,13.1c6.7,6,18.5,6.9,26-1.6
			c19.4-21.9,34-40.7,44.6-52.1c19.4-20.9,25.9-29.5,30.9-35.2C301.9,55,300.7,47.3,297.8,44.8z M116.5,121.2
			c-2.6-0.1-4.6-2.2-4.6-4.8c0.1-2.6,2.2-4.6,4.8-4.6c2.6,0.1,4.6,2.2,4.6,4.8C121.2,119.2,119.1,121.3,116.5,121.2z M234.3,21
			c-2.6,0.2-4.8-1.8-5-4.4c-0.2-2.6,1.8-4.8,4.4-5c2.6-0.2,4.8,1.8,5,4.4C238.8,18.6,236.9,20.8,234.3,21z"/>
		<path class="st1" d="M36.6,181.3c0.7-0.1,1.2,0.3,1,0.8c-0.1,0.2-1.1,2.9-0.2,3.8c0.9,0.9,1.5,1.7,2.6,1.7c1.1,0,1.8,1.5,2.9,1.3
			c1.2-0.3,2.4-1.2,3.2-1.1c0.7,0,4.5-0.1,5.2,0.1c0.7,0.2,0.3,1.3,0.4,1.7c0.1,0.4,0.3,0.6,0.3,1.7c0,1.2-2.7,2.7-2.9,3.2
			c-0.3,0.5-0.3,1.1,0.1,1.1c0.4,0.1,1.4-1.2,2.5-1.2c1.1,0,2.6,0.3,4,1.5c1.4,1.2,3,1.9,2.2,0.4c-0.8-1.4-1-1.2-0.8-1.4
			c0.3-0.5,1.6,0.8,2,0c0.4-0.8-4.5-1.7-5-2.5c-0.7-1.1-1.5-3.8-1.2-4.8c0.4-1,0.9-0.2,2.2-0.8c1.4-0.5,1.8-1.9,2.4-1
			c0.7,0.8,3.1,3.7,4.6,5.8c0.8,1.1-1.1,4.7-0.3,4.7c0.8,0.1,0.7-1.8,2-1.8c1.3,0,3.1,1.5,3.8,1.2c0.7-0.3-0.8-1.3-0.1-1.4
			c0.7-0.1,2.6,0.9,2.4,0.1c-0.2-0.8-6-2.2-6.8-3.3c-1.5-2.1-4.4-5.7-4.1-6.5c0.3-0.8,1-0.5,1.1-1.4c0.2-0.9,8.3,2.8,12.6-3.4
			c4.3-6.2-0.1-11.8-0.6-14.4c-0.5-2.6-2.7-8-0.3-8.9c2.3-0.8,2,0.9,2,0.9s-0.6,5.1,1.8,4.9c2.3-0.2-1-5.1-0.1-5.9
			c0.9-0.8,2.6-0.8,3.3-0.1c0.4,0.4,0.4-0.1,0.4-0.3c0-0.2-0.3-1-1.3-1.2c-0.6-0.1-1.9-0.1-2.1-1c-0.2-0.9-0.5-2.9-1.8-3.6
			c-1.3-0.8-4-1-6.4,0.9c-1.6,1.3-2,3.1-1.4,5.6c0.6,2.5,2.8,9.6,0.1,9.6c-2.8,0-2.4-3.2-4.3-6.2c-2-3-3.9-6.1-8.2-6.1
			c-0.8,0-1.4,0.9-2.1,1.2c-0.7,0.3-0.4-0.4-1.5-0.6c-0.9-0.1-1.7-0.5-2-0.6c-0.1-0.1-0.1-0.2-0.1-0.3c0.1-0.6-2-4.5-3.3-4.2
			c-0.1,0-0.3-0.1-0.3-0.3c0-0.8-0.1-2.6-1.1-3.3c-1.2-0.9-2.9-1.4-4-1.1c-0.1,0-0.5,0-0.8-0.1c-0.7-0.4-2.3-1.3-3.6-1.3
			c-1.4,0-2.5,1-3,1.5c-0.1,0.1-0.3,0.2-0.5,0.1c-0.6-0.3-2.4-0.9-4.3,0c-2,0.9-2.7,3.3-2.9,4.1c0,0.1-0.1,0.2-0.3,0.2
			c-0.3,0-1,0.1-1.4,1.2c-0.5,1.1,0.1,2.6,0.3,3.1c0.1,0.1,0,0.2-0.1,0.1c-0.2-0.1-0.6-0.1-1,0.4c-0.7,0.7,0.1,3.2,0.8,4.5
			c0,0.1,0.1,0.2-0.1,0.3c-0.2,0.1-0.5,0.4-1,1c-0.9,1.1,0.8,4.7,1.1,5.8c0,0.1,0,0.3-0.1,0.4c-0.2,0.2-0.6,0.7-0.6,1.7
			c0,0,0.2,5.9,3.5,8.5c0.1,0,0.2,0.1,0.1,0.2c-0.2,0.5-0.7,1.8,0,3c0.9,1.6,1.4,4.4,5.9,4.2C35.1,183.4,35.9,181.4,36.6,181.3z"/>
	</g>
</g>
</svg>
