<?xml version="1.0" encoding="utf-8"?>
<!-- Generator: Adobe Illustrator 23.0.1, SVG Export Plug-In . SVG Version: 6.00 Build 0)  -->
<svg version="1.1" id="Layer_1" xmlns="http://www.w3.org/2000/svg" xmlns:xlink="http://www.w3.org/1999/xlink" x="0px" y="0px"
	 viewBox="0 0 500 303.39" style="enable-background:new 0 0 500 303.39;" xml:space="preserve">
<style type="text/css">
	.st0{fill:#C24151;}
	.st1{fill:#010101;}
	.st2{fill:#C24151;stroke:#ED2224;stroke-miterlimit:10;}
	.st3{fill:#C24151;stroke:#70CDDD;stroke-miterlimit:10;}
	.st4{fill:#010101;stroke:#70CDDD;stroke-miterlimit:10;}
	.st5{fill:#202020;}
</style>
<g>
	<path class="st0" d="M397.29,191.01c-12.38-0.34-19.72,13.55-22,14.6c-0.09,0.04-0.28,0-0.27-0.42c0.02-0.86,0.98-4.15,1.19-4.8
		c0.96-3.01,3.68-11.5-6.07-11.76c-5.44-0.15-12.29,6.64-16.61,11.66c-0.13,0.15-0.24,0.07-0.18-0.11c1.04-2.88,2.13-5.78,2.99-7.86
		c0.19-0.45,0.29-0.84,0.34-1.17c0.31-1.06,0.09-1.68-0.77-1.7c-2.93-0.08-4.71,3.04-11.11,2.86c-2.21-0.06-3.03,0.36-3.31,1.24
		c-0.44,1.36-12.57,41.67-21.21,41.67c-12.16,0,7.2-39.31,8.21-41.74c0.6-1.45,0.47-2.31-0.54-2.34c-2.93-0.08-4.71,3.04-11.11,2.86
		c-2.21-0.06-3.03,0.36-3.31,1.24c-0.08,0.26-0.62,1.8-0.89,2.62c-0.07,0.22-0.28,0.17-0.35,0.02c-1.55-3.28-4.31-5.76-8.44-6.93
		c-12.32-3.49-23.95,9.12-27.69,20.91c-2.94,9.27-1.68,21.88,7.88,25.58c5.74,2.22,13.15,0.67,19.45-6.32
		c0.2-0.23,0.8-0.14,0.78,0.72c0-0.01,0-0.03,0-0.03c0.04,2.05,3.87,9.47,14.73,9.77c6.13,0.17,8.76-2.37,13.29-6.18
		c0.13-0.11,0.24-0.06,0.29-0.03c3.85,2.02,3.17,8,6.22,8.24c0.76,0.06,0.95-1.68,1.69-4.46c0.52-1.93,10.75-37.47,20.23-37.2
		c8.98,0.25-5.46,29.36-5.53,30.14c-0.12,1.48,2.47,1.21,3.05,1.3c5.91,0.88,6.3,8.3,9.77,8.57c0.76,0.06,0.95-1.68,1.69-4.46
		c0.11-0.4,11.45-33.97,17.67-33.8c8.79,0.24-2.88,21.85-3.2,33.21c-0.2,7.25,2.64,12.89,9.23,13.07c6.32,0.17,8.68-2.55,8.72-3.81
		c0.02-0.65-4.44,0.34-6.58-3.7c-2.59-4.9,7.86-30.97,9.7-36.3C407.09,200.89,407.97,191.31,397.29,191.01z M293.87,228.99
		c-2.59-0.07-5.44-2.93-5.32-7.01c0.31-11.08,8.24-22.14,16.73-21.91c2.56,0.07,3.83,2.46,3.75,5.11
		C308.62,219.97,299.96,229.16,293.87,228.99z"/>
	<path class="st0" d="M221.46,61.52c-3.9,0-4.25,3.04-10.65,2.86c-8.29-0.23-13.13-7.46-19.36-7.63c-2.1-0.06-3.02,1.79-3.3,2.99
		c-1.16,4.99-8.61,41.91-25.99,41.91c-8.5,0-11.86-9.87-11.86-13.74c0-0.7,0.12-1.16,0.71-1.14c6.63,0.18,12.72-1.55,17.48-4.25
		c4.7-2.68,7.89-8.04,8.03-12.86c0.21-7.65-4.64-12.94-12.32-12.94c-20.09,0-27.35,22.06-27.57,30.25
		c-0.23,8.19,4.8,22.82,23.21,22.82c25.57,0,29.77-27.81,34.08-39.06c1.15-3,2.12-3.84,3.84-2.75c2.58,1.63,3.05,1.76,5.86,2.9
		c1.65,0.67,1.73,2.1,1.03,4.95c-0.28,1.13-5.44,17.52-5.65,25.38c-0.26,9.35,7.31,10.6,10.71,10.6c8.16,0,9.02-2.96,9.03-3.49
		c0.03-1.04-0.69-0.74-1.65-0.76c-0.64-0.02-4.71-0.49-4.71-6.89c0-6.05,10.47-33.73,10.47-37.28
		C222.82,62.29,222.47,61.52,221.46,61.52z M166.23,67.41c2.24,0.06,3.57,1.44,3.51,3.53c-0.11,3.87-3.76,9.86-16.83,9.5
		c-1-0.03-0.58-0.39-0.55-1.32C152.39,78.1,156.23,67.13,166.23,67.41z"/>
	<path class="st0" d="M433.63,191.69c0.66-1.42,0.47-2.31-0.54-2.34c-2.93-0.08-4.71,3.04-11.11,2.86
		c-2.21-0.06-2.95,0.39-3.31,1.24c-4.78,11.57-9.88,25-10.61,31.93c-1.15,10.88,3.26,15.81,8.54,16.22
		c5.76,0.45,8.45-1.82,10.44-3.81c0.63-0.63,0.12-1.31-0.25-1.42c-0.76-0.22-2.07-0.05-3.02-0.05
		C415.97,236.34,424.72,210.81,433.63,191.69z"/>
	<path class="st1" d="M315.96,224.45"/>
	<path class="st0" d="M371.45,38.81c3.35,2.51,2.63,7.52,0.94,10.16c-1.69,2.63-6.08,6.26-10.75,3.14
		c-3.55-2.36-3.38-8.01-0.38-11.41C364.26,37.32,368.53,36.63,371.45,38.81z"/>
	<path class="st2" d="M172.54,207.46"/>
	<path class="st2" d="M126.7,202.21"/>
	<path class="st3" d="M144.55,198.54"/>
	<path class="st3" d="M135.75,198.14"/>
	<path class="st3" d="M157,198.88"/>
	<path class="st3" d="M144.64,198.38"/>
	<path class="st3" d="M166.67,198.18"/>
	<path class="st3" d="M156.87,198.72"/>
	<path class="st2" d="M111.73,207.43"/>
	<path class="st2" d="M106.43,199.71"/>
	<path class="st1" d="M330.6,239.14"/>
	<path class="st0" d="M174.76,186.32c-1.46-0.14-2.17,1.75-2.17,1.75c-0.16,0.43-14.11,47.11-24.74,47.11
		c-11.01,0,8.46-39.7,9.69-42.66c0.6-1.45,0.47-2.31-0.54-2.34c-2.93-0.08-4.71,3.04-11.11,2.86c-2.21-0.06-3.03,0.36-3.31,1.24
		c-0.29,0.91-0.73,2.28-1.14,3.54c-0.05,0.16-0.32,0.11-0.41-0.07c-1.56-3.25-4.3-5.72-8.41-6.89
		c-12.32-3.49-23.95,9.12-27.69,20.91c-2.94,9.27-1.68,21.88,7.88,25.58c5.85,2.27,13.45,0.61,19.82-6.74
		c0.06-0.07,0.21-0.03,0.22,0.07c0.03,0.38,0.05,0.74,0.05,0.85c0-0.01,0-0.03,0-0.03c0.04,2.05,2.41,9.75,13.87,9.75
		c7.49,0,12.58-5.44,16.48-12.42c0.13-0.24,0.56-0.34,0.51,0.16c-0.46,4.88,3.75,11.97,13.56,11.97c10.27,0,16.75-6.17,18.2-16.71
		c1.4-10.17-1.5-13-3.65-23.86c-0.81-4.08-0.88-7.96-4.54-7.96C178.75,192.44,177.23,186.56,174.76,186.32z M122.64,228.88
		c-2.59-0.07-5.44-2.93-5.32-7.01c0.31-11.08,8.24-22.14,16.73-21.91c2.56,0.07,3.83,2.46,3.75,5.11
		C137.39,219.86,128.73,229.05,122.64,228.88z M183.09,222.71c-3.38,6.68-11.4,5.04-11.77-1.15c-0.38-6.31,1.84-12.58,4.12-16.8
		c2.74-5.07,3.23-5.09,6.42-0.29C184.39,208.28,185.88,217.2,183.09,222.71z"/>
	<path class="st2" d="M168.36,196.92"/>
	<path class="st4" d="M181.68,232.84"/>
	<path class="st4" d="M171.22,224.47"/>
	<path class="st0" d="M454.34,161.61c-3.43-1.29-7.36,0.57-9.31,4.68c-1.37,2.89-1.34,6.68,0.64,8.78c0.54,0.57,0.73,0.96,0.26,1.41
		c-2.2,2.08-4.92,3.27-7.55,3.2c-2.03-0.06,0,3.3,4.09,3.42c5.4,0.15,11.96-2.09,15.38-11.39
		C459.14,168.24,458.27,163.1,454.34,161.61z"/>
	<path class="st0" d="M209.49,219.79c1.25-4.85,2.19-7.79,3.55-12.51C211.42,212.42,210.42,215.38,209.49,219.79z"/>
	<g>
		<path class="st0" d="M54.6,57.7c0.02-0.01,0.04-0.03,0.05-0.05c0.04-0.06,0.07-0.12,0.12-0.17c-0.35,0.29-0.49,0.54-0.45,0.79
			C54.35,58.06,54.45,57.85,54.6,57.7z"/>
		<path class="st0" d="M125.17,110.88c-3.17,0-5.79,1.66-9.3,0.86c-1.96-0.45-4.93-2.84-5.84-3.52c-1.37-1.03-2.85-1.81-4.83-1.86
			c-2.1-0.06-3.02,0.6-3.3,1.8c-0.32,1.39-1.68,5.22-3.46,10.16c-0.19,0.54-0.64,0.84-0.85,0.98c-6.04,4.01-17.12,16.89-31.96,16.89
			c-10.88,0-18.03-4.68-18.03-10.93c0-3.47,1.58-7.11,4.09-7.11c0.57,0,1.49,0.14,1.49-1.12c0-0.8-1.98-2.17-5.76-2.17
			c-12.65,0-11.98,15.12-11.98,17.43c0,0.42-0.12,0.74-0.74,0.37c-10.02-6.04-13.61-15.43-13.61-27.82
			c0-20.57,14.25-36.84,22.44-41.47c0.19-0.11,0.44-0.1,0.75,0c2.66,0.87,9.67,8.44,19.07,8.69c9.18,0.25,16.4-5.31,16.62-13.47
			c0.19-6.76-6.87-12.88-15.2-13.11c-7.04-0.19-12.18,2.6-15.81,4.43c-0.58,0.29-0.8,0.34-1.26-0.45c-0.51-0.87-2.32-6.29-2.14-12.8
			C45.99,21.09,55.03,9.5,67.42,9.5c18.17,0,18.41,15.66,13.27,17.97c-0.62,0.28-1.08,0.71-0.64,1.44c1.03,1.69,2.7,2.96,5.28,2.96
			c3.89,0,6.78-4.51,6.78-11.53C92.12,10.66,83.25,0,65.79,0c-22.86,0-33.23,19.08-33.3,37.16c-0.04,8.81,2.17,13.94,3.73,16.76
			c0.5,0.91,0.83,1.25,0.49,1.43c-18.1,9.33-35.99,26.39-36.69,51.81c-0.74,26.83,18.36,49.57,47.19,49.57
			c26.79,0,43.69-21.74,43.71-21.76c0.47-0.39,1.21-0.08,0.89,0.94c-0.31,1.02-0.26,0.85-0.73,2.38c-0.46,1.48-1.12,3.6-1.95,6.23
			c-7.92,25.03-26.68,93.62-41.23,93.62c-4.48,0-7.73-2.46-7.73-6.14c0-5.09,2.34-6.94,3.81-6.94c0.99,0,2.65,0.18,2.65-1.29
			c0-0.54-1.56-2.17-6.28-2.17c-5.09,0-11.52,4.86-11.52,14.72c0,11.02,6.94,16.93,18.57,16.93c28.95,0,36.99-45.94,49.2-82.31
			c0.03-0.08,0.11-0.07,0.14,0.01c2.19,8.13,13.72,12.14,18.04,12.26c20.63,0.57,38.52-15.07,38.52-40.9
			C153.29,125.65,146.48,110.88,125.17,110.88z M66.08,52.79c4.38,0.38,7.12,2.79,6.69,6.61c-0.33,2.92-3.95,4.94-8.51,4.55
			c-4.68-0.4-7.75-3.69-9.68-5.62c-0.4-0.4-0.37-0.72,0.01-1.04C57.95,54.46,62.2,52.46,66.08,52.79z M115,165.48
			c-8.81-0.24-14.09-6.69-13.79-17.68c0.29-10.42,6.23-26.13,22.66-25.68c8.47,0.23,12.78,7.41,12.53,16.22
			C136.03,152.12,128.15,165.84,115,165.48z"/>
	</g>
	<path class="st0" d="M139.15,56.95c-2.49,0-3.58,1.21-7.05,1.21c-2.32,0-3.14,0.39-3.47,1.3c-1.43,3.87-6.14,17.09-11.43,31.99
		c-0.27,0.77-1.07,1.39-1.06-0.74c0.01-4.17,0.48-11.67,0.48-17.7c0-12.99-3.19-19.51-12.93-19.51c-8.2,0-12.67,5.28-12.67,9.78
		c0,1.55,0.84,2.62,1.38,3.15c0.31,0.31,0.59,0.21,0.78-0.04c1.72-2.24,2.37-3.62,5.41-3.62c9.66,0,4.49,28.52,4.49,34.6
		c0,2.53,0.87,4.23,4.29,4.23c4.61,0,6.44,5.6,10.74,5.6c1.8,0,2.75-0.91,3.71-3.43c3.02-7.86,5.91-16.08,9.86-27.09
		c2.41-6.71,6.67-14.13,8.04-17.3C140.37,57.89,140.21,56.95,139.15,56.95z"/>
	<path class="st0" d="M115.2,92.05"/>
	<path class="st0" d="M334.98,62.28c-11.39,0-17.54,9.62-21.55,14.58c-0.19,0.24-0.51,0.27-0.4-0.07c0.7-2.12,5.05-16.76,7.33-24.84
		c0.07-0.24,0.27-0.82,0.5-1.04c6.3-5.96,13.19-17.7,13.36-23.68c0.07-2.55-1.85-4.29-3.48-4.33c-7.41-0.2-13.93,10.44-17.53,24.81
		c-0.16,0.63-0.21,0.73-0.67,0.89c-8.51,3-11.38,1.9-12.24,1.78c-0.15-0.02-0.16-0.17-0.08-0.43c2.07-6.81,7.36-21.38,8.98-25.27
		c0.6-1.45,0.47-2.31-0.54-2.34c-2.93-0.08-3.31,3.04-9.72,2.86c-2.21-0.06-3.5,0.05-3.92,1.24c-0.17,0.49-2.35,7.08-6.18,18.04
		c-0.11,0.31-0.3,0.25-0.49,0.1c-6.41-4.91-15.56-8.65-22.74-8.65c-10.08,0-14.27,3.67-14.27,9.36c0,2.33,0.6,4.86,5.95,6.55
		c0.67,0.21,1.11,0.21,1.11-0.78c0-2.02-0.36-6.77,8.67-6.77c6.04,0,17.91,8.73,18.3,8.95c0.07,0.04,0.2,0.11,0.14,0.33
		c-0.94,3.09-13.83,38.88-13.83,49.82c0,7.6,2.99,10.88,8.22,11.02c4.7,0.13,6.09-2.94,4.68-2.98
		c-4.44-0.12,11.47-48.35,13.22-53.95c0.03-0.12,0.15-0.14,0.22-0.13c5.19,0.36,9.89-0.74,12.54-2.34c0.37-0.22,0.32,0.59,0.26,0.74
		c-2.02,5.32-14.87,47.3-14.87,47.3s-0.93,3.3,0.9,3.27c6.11-0.08,8.15,7.38,10.43,7.44c0.76,0.02,0.84-2.11,1.58-4.89
		c0.44-1.64,6.04-34.75,17.67-34.75c1.31,0,1.74,1.06,1.62,2.77c-0.45,6.31-7.57,20.69-7.57,28.27c0,7.38,3.5,11.39,9.83,11.39
		c7.95,0,9.02-2.96,9.03-3.49c0.03-1.04-0.69-0.74-1.65-0.76c-0.22-0.01-0.82-0.07-1.52-0.38c-1.39-0.62-3.19-2.25-3.19-6.5
		c0-4.13,4.95-17.72,8.04-27.45C343.26,70.42,342,62.28,334.98,62.28z"/>
	<path class="st0" d="M370.55,62.24c0.66-1.42,0.47-2.31-0.54-2.34c-2.93-0.08-4.71,3.04-11.11,2.86c-2.21-0.06-2.95,0.39-3.31,1.24
		c-4.78,11.57-9.88,25-10.61,31.93c-1.15,10.88,3.27,15.66,8.54,16.22c6.06,0.64,8.45-1.82,10.44-3.81
		c0.63-0.63,0.12-1.31-0.25-1.42c-0.76-0.22-2.07-0.05-3.02-0.05C352.9,106.89,361.64,81.36,370.55,62.24z"/>
	<g>
		<polygon class="st0" points="241.19,155.81 241.18,155.82 241.18,155.82 		"/>
		<path class="st0" d="M237.75,164.38c9.27,3.91,22.47,8.58,30.71,8.58c8.88,0,15.07-4.81,15.23-10.5c0.06-2.15-1.74-4.81-6.81-5.52
			c-0.66-0.09-0.1,2.54-1.45,4.73c-1,1.64-3.06,2.93-7.48,2.93c-6.49,0-18.87-5.51-27.09-8.55c-0.06-0.02-0.14-0.12-0.09-0.23
			c11.93-28.74,29.75-82.73,31.23-88.06c0.42-1.51,0.24-2.6-0.77-2.62c-2.93-0.08-4.71,3.04-11.11,2.86
			c-2.21-0.06-3.03,0.36-3.31,1.24c-0.64,2.02-7.63,32.96-18.23,32.96c-9.06,0,3.78-19.71,3.74-38.39
			c-0.01-5.34-2.46-8.34-6.84-8.34c-6.45,0-7.9,3.76-7.9,4.82c0,1.05,0.35,0.49,1.62,0.49c1.5,0,2.04,1.37,1.96,4.17
			c-0.39,14.07-7.42,22.6-7.77,35.27c-0.16,5.74,4.5,10.25,10.12,10.25c13.64,0,18.72-12.02,19.54-13.34
			c0.34-0.55,0.96-0.51,0.64,0.35c-5.04,13.44-13.93,33.34-23.04,53.69c-0.12,0.28-0.27,0.27-0.4,0.19
			c-7.35-4.47-18.23-10.1-24.91-10.28c-8.88-0.25-15.23,3.89-15.23,10.5c0,2.15,1.69,5.52,5.97,5.52c0.85,0,1.15-0.31,1.21-0.81
			c0.27-2.01,0.26-7.08,8.54-6.85c5,0.14,17,6.79,21.17,9.22c0.17,0.1,0.21,0.24,0.15,0.37c-13.45,29.12-25.1,58.15-25.1,68.8
			c0,7.21,3.03,14.24,14.41,14.24c10.87,0,15.29-6.72,19.6-14.65c2.79-4.82,4.69-10.12,6.21-14.83c1.13-3.51,2.06-6.7,2.98-9.13
			c1.09-2.84,2.02-3.72,3.58-2.88c0.09,0.05,0.17,0.08,0.26,0.14c2.58,1.63,3.05,1.76,5.86,2.9c1.65,0.67,1.73,2.1,1.03,4.95
			c-0.28,1.13-5.44,17.52-5.65,25.38c-0.26,9.35,7.31,10.6,10.71,10.6c6.28,0,8.23-1.75,8.8-2.8c0.17-0.32,0.23-0.57,0.23-0.69
			c0.03-1.04-0.69-0.74-1.65-0.76c-0.64-0.02-4.71-0.49-4.71-6.89c0-0.32,0.04-0.71,0.09-1.14c0.82-6.41,7.34-24.53,9.6-32.58
			c0.52-1.76,0.84-3.07,0.84-3.68c0-1.1-0.35-1.88-1.36-1.88c-0.17,0-0.33,0.01-0.49,0.02c-3.45,0.24-4.04,3.01-10.17,2.84
			c-8.29-0.23-13.13-7.46-19.36-7.63c-0.5-0.01-0.93,0.09-1.3,0.25c-0.64,0.29-1.1,0.79-1.43,1.33c-0.05,0.08-0.09,0.15-0.13,0.23
			c-0.01,0.02-0.02,0.04-0.04,0.07c-0.23,0.42-0.39,0.86-0.48,1.23c-0.1,0.42-0.24,1.08-0.43,1.9c-1.35,5.23-4.82,17.47-9.52,27.19
			c-3.65,7.56-8.05,13.59-12.77,13.59c-0.88,0-1.54-0.31-2.02-0.85c-1.25-1.4-1.25-4.41-0.35-7.94c1.5-5.83,11.89-35.47,22.94-61.74
			C237.5,164.28,237.5,164.28,237.75,164.38z"/>
	</g>
	<path class="st0" d="M472.42,56.89c-1.04-0.03-1.93,0.35-2.94,0.83c-1.22,0.59-2.62,1.34-4.63,1.74c-1,0.2-2.15,0.32-3.52,0.28
		c-1.57-0.04-2.42,0.16-2.89,0.6c-0.19,0.18-0.32,0.39-0.4,0.64c-0.26,0.82-0.12,0.84-0.5,1.99c-0.04,0.12-0.24,0.16-0.31,0.06
		c-0.24-0.34-0.49-0.66-0.76-0.98c-1.72-2.01-4.08-3.48-7.11-4.44c-10.45-3.34-28.96,13.14-28.96,39.38c0,9.36,5.09,13.4,9.87,14.19
		c6.34,1.04,10.87-2.26,16.05-7.67c0.05-0.05,0.11-0.03,0.09,0.04c-5.38,25.8-12.74,38.93-17.81,44.43
		c-5.61,6.07-12.21,10.13-19.7,10.13c-21.04,0-40.24-24-67.15-24c-8.79,0-16.22,5.19-16.22,11.23c0,3.04,1.95,4.88,6.05,6.46
		c1.34,0.52,2.05,0.03,2.05-1.58c0-2.35,1.37-5.83,8.42-5.83c20.92,0,40.18,24.4,67.64,24.4c9.47,0,19.12-3.53,25.5-9.91
		c19.68-19.68,24.4-51.48,37.76-99.66C473.38,57.71,473.43,56.92,472.42,56.89z M438.19,100.08c-0.3,0.02-0.6,0.06-0.9,0.06
		c-2.84-0.08-5.96-3.22-5.84-7.69c0.34-12.16,9.04-24.29,18.35-24.03c0.06,0,0.12,0.01,0.18,0.02c1.72,0.12,2.88,1.22,3.47,2.75
		c0.33,0.85,0.49,1.83,0.47,2.84c-0.02,0.75-0.07,1.49-0.13,2.23C452.72,88.64,445.74,99.46,438.19,100.08z"/>
	<g>
		<path class="st0" d="M413.5,109.99c-0.42-0.01-2.31-0.23-3.56-2.17c-0.66-1.02-1.14-2.51-1.14-4.71c0-1.62,0.75-4.79,1.85-8.62
			c2.16-9.01,6.11-18.75,6.11-27.34c0-4.79-4.2-7.44-8.74-7.44c-7.75,0-14.4,8.59-18.28,13.67c-0.32,0.41-0.84,0.3-0.61-0.3
			c0.32-0.85,3.04-8.49,4.27-11.44c0.6-1.45,0.47-2.31-0.54-2.34c-2.93-0.08-4.87,2.48-8.17,2.48c-2.21,0-3.03,0.36-3.31,1.24
			c-0.5,1.56-10.33,28.84-12.67,39.39c-0.71,3.22,0.41,3.55,1.44,3.55c5.06,0,7.52,7.44,9.01,7.44c1.1,0,1.62-2.65,2.29-4.69
			c3.14-9.52,12.94-39.14,21.04-39.14c8.65,0-6.99,24.6-5.26,35.33c0.99,6.18,5.24,8.77,8.89,9.34c4.73,0.74,6.96-0.83,7.94-1.81
			c0.65-0.65,1.08-1.3,1.08-1.94C415.14,109.76,414.37,110.01,413.5,109.99z"/>
	</g>
	<path class="st0" d="M499.66,152.15c0.55-1.47,0.47-2.31-0.54-2.34c-2.93-0.08-4.71,3.04-11.11,2.86
		c-2.21-0.06-3.03,0.36-3.31,1.24c-0.64,2.02-2.04,6.31-2.14,6.66l0,0c0,0,0,0,0,0c-1.16,4.1-7.64,26.87-10.35,33.4
		c-0.26,0.62-0.49,0.28-0.61,0.15c-1.54-1.6-3.54-2.84-6.09-3.57c-12.32-3.49-23.95,9.12-27.69,20.91
		c-2.94,9.27-1.68,21.88,7.88,25.58c6.66,2.58,15.59,0.08,22.39-10.12c0.07-0.11,0.19-0.09,0.18,0.03
		c-0.72,8.44,0.61,19.18,12.38,19.5c7.52,0.21,11.45-7.43,11.5-9.08c0.04-1.6-3.15,2.24-8.26,2.1c-9.94-0.28-7.98-14.51-3.64-30.88
		C482.95,200.21,490.54,176.3,499.66,152.15z M455.53,228.58c-2.59-0.07-5.44-2.93-5.32-7.01c0.31-11.08,8.24-22.14,16.73-21.91
		c2.56,0.07,3.83,2.46,3.75,5.11C470.28,219.56,461.62,228.75,455.53,228.58z"/>
	<g>
		<path class="st5" d="M81.13,279.23h-8.66v-3.42h20.97v3.42h-8.66v23.48h-3.65V279.23z"/>
		<path class="st5" d="M111.74,275.81h17.36v3.42h-13.71v8.02h12.76v3.42h-12.76v8.62h14.4v3.42h-18.04V275.81z"/>
		<path class="st5" d="M155.62,288.57l-9.04-12.76h4.67l6.99,10.33l6.91-10.33h4.56l-8.97,12.73l9.88,14.17h-4.79l-7.71-11.66
			l-7.75,11.66h-4.52L155.62,288.57z"/>
		<path class="st5" d="M196.87,275.81h3.3l11.51,26.89h-4.25l-2.7-6.65h-12.8l-2.66,6.65h-4.25L196.87,275.81z M203.41,292.87
			l-5.01-12.35h-0.08l-5.09,12.35H203.41z"/>
		<path class="st5" d="M230.41,297.08c0.66,0.99,1.5,1.72,2.53,2.18c1.03,0.47,2.08,0.7,3.17,0.7c0.61,0,1.23-0.1,1.86-0.29
			c0.63-0.19,1.21-0.48,1.73-0.85c0.52-0.38,0.94-0.85,1.27-1.41c0.33-0.56,0.49-1.2,0.49-1.94c0-1.04-0.33-1.83-0.99-2.37
			c-0.66-0.54-1.48-1-2.45-1.37c-0.97-0.37-2.04-0.72-3.19-1.06c-1.15-0.34-2.22-0.82-3.19-1.42c-0.97-0.61-1.79-1.42-2.45-2.45
			c-0.66-1.03-0.99-2.41-0.99-4.16c0-0.78,0.17-1.62,0.51-2.51s0.88-1.7,1.61-2.43c0.73-0.73,1.68-1.35,2.83-1.84
			c1.15-0.49,2.54-0.74,4.16-0.74c1.47,0,2.87,0.2,4.22,0.61c1.34,0.4,2.52,1.23,3.53,2.47l-2.96,2.7c-0.46-0.71-1.1-1.28-1.94-1.71
			c-0.84-0.43-1.79-0.65-2.85-0.65c-1.01,0-1.86,0.13-2.53,0.4c-0.67,0.27-1.21,0.61-1.61,1.02c-0.41,0.42-0.69,0.87-0.85,1.35
			c-0.17,0.48-0.25,0.92-0.25,1.33c0,1.14,0.33,2.01,0.99,2.62c0.66,0.61,1.47,1.1,2.45,1.48c0.97,0.38,2.04,0.72,3.19,1.03
			c1.15,0.3,2.22,0.73,3.19,1.27c0.97,0.54,1.79,1.28,2.45,2.2c0.66,0.93,0.99,2.2,0.99,3.82c0,1.29-0.25,2.46-0.74,3.49
			c-0.49,1.04-1.16,1.91-1.99,2.62c-0.84,0.71-1.82,1.25-2.96,1.63c-1.14,0.38-2.36,0.57-3.65,0.57c-1.72,0-3.36-0.3-4.9-0.91
			c-1.55-0.61-2.77-1.54-3.68-2.81L230.41,297.08z"/>
		<path class="st5" d="M290.96,297.08c0.66,0.99,1.5,1.72,2.53,2.18c1.03,0.47,2.08,0.7,3.17,0.7c0.61,0,1.23-0.1,1.86-0.29
			s1.21-0.48,1.73-0.85c0.52-0.38,0.94-0.85,1.27-1.41c0.33-0.56,0.49-1.2,0.49-1.94c0-1.04-0.33-1.83-0.99-2.37
			c-0.66-0.54-1.48-1-2.45-1.37c-0.97-0.37-2.04-0.72-3.19-1.06s-2.22-0.82-3.19-1.42c-0.97-0.61-1.79-1.42-2.45-2.45
			c-0.66-1.03-0.99-2.41-0.99-4.16c0-0.78,0.17-1.62,0.51-2.51s0.88-1.7,1.61-2.43c0.73-0.73,1.68-1.35,2.83-1.84
			c1.15-0.49,2.54-0.74,4.16-0.74c1.47,0,2.87,0.2,4.22,0.61c1.34,0.4,2.52,1.23,3.53,2.47l-2.96,2.7c-0.46-0.71-1.1-1.28-1.94-1.71
			c-0.84-0.43-1.79-0.65-2.85-0.65c-1.01,0-1.86,0.13-2.53,0.4c-0.67,0.27-1.21,0.61-1.61,1.02c-0.41,0.42-0.69,0.87-0.85,1.35
			c-0.17,0.48-0.25,0.92-0.25,1.33c0,1.14,0.33,2.01,0.99,2.62c0.66,0.61,1.47,1.1,2.45,1.48c0.97,0.38,2.04,0.72,3.19,1.03
			c1.15,0.3,2.22,0.73,3.19,1.27c0.97,0.54,1.79,1.28,2.45,2.2c0.66,0.93,0.99,2.2,0.99,3.82c0,1.29-0.25,2.46-0.74,3.49
			c-0.49,1.04-1.16,1.91-1.99,2.62c-0.84,0.71-1.82,1.25-2.96,1.63c-1.14,0.38-2.36,0.57-3.65,0.57c-1.72,0-3.36-0.3-4.9-0.91
			c-1.55-0.61-2.77-1.54-3.69-2.81L290.96,297.08z"/>
		<path class="st5" d="M331.34,279.23h-8.66v-3.42h20.97v3.42h-8.66v23.48h-3.65V279.23z"/>
		<path class="st5" d="M368.3,291.23l-10.18-15.42h4.67l7.33,11.81l7.56-11.81h4.44l-10.18,15.42v11.47h-3.65V291.23z"/>
		<path class="st5" d="M399.64,275.81h3.65v23.48h12.35v3.42h-15.99V275.81z"/>
		<path class="st5" d="M433.79,275.81h17.36v3.42h-13.71v8.02h12.76v3.42h-12.76v8.62h14.4v3.42h-18.04V275.81z"/>
	</g>
</g>
</svg>
