<?xml version="1.0" encoding="utf-8"?>
<!-- Generator: Adobe Illustrator 23.0.4, SVG Export Plug-In . SVG Version: 6.00 Build 0)  -->
<svg version="1.1" xmlns="http://www.w3.org/2000/svg" xmlns:xlink="http://www.w3.org/1999/xlink" x="0px" y="0px"
	 viewBox="0 0 200 121.3" style="enable-background:new 0 0 200 121.3;" xml:space="preserve">
<style type="text/css">
	.st0{fill:#214093;}
	.st1{fill:#2B2B2B;}
</style>
<g id="Layer_1">
	<g>
		<g>
			<g>
				<path class="st0" d="M49.9,44.2c-1.3,0-2.3,0.7-3.7,0.3c-0.8-0.2-2-1.1-2.3-1.4c-0.5-0.4-1.1-0.7-1.9-0.7
					c-0.8,0-1.2,0.2-1.3,0.7c-0.1,0.6-0.7,2.1-1.4,4.1c-0.1,0.2-0.3,0.3-0.3,0.4c-2.4,1.6-6.8,6.7-12.7,6.7c-4.3,0-7.2-1.9-7.2-4.4
					c0-1.4,0.5-2.8,1.5-2.8c0.5,0,0.7-0.2,0.7-0.4c0-0.3-0.8-0.9-2.3-0.9c-5,0-5.4,5.2-4.5,7.1c0.1,0.1-0.1,0.3-0.3,0.1
					c-4.3-2.7-5.7-6.3-5.7-11.3c0-8.2,5.7-14.7,9-16.5c0.1,0,0.2,0,0.3,0c1.1,0.3,4.3,3.5,8.2,3.5c3.7,0,6.1-1.9,6.1-5.4
					c0-2.7-2.7-5.2-6.1-5.2c-2.8,0-4.9,1-6.3,1.8C19.3,20,19.2,20,19,19.7c-0.2-0.3-0.9-2.5-0.9-5.1c0.2-6.2,3.8-10.8,8.7-10.8
					c7.2,0,7.3,6.2,5.3,7.2c-0.2,0.1-0.4,0.3-0.3,0.6c0.4,0.7,1.1,1.2,2.1,1.2c1.6,0,2.7-1.8,2.7-4.6c0-3.9-3.5-8.1-10.5-8.1
					c-9.1,0-13.8,8.1-13.8,14.8c0,3.2,1.3,5.6,2,6.7c0.2,0.4,0.3,0.5,0.2,0.6C7.4,25.8,0.3,32.6,0,42.7
					c-0.3,10.7,7.3,19.8,18.8,19.8c10.7,0,17.4-8.7,17.4-8.7c0.2-0.2,0.5,0,0.4,0.4c-0.1,0.4-0.1,0.3-0.3,0.9
					c-0.2,0.6-0.4,1.4-0.8,2.5C32.4,67.6,25.8,95,18.4,95c-1.8,0-2.9-1.2-2.9-2.4c0-1.8,1.4-2.8,2-2.8c0.4,0,1.1,0.1,1.1-0.5
					c0-0.2-0.6-0.9-2.5-0.9c-2,0-4.6,1.9-4.6,5.9c0,4.4,2.9,6.8,7,6.8c11.5,0,15.2-18.3,20-32.8c0,0,0,0,0.1,0
					c0.9,3.2,5.5,4.8,7.2,4.9c8.2,0.2,15.4-6,15.4-16.3C61.1,50.1,58.4,44.2,49.9,44.2z M25.8,20.9c1.8,0,3.2,0.9,3.2,2.3
					c0,1.4-1.6,2.2-3.2,2.2c-1.9,0-3.3-1.5-4.1-2.2c-0.2-0.2-0.1-0.3,0-0.4C23.1,21.7,24.4,20.9,25.8,20.9z M45.9,66
					c-3.5-0.1-5.6-2.7-5.5-7.1c0.1-4.2,2.5-10.4,9-10.2c3.4,0.1,5.1,3,5,6.5C54.3,60.7,51.1,66.1,45.9,66z"/>
			</g>
		</g>
		<g>
			<path class="st1" d="M30.2,111.3h-3.6v-1.4h8.7v1.4h-3.6v9.7h-1.5V111.3z"/>
			<path class="st1" d="M42.3,109.9h7.2v1.4h-5.7v3.3h5.3v1.4h-5.3v3.6h6v1.4h-7.5V109.9z"/>
			<path class="st1" d="M59.8,115.2l-3.7-5.3H58l2.9,4.3l2.9-4.3h1.9l-3.7,5.3L66,121h-2l-3.2-4.8l-3.2,4.8h-1.9L59.8,115.2z"/>
			<path class="st1" d="M75.7,109.9H77l4.8,11.1H80l-1.1-2.8h-5.3l-1.1,2.8h-1.8L75.7,109.9z M78.4,116.9l-2.1-5.1h0l-2.1,5.1H78.4z
				"/>
			<path class="st1" d="M89,118.7c0.3,0.4,0.6,0.7,1,0.9c0.4,0.2,0.9,0.3,1.3,0.3c0.3,0,0.5,0,0.8-0.1c0.3-0.1,0.5-0.2,0.7-0.4
				c0.2-0.2,0.4-0.4,0.5-0.6c0.1-0.2,0.2-0.5,0.2-0.8c0-0.4-0.1-0.8-0.4-1c-0.3-0.2-0.6-0.4-1-0.6c-0.4-0.2-0.8-0.3-1.3-0.4
				c-0.5-0.1-0.9-0.3-1.3-0.6c-0.4-0.3-0.7-0.6-1-1c-0.3-0.4-0.4-1-0.4-1.7c0-0.3,0.1-0.7,0.2-1c0.1-0.4,0.4-0.7,0.7-1
				c0.3-0.3,0.7-0.6,1.2-0.8c0.5-0.2,1.1-0.3,1.7-0.3c0.6,0,1.2,0.1,1.7,0.3c0.6,0.2,1,0.5,1.5,1l-1.2,1.1c-0.2-0.3-0.5-0.5-0.8-0.7
				c-0.3-0.2-0.7-0.3-1.2-0.3c-0.4,0-0.8,0.1-1,0.2c-0.3,0.1-0.5,0.3-0.7,0.4c-0.2,0.2-0.3,0.4-0.4,0.6c-0.1,0.2-0.1,0.4-0.1,0.6
				c0,0.5,0.1,0.8,0.4,1.1c0.3,0.3,0.6,0.5,1,0.6c0.4,0.2,0.8,0.3,1.3,0.4c0.5,0.1,0.9,0.3,1.3,0.5c0.4,0.2,0.7,0.5,1,0.9
				c0.3,0.4,0.4,0.9,0.4,1.6c0,0.5-0.1,1-0.3,1.4c-0.2,0.4-0.5,0.8-0.8,1.1c-0.3,0.3-0.8,0.5-1.2,0.7c-0.5,0.2-1,0.2-1.5,0.2
				c-0.7,0-1.4-0.1-2-0.4c-0.6-0.3-1.1-0.6-1.5-1.2L89,118.7z"/>
			<path class="st1" d="M113.9,118.7c0.3,0.4,0.6,0.7,1,0.9c0.4,0.2,0.9,0.3,1.3,0.3c0.3,0,0.5,0,0.8-0.1c0.3-0.1,0.5-0.2,0.7-0.4
				c0.2-0.2,0.4-0.4,0.5-0.6c0.1-0.2,0.2-0.5,0.2-0.8c0-0.4-0.1-0.8-0.4-1c-0.3-0.2-0.6-0.4-1-0.6c-0.4-0.2-0.8-0.3-1.3-0.4
				c-0.5-0.1-0.9-0.3-1.3-0.6c-0.4-0.3-0.7-0.6-1-1c-0.3-0.4-0.4-1-0.4-1.7c0-0.3,0.1-0.7,0.2-1c0.1-0.4,0.4-0.7,0.7-1
				c0.3-0.3,0.7-0.6,1.2-0.8c0.5-0.2,1.1-0.3,1.7-0.3c0.6,0,1.2,0.1,1.7,0.3c0.6,0.2,1,0.5,1.5,1l-1.2,1.1c-0.2-0.3-0.5-0.5-0.8-0.7
				c-0.3-0.2-0.7-0.3-1.2-0.3c-0.4,0-0.8,0.1-1,0.2c-0.3,0.1-0.5,0.3-0.7,0.4c-0.2,0.2-0.3,0.4-0.4,0.6c-0.1,0.2-0.1,0.4-0.1,0.6
				c0,0.5,0.1,0.8,0.4,1.1c0.3,0.3,0.6,0.5,1,0.6c0.4,0.2,0.8,0.3,1.3,0.4c0.5,0.1,0.9,0.3,1.3,0.5c0.4,0.2,0.7,0.5,1,0.9
				c0.3,0.4,0.4,0.9,0.4,1.6c0,0.5-0.1,1-0.3,1.4c-0.2,0.4-0.5,0.8-0.8,1.1c-0.3,0.3-0.8,0.5-1.2,0.7c-0.5,0.2-1,0.2-1.5,0.2
				c-0.7,0-1.4-0.1-2-0.4c-0.6-0.3-1.1-0.6-1.5-1.2L113.9,118.7z"/>
			<path class="st1" d="M129.7,111.3h-3.6v-1.4h8.7v1.4h-3.6v9.7h-1.5V111.3z"/>
			<path class="st1" d="M144.2,116.3l-4.2-6.4h1.9l3,4.9l3.1-4.9h1.8l-4.2,6.4v4.8h-1.5V116.3z"/>
			<path class="st1" d="M156,109.9h1.5v9.7h5.1v1.4H156V109.9z"/>
			<path class="st1" d="M168.9,109.9h7.2v1.4h-5.7v3.3h5.3v1.4h-5.3v3.6h6v1.4h-7.5V109.9z"/>
		</g>
		<path class="st0" d="M159,76.2c-4.9-0.1-7.9,5.4-8.8,5.8c0,0-0.1,0-0.1-0.2c0-0.3,0.4-1.7,0.5-1.9c0.4-1.2,1.5-4.6-2.4-4.7
			c-2.2-0.1-4.9,2.6-6.6,4.7c-0.1,0.1-0.1,0-0.1,0c0.4-1.1,0.8-2.3,1.2-3.1c0.1-0.2,0.1-0.3,0.1-0.5c0.1-0.4,0-0.7-0.3-0.7
			c-1.2,0-1.9,1.2-4.4,1.1c-0.9,0-1.2,0.1-1.3,0.5c-0.2,0.5-5.4,16.6-8.5,16.6c-4.9,0,2.9-15.7,3.3-16.6c0.2-0.6,0.2-0.9-0.2-0.9
			c-1.2,0-1.9,1.2-4.4,1.1c-0.9,0-1.2,0.1-1.3,0.5c0,0.1-0.2,0.7-0.4,1c0,0.1-0.1,0.1-0.1,0c-0.6-1.3-1.7-2.3-3.4-2.8
			c-4.9-1.4-9.6,3.6-11,8.3c-1.2,3.7-0.7,8.7,3.1,10.2c2.3,0.9,5.2,0.3,7.8-2.5c0.1-0.1,0.3-0.1,0.3,0.3c0,0,0,0,0,0
			c0,0.8,1.5,3.8,5.9,3.9c2.4,0.1,3.5-0.9,5.3-2.5c0.1,0,0.1,0,0.1,0c1.5,0.8,1.3,3.2,2.5,3.3c0.3,0,0.4-0.7,0.7-1.8
			c0.2-0.8,4.6-14.9,8.4-14.8c3.6,0.1-2.5,11.7-2.5,12c0,0.6,1,0.5,1.2,0.5c2.4,0.4,2.5,3.3,3.9,3.4c0.3,0,0.4-0.7,0.7-1.8
			c0-0.2,4.6-13.5,8-13.5c2.8,0-1.2,6.7-2.2,11.1c-0.7,2.9,1.1,5.1,3.7,5.2c2.5,0.1,3.5-1,3.5-1.5c0-0.3-2.1,0.3-2.6-1.5
			c-1-3.4,3.1-10.2,3.9-12.3C162.9,80.1,163.3,76.3,159,76.2z M117.8,91.3c-1,0-2.2-1.2-2.1-2.8c0.1-4.4,3.3-8.8,6.7-8.7
			c1,0,1.5,1,1.5,2C123.7,87.7,120.2,91.4,117.8,91.3z"/>
		<path class="st0" d="M88.4,24.5c-1.6,0-1.7,1.2-4.2,1.1c-3.3-0.1-5.2-3-7.7-3c-0.8,0-1.2,0.7-1.3,1.2c-0.5,2-3.4,16.7-10.4,16.7
			c-3.4,0-4.7-3.9-4.7-5.5c0-0.3,0-0.5,0.3-0.5c2.6,0.1,5.1-0.6,7-1.7c1.9-1.1,3.1-3.2,3.2-5.1c0.1-3.1-1.9-5.2-4.9-5.2
			c-8,0-10.9,8.8-11,12.1s1.9,9.1,9.3,9.1c10.2,0,11.9-11.1,13.6-15.6c0.5-1.2,0.8-1.5,1.5-1.1c1,0.7,1.2,0.7,2.3,1.2
			c0.7,0.3,0.7,0.8,0.4,2c-0.1,0.5-2.2,7-2.3,10.1c-0.1,3.7,2.9,4.2,4.3,4.2c3.3,0,3.6-1.2,3.6-1.4c0-0.4-0.3-0.3-0.7-0.3
			c-0.3,0-1.9-0.2-1.9-2.7c0-2.4,4.2-13.5,4.2-14.9C89,24.8,88.8,24.5,88.4,24.5z M66.4,26.9c0.9,0,1.4,0.6,1.4,1.4
			c0,1.5-1.5,3.9-6.7,3.8c-0.4,0-0.2-0.2-0.2-0.5C60.9,31.2,62.4,26.8,66.4,26.9z"/>
		<path class="st0" d="M173.8,76.5c0.3-0.6,0.2-0.9-0.2-0.9c-1.2,0-1.9,1.2-4.4,1.1c-0.9,0-1.2,0.2-1.3,0.5
			c-1.9,4.6-3.8,10-4.2,12.7c-0.7,4.2,1.3,6.3,3.4,6.5c2.3,0.2,3.4-0.7,4.2-1.5c0.2-0.2,0-0.5-0.1-0.6c-0.3-0.1-0.8,0-1.2,0
			C166.7,94.3,170.2,84.1,173.8,76.5z"/>
		<path class="st0" d="M148.2,15.5c1.3,1,1,3,0.4,4.1c-0.7,1.1-2.4,2.5-4.3,1.3c-1.4-0.9-1.3-3.2-0.2-4.5
			C145.4,14.9,147.1,14.6,148.2,15.5z"/>
		<path class="st0" d="M69.8,74.3c-0.6-0.1-0.9,0.7-0.9,0.7c-0.1,0.2-6.2,18.8-9.9,18.8c-4.4,0,3.4-15.8,3.9-17
			c0.2-0.6,0.2-0.9-0.2-0.9c-1.2,0-1.9,1.2-4.4,1.1c-0.9,0-1.2,0.1-1.3,0.5c-0.1,0.4-0.3,0.9-0.5,1.4c0,0.1-0.1,0-0.2,0
			c-0.6-1.3-1.7-2.3-3.4-2.7c-4.9-1.4-9.6,3.6-11,8.3c-1.2,3.7-0.7,8.7,3.1,10.2c2.3,0.9,5.4,0.2,7.9-2.7c0,0,0.1,0,0.1,0
			c0,0.2,0,0.3,0,0.3c0,0,0,0,0,0c0,0.8,1,3.9,5.5,3.9c3,0,5-2.2,6.6-5c0.1-0.1,0.2-0.1,0.2,0.1c-0.2,1.9,1.5,4.8,5.4,4.8
			c4.1,0,6.7-2.5,7.3-6.7c0.6-4.1-0.6-5.2-1.5-9.5c-0.3-1.6-0.4-3.2-1.8-3.2C71.4,76.8,70.8,74.4,69.8,74.3z M49,91.3
			c-1,0-2.2-1.2-2.1-2.8c0.1-4.4,3.3-8.8,6.7-8.7c1,0,1.5,1,1.5,2C54.9,87.7,51.4,91.4,49,91.3z M73.1,88.8c-1.3,2.7-4.5,2-4.7-0.5
			c-0.2-2.5,0.7-5,1.6-6.7c1-1.9,1.3-1.8,2.5,0.1C73.7,83.5,74.2,86.6,73.1,88.8z"/>
		<path class="st0" d="M182.3,64.5c-1.4-0.5-2.9,0.2-3.7,1.9c-0.5,1.2-0.5,2.7,0.3,3.5c0.2,0.2,0.3,0.4,0.1,0.6
			c-0.9,0.8-2,1.3-3,1.3c-0.8,0,0,1.3,1.6,1.4c2.2,0.1,4.8-0.8,6.1-4.5C184.2,67.1,183.8,65.1,182.3,64.5z"/>
		<path class="st0" d="M55.6,22.7c-1,0-1.4,0.5-2.8,0.5c-0.9,0-1.3,0.2-1.4,0.5c-0.6,1.5-2.4,6.8-4.6,12.8c-0.1,0.3-0.4,0.6-0.4-0.3
			c0-1.7,0.2-4.7,0.2-7.1c0-5.2-1.3-7.8-5.2-7.8c-3.3,0-5.1,2.1-5.1,3.9c0,0.6,0.3,1,0.5,1.3c0.1,0.1,0.2,0.1,0.3,0
			c0.7-0.9,0.9-1.4,2.2-1.4c3.9,0,1.8,11.4,1.8,13.8c0,1,0.3,1.7,1.7,1.7c1.8,0,2.6,2.2,4.3,2.2c0.7,0,1.1-0.4,1.5-1.4
			c1.2-3.1,2.4-6.4,3.9-10.8c1-2.7,2.7-5.6,3.2-6.9C56.1,23.1,56,22.7,55.6,22.7z"/>
		<path class="st0" d="M133.7,24.8c-4.5,0-7,3.8-8.6,5.8c-0.1,0.1-0.2,0.1-0.2,0c0.3-0.8,2-6.7,2.9-9.9c0-0.1,0.1-0.3,0.2-0.4
			c2.5-2.4,5.3-7.1,5.3-9.4c0-1-0.7-1.7-1.4-1.7c-3-0.1-5.6,4.2-7,9.9c-0.1,0.3-0.1,0.3-0.3,0.4c-3.4,1.2-4.5,0.8-4.9,0.7
			c-0.1,0-0.1-0.1,0-0.2c0.8-2.7,2.9-8.5,3.6-10.1c0.2-0.6,0.2-0.9-0.2-0.9c-1.2,0-1.3,1.2-3.9,1.1c-0.9,0-1.4,0-1.6,0.5
			c-0.1,0.2-0.9,2.8-2.5,7.2c0,0.1-0.1,0.1-0.2,0c-2.6-2-6.2-3.4-9.1-3.4c-4,0-5.7,1.5-5.7,3.7c0,0.9,0.2,1.9,2.4,2.6
			c0.3,0.1,0.4,0.1,0.4-0.3c0-0.8-0.1-2.7,3.5-2.7c2.4,0,7.1,3.5,7.3,3.6c0,0,0.1,0,0.1,0.1c-0.4,1.2-5.5,15.5-5.5,19.9
			c0,3,1.2,4.3,3.3,4.4c1.9,0.1,2.4-1.2,1.9-1.2c-1.8,0,4.6-19.3,5.3-21.5c0,0,0.1-0.1,0.1-0.1c2.1,0.1,3.9-0.3,5-0.9
			c0.1-0.1,0.1,0.2,0.1,0.3c-0.8,2.1-5.9,18.9-5.9,18.9s-0.4,1.3,0.4,1.3c2.4,0,3.3,2.9,4.2,3c0.3,0,0.3-0.8,0.6-2
			c0.2-0.7,2.4-13.9,7-13.9c0.5,0,0.7,0.4,0.6,1.1c-0.2,2.5-3,8.3-3,11.3c0,2.9,1.4,4.5,3.9,4.5c3.2,0,3.6-1.2,3.6-1.4
			c0-0.4-0.3-0.3-0.7-0.3c-0.1,0-0.3,0-0.6-0.2c-0.6-0.2-1.3-0.9-1.3-2.6c0-1.6,2-7.1,3.2-11C137,28.1,136.5,24.8,133.7,24.8z"/>
		<path class="st0" d="M147.9,24.8c0.3-0.6,0.2-0.9-0.2-0.9c-1.2,0-1.9,1.2-4.4,1.1c-0.9,0-1.2,0.2-1.3,0.5
			c-1.9,4.6-3.9,10-4.2,12.7c-0.5,4.3,1.3,6.2,3.4,6.5c2.4,0.3,3.4-0.7,4.2-1.5c0.2-0.2,0-0.5-0.1-0.6c-0.3-0.1-0.8,0-1.2,0
			C140.8,42.6,144.3,32.5,147.9,24.8z"/>
		<g>
			<polygon class="st0" points="96.3,62.1 96.3,62.1 96.3,62.1 			"/>
			<path class="st0" d="M94.9,65.6c3.7,1.6,9,3.4,12.2,3.4c3.5,0,6-1.9,6.1-4.2c0-0.8-0.8-1.8-2.5-2.2c-0.1,0-0.3-0.1-0.3,0.1
				c0,0.3,0,1.1-0.5,1.7c-0.4,0.7-1.2,1.2-3,1.2c-2.6,0-7.5-2.2-10.8-3.4c0,0-0.1,0,0-0.1c4.8-11.5,6.9-16.5,12.5-35.1
				c0.2-0.6,0.1-1-0.3-1c-1.2,0-1.9,1.2-4.4,1.1c-0.9,0-1.2,0.1-1.3,0.5c-0.3,0.8-3,13.1-7.3,13.1c-3.6,0,1.5-7.9,1.5-15.3
				c0-2.1-1-3.3-2.7-3.3c-2.6,0-3.2,1.5-3.2,1.9c0,0.4,0.1,0.2,0.6,0.2c0.6,0,0.8,0.5,0.8,1.7c-0.2,5.6-3,9-3.1,14.1
				c-0.1,2.3,1.6,4.1,4,4.1c5.4,0,7.5-4.8,7.8-5.3c0.1-0.2,0.4-0.2,0.3,0.1c-2,5.4-5.6,13.3-9.2,21.4c0,0.1-0.1,0.1-0.2,0.1
				c-2.9-1.8-7.3-4-9.9-4.1c-3.5-0.1-6.1,1.6-6.1,4.2c0,0.9,0.7,2.2,2.4,2.2c0.3,0,0.5-0.1,0.5-0.3c0.1-0.8,0.1-2.8,3.4-2.7
				c2,0.1,6.8,2.7,8.4,3.7c0.1,0,0.1,0.1,0.1,0.1c-5.4,11.6-10,23.2-10,27.4c0,2.9,1.2,5.7,5.7,5.7c4.3,0,6.1-2.7,7.8-5.8
				c1.1-1.9,1.9-4,2.5-5.9c0.5-1.4,0.8-2.7,1.2-3.6c0.4-1.1,0.8-1.5,1.4-1.2c0,0,0.1,0,0.1,0.1c1,0.7,1.2,0.7,2.3,1.2
				c0.7,0.3,0.7,0.8,0.4,2c-0.1,0.5-2.2,7-2.3,10.1c-0.1,3.7,2.9,4.2,4.3,4.2c2.5,0,3.3-0.7,3.5-1.1c0.1-0.1,0.1-0.2,0.1-0.3
				c0-0.4-0.3-0.3-0.7-0.3c-0.3,0-1.9-0.2-1.9-2.7c0-0.1,0-0.3,0-0.5c0.3-2.6,2.9-9.8,3.8-13c0.2-0.7,0.3-1.2,0.3-1.5
				c0-0.4-0.1-0.7-0.5-0.7c-0.1,0-0.1,0-0.2,0c-1.4,0.1-1.6,1.2-4.1,1.1c-3.3-0.1-5.2-3-7.7-3c-0.2,0-0.4,0-0.5,0.1
				c-0.3,0.1-0.4,0.3-0.6,0.5c0,0,0,0.1-0.1,0.1c0,0,0,0,0,0c-0.1,0.2-0.2,0.3-0.2,0.5c0,0.2-0.1,0.4-0.2,0.8
				c-0.5,2.1-1.9,7-3.8,10.8c-1.5,3-3.2,5.4-5.1,5.4c-0.4,0-0.6-0.1-0.8-0.3c-0.5-0.6-0.5-1.8-0.1-3.2c0.6-2.3,4.7-14.1,9.2-24.6
				C94.8,65.5,94.8,65.5,94.9,65.6z"/>
		</g>
		<path class="st0" d="M188.5,22.7c-0.4,0-0.8,0.1-1.2,0.3c-0.5,0.2-1,0.5-1.8,0.7c-0.4,0.1-0.9,0.1-1.4,0.1c-0.6,0-1,0.1-1.2,0.2
			c-0.1,0.1-0.1,0.2-0.2,0.3c-0.1,0.3,0,0.3-0.2,0.8c0,0-0.1,0.1-0.1,0c-0.1-0.1-0.2-0.3-0.3-0.4c-0.7-0.8-1.6-1.6-2.8-1.8
			c-5.2-0.7-11.6,5.2-11.6,15.7c0,3.7,2,5.3,3.9,5.7c2.5,0.4,4.2-1,6.4-3.1c0,0,0,0,0,0C176,51.6,173.1,56.8,171,59
			c-2.2,2.4-4.9,4-7.9,4c-8.4,0-16.1-9.9-26.8-9.9c-3.5,0-6.5,2-6.5,4.8c0,1.2,0.8,2.3,2.4,2.6c0.6,0.1,0.8,0,0.8-0.6
			c0-0.9,0.5-2.3,3.4-2.3c8.3,0,16,9.7,27,9.7c3.8,0,7.6-1.4,10.2-4c7.8-7.8,9.7-20.5,15.1-39.7C188.9,23,188.9,22.7,188.5,22.7z
			 M175.6,39.9c-1.6,0.9-3.6,0-3.6-3c0-4.9,3.2-8.9,5.5-9.5c2-0.5,3.6,0.4,3.6,3C181.1,33.6,178.8,38.1,175.6,39.9z"/>
		<g>
			<path class="st0" d="M165,43.9c-0.2,0-0.9-0.1-1.4-0.9c-0.3-0.4-0.5-1-0.5-1.9c0-0.6,0.3-1.9,0.7-3.4c0.9-3.6,2.9-7,2.9-10.5
				c0-1.9-1.7-3.4-3.5-3.4c-3.1,0-6.2,3.4-7.8,5.5c-0.1,0.2-0.3,0.1-0.2-0.1c0.1-0.3,1.2-3.4,1.7-4.6c0.2-0.6,0.2-0.9-0.2-0.9
				c-1.2,0-1.9,1-3.3,1c-0.9,0-1.2,0.1-1.3,0.5c-0.2,0.6-4.1,11.5-5.1,15.7c-0.3,1.3,0.2,1.4,0.6,1.4c2,0,3,3,3.6,3
				c0.4,0,0.6-1.1,0.9-1.9c1.3-3.8,5.2-14.9,8.4-14.9c3.5,0-0.9,6.8-1.8,11.7c-0.7,3.6,1.8,5.1,3.3,5.3c1.9,0.3,2.8-0.3,3.2-0.7
				c0.3-0.3,0.4-0.5,0.4-0.8C165.7,43.8,165.4,43.9,165,43.9z"/>
		</g>
		<path class="st0" d="M199.9,60.7c0.2-0.6,0.2-0.9-0.2-0.9c-1.2,0-1.9,1.2-4.4,1.1c-0.9,0-1.2,0.1-1.3,0.5
			c-0.3,0.8-0.8,2.5-0.9,2.7l0,0c0,0,0,0,0,0c-0.5,1.6-3,10.7-4.1,13.3c-0.1,0.2-0.2,0.1-0.2,0.1c-0.6-0.6-1.4-1.1-2.4-1.4
			c-4.9-1.4-9.6,3.6-11,8.3c-1.2,3.7-0.7,8.7,3.1,10.2c2.7,1,6.2,0,8.9-4c0,0,0.1,0,0.1,0c0,2.9,0.2,6.9,4.9,7c3,0.1,4.6-3,4.6-3.6
			c0-0.6-1.3,0.8-3.3,0.8C187.7,94.8,196.2,70.3,199.9,60.7z M182.3,91.2c-1,0-2.2-1.2-2.1-2.8c0.1-4.4,3.3-8.8,6.7-8.7
			c1,0,1.5,1,1.5,2C188.1,87.6,184.7,91.2,182.3,91.2z"/>
	</g>
</g>
<g id="Layer_2">
</g>
</svg>
