<svg xmlns="http://www.w3.org/2000/svg" width="209" height="242" viewBox="0 0 209 242">
  <metadata><?xpacket begin="﻿" id="W5M0MpCehiHzreSzNTczkc9d"?>
<x:xmpmeta xmlns:x="adobe:ns:meta/" x:xmptk="Adobe XMP Core 5.6-c140 79.160451, 2017/05/06-01:08:21        ">
   <rdf:RDF xmlns:rdf="http://www.w3.org/1999/02/22-rdf-syntax-ns#">
      <rdf:Description rdf:about=""/>
   </rdf:RDF>
</x:xmpmeta>
                                                                                                    
                                                                                                    
                                                                                                    
                                                                                                    
                                                                                                    
                                                                                                    
                                                                                                    
                                                                                                    
                                                                                                    
                                                                                                    
                                                                                                    
                                                                                                    
                                                                                                    
                                                                                                    
                                                                                                    
                                                                                                    
                                                                                                    
                                                                                                    
                                                                                                    
                                                                                                    
                           
<?xpacket end="w"?></metadata>
<defs>
    <style>
      .cls-1 {
        fill: #202020;
        fill-rule: evenodd;
      }
    </style>
  </defs>
  <path class="cls-1" d="M3836.48,2775.7a2.215,2.215,0,0,0,1.29-1.25l-0.01-.01c-0.13-.06-0.22-0.1-0.29-0.13a0.576,0.576,0,0,1-.09-0.05,0.09,0.09,0,0,0-.05-0.01,9,9,0,0,0-1.13-.36,3.958,3.958,0,0,0-1.1-.1c-0.61.03-1.2,0.09-1.76,0.17a17.04,17.04,0,0,0-4,1.12,7.883,7.883,0,0,0-3.05,2.07c-0.08.11-.16,0.22-0.24,0.35,0.28,0.04.99,0.11,2.13,0.2a23.046,23.046,0,0,0,5.53-.05c1.3-.43,2.34-0.79,3.11-1.07C3836.45,2776.07,3836.33,2775.78,3836.48,2775.7Zm-5.77-9.02a2.6,2.6,0,0,0,1.2-1.62c0-.08-0.01-0.13-0.01-0.18-0.07-.03-0.09-0.03-0.06-0.01a1.624,1.624,0,0,0-.47-0.07,7.7,7.7,0,0,0-1.27.01c-0.9.09-1.75,0.22-2.55,0.37-0.51.16-1.05,0.34-1.6,0.54a24.9,24.9,0,0,1,1.71,2.38A8.87,8.87,0,0,0,3830.71,2766.68Zm12.84,16.93a0.165,0.165,0,0,1,.12.06,0.536,0.536,0,0,0,.11.05,2.073,2.073,0,0,1-.53-0.44c-0.05-.07-0.06-0.09-0.07-0.1s0.02,0.04.06,0.11a2.759,2.759,0,0,1,.08.27,0.076,0.076,0,0,0,.04.01A1.206,1.206,0,0,0,3843.55,2783.61Zm-11.78,6.13c0.07,0.08.07,0.06,0.01-.04a0.381,0.381,0,0,1-.03-0.1,2.607,2.607,0,0,1-.37-0.19A2.01,2.01,0,0,1,3831.77,2789.74Zm60.97,10.78a0.108,0.108,0,0,1,.06-0.04,0.219,0.219,0,0,1,.05-0.03,1.422,1.422,0,0,1-.33.11h0c0.06,0.01.09,0.03,0.14,0.04,0.01,0,.01-0.01.01-0.02A0.728,0.728,0,0,0,3892.74,2800.52Zm20.14-.13h-0.02a0.26,0.26,0,0,1-.13.02,0.689,0.689,0,0,1-.08.03,0.168,0.168,0,0,1-.08.04c-0.05.02-.08,0.03-0.1,0.04-0.08.04-.13,0.07-0.16,0.08a1.709,1.709,0,0,0-.17.11c-0.16.09-.27,0.17-0.36,0.23a4.577,4.577,0,0,0-.38.36v0.01h0c-0.24,1.19-.36,1.79-0.37,1.82a0.916,0.916,0,0,1,.56.04h0.01c0.09-.06.16-0.1,0.21-0.14a4.186,4.186,0,0,0,.91-0.87,2.3,2.3,0,0,0,.49-0.99,0.715,0.715,0,0,0-.1-0.65A0.54,0.54,0,0,0,3912.88,2800.39Zm-20.37.17h-0.01C3892.42,2800.57,3892.43,2800.57,3892.51,2800.56Zm-0.27,6.62c0.05-.01.05-0.02-0.02-0.02a0.433,0.433,0,0,0-.05-0.01,0.943,0.943,0,0,1-.18.11A0.732,0.732,0,0,1,3892.24,2807.18Zm-77.45-56.55c-0.01-.01-0.03-0.05-0.06-0.09a0.405,0.405,0,0,1-.05-0.09l-0.01-.01a0.828,0.828,0,0,0-.11-0.15c-0.04-.05-0.08-0.09-0.12-0.14a0.983,0.983,0,0,0-.14-0.13c-0.06-.07-0.11-0.11-0.13-0.14l-0.01-.01c-0.01.01-.02,0-0.02-0.01-0.16-.13-0.28-0.23-0.39-0.31v-0.01c-0.02,0-.03-0.01-0.05-0.01q-0.285-.2-0.54-0.36a4.166,4.166,0,0,1-1.06-.91c-2.53.94-3.99,1.46-4.38,1.57,0.14,0.23.2,0.32,0.18,0.29,0.1,0.15.19,0.27,0.26,0.36a1.306,1.306,0,0,0,.16.2l0.09,0.09a1.971,1.971,0,0,0,.26.28,3.02,3.02,0,0,0,.31.31,0.631,0.631,0,0,1,.15.12,0.918,0.918,0,0,1,.16.14,0.953,0.953,0,0,0,.22.15,0.892,0.892,0,0,1,.15.12c0.17,0.11.31,0.2,0.43,0.28a1.752,1.752,0,0,0,.23.12c0.09,0.04.17,0.09,0.26,0.13,0.17,0.07.29,0.13,0.36,0.15a4.131,4.131,0,0,0,1.03.28,3.321,3.321,0,0,0,2.13-.44,1.454,1.454,0,0,0,.82-1.1,1.545,1.545,0,0,0-.08-0.57C3814.82,2750.69,3814.8,2750.65,3814.79,2750.63Zm109.58-13.89c0.13-.17.46-0.6,0.97-1.3a18.417,18.417,0,0,0,2.17-3.59c0.24-1.02.43-1.84,0.55-2.44-0.48.03-.71-0.01-0.7-0.13a1.665,1.665,0,0,0-.29-1.34l-0.01.01a1.4,1.4,0,0,0-.2.13,0.172,0.172,0,0,1-.07.04,0.038,0.038,0,0,1-.02.02,7.207,7.207,0,0,0-.68.6,2.857,2.857,0,0,0-.5.67,11.209,11.209,0,0,0-.59,1.21,12.844,12.844,0,0,0-.87,3.03,5.971,5.971,0,0,0,.11,2.8C3924.28,2736.54,3924.32,2736.64,3924.37,2736.74Zm-5.5-10.07a3.542,3.542,0,0,0-.98-2.34q-0.315,1.7-1.54,6.05c-0.3,1.04-.53,1.9-0.69,2.57a10.134,10.134,0,0,0,1.99-2.36A6.882,6.882,0,0,0,3918.87,2726.67Zm-96,20.33a4.578,4.578,0,0,0,1.94-2.74c-1.41.56-4.01,1.38-7.83,2.46-1.38.39-2.5,0.73-3.36,1.01a12.844,12.844,0,0,0,4.02.61A8.866,8.866,0,0,0,3822.87,2747Zm120.17-15.15h0.03c0.13-.08.23-0.15,0.32-0.21a6.772,6.772,0,0,0,1.36-1.31,3.419,3.419,0,0,0,.74-1.49,1.094,1.094,0,0,0-.15-1,0.707,0.707,0,0,0-.34-0.18,0.227,0.227,0,0,1-.04-0.01,0.241,0.241,0,0,1-.19.03c-0.04.02-.07,0.03-0.12,0.05a0.591,0.591,0,0,1-.12.06,0.811,0.811,0,0,1-.14.05c-0.13.07-.22,0.11-0.26,0.13-0.1.06-.19,0.12-0.26,0.16a4.686,4.686,0,0,0-.53.36,6.552,6.552,0,0,0-.58.53,0.031,0.031,0,0,1-.01.02v0.01c-0.36,1.79-.54,2.7-0.55,2.74A1.327,1.327,0,0,1,3943.04,2731.85Zm-27.79,5.73a0.549,0.549,0,0,0,.19-0.02l0.09-.03a2.1,2.1,0,0,0,.29-0.05c0.11-.03.22-0.05,0.32-0.08a0.461,0.461,0,0,1,.14-0.05,0.537,0.537,0,0,1,.15-0.04,1.27,1.27,0,0,0,.18-0.09,0.593,0.593,0,0,1,.14-0.05c0.13-.07.24-0.12,0.34-0.17a0.5,0.5,0,0,0,.18-0.1l0.18-.12a1.742,1.742,0,0,0,.24-0.17,3.262,3.262,0,0,0,.59-0.56,2.536,2.536,0,0,0,.57-1.54,1.118,1.118,0,0,0-.38-0.97,1.1,1.1,0,0,0-.4-0.18,0.344,0.344,0,0,0-.09-0.01h-0.17a0.615,0.615,0,0,0-.14.01,0.59,0.59,0,0,1-.14.02,1.307,1.307,0,0,0-.14.04,1.063,1.063,0,0,0-.14.03h-0.01c0,0.01,0,.01-0.02.01-0.14.05-.25,0.09-0.34,0.13h-0.02a0.022,0.022,0,0,1-.02.02c-0.16.08-.31,0.14-0.44,0.21a3.156,3.156,0,0,1-1.01.33c-0.4,2.01-.65,3.16-0.74,3.46h0.26C3915.05,2737.6,3915.16,2737.59,3915.25,2737.58Zm-78.39-48.86a1.513,1.513,0,0,1,.83-0.43,0.035,0.035,0,0,0,.02-0.01c0.08-.15.14-0.28,0.19-0.39a7.064,7.064,0,0,0,.56-2.03,3.976,3.976,0,0,0-.15-1.85,1.192,1.192,0,0,0-.71-0.86,0.9,0.9,0,0,0-.44.02,0.06,0.06,0,0,1-.04.01,0.33,0.33,0,0,1-.17.15c-0.02.03-.04,0.06-0.08,0.11a1.085,1.085,0,0,1-.08.13c-0.05.06-.09,0.11-0.11,0.13-0.08.14-.14,0.22-0.16,0.27-0.07.12-.12,0.22-0.16,0.3a6.316,6.316,0,0,0-.3.65,5.752,5.752,0,0,0-.25.84v0.02a0.01,0.01,0,0,0,.01.01C3836.5,2687.7,3836.84,2688.68,3836.86,2688.72Zm53.97,71.72c0.09-.03.16-0.06,0.21-0.07a8.916,8.916,0,0,0,1.97-.97,13.954,13.954,0,0,0,2.31-1.8q3.615-7.005,5.17-9.43a0.848,0.848,0,0,1-.76-0.58,3.171,3.171,0,0,0-.28-1.22c-0.05-.07-0.09-0.13-0.14-0.19a16.294,16.294,0,0,0-5.77,4.02,11.7,11.7,0,0,0-3.35,4.98,6.924,6.924,0,0,0-.52,2.6A3.027,3.027,0,0,0,3890.83,2760.44Zm-69.68-61.77a20.353,20.353,0,0,1,2.01-1.42,7.81,7.81,0,0,0-1.16-2.59,2.16,2.16,0,0,0-1.35-1.03h-0.15a0.231,0.231,0,1,0-.02.05,2.982,2.982,0,0,0-.06.4,7.642,7.642,0,0,0,0,1.07c0.07,0.77.17,1.49,0.28,2.17C3820.83,2697.75,3820.98,2698.21,3821.15,2698.67Zm123.71,75.55a0.49,0.49,0,0,1-.48.23,1.806,1.806,0,0,0-.67-0.17c-0.05.01-.09,0.01-0.13,0.02a9.081,9.081,0,0,0,.52,3.9,6.565,6.565,0,0,0,1.61,2.93,3.6,3.6,0,0,0,1.16.92,1.681,1.681,0,0,0,1.6.1,0.392,0.392,0,0,1,.02-0.13,5.4,5.4,0,0,0,.02-1.22,8.228,8.228,0,0,0-.3-1.61C3946.51,2776.8,3945.4,2775.15,3944.86,2774.22Zm43.92-63.59c3.22-5.24,4.68-11.22,2.86-17.78-1.02-3.32-3.77-7.87-7.91-6.27a22.313,22.313,0,0,0-2.46-15c-1.91-3.22-5.92-7.07-9.84-4.61a19.694,19.694,0,0,0-1.09-6.18,16.742,16.742,0,0,0-6.33-8.59c-4.66-3.01-9.33-2.07-10.59,3.81-2-5.97-6.3-10.88-13.03-12.46a8.941,8.941,0,0,0-3.17-.16c-4.93.67-4.69,4.84-4.06,8.4,2.51,15.83-.77,35.32-6.09,49.29l0.09-.25a0.765,0.765,0,0,1,.91.01c0.43,0.31.85,0.62,1.27,0.94a0.8,0.8,0,0,1,.16,1.1,0.786,0.786,0,0,1-.63.32,0.807,0.807,0,0,1-.47-0.16c-0.42-.31-0.83-0.62-1.25-0.93a0.8,0.8,0,0,1-.29-0.89l0.21-.14c-11.82,8.61-24.01,14.44-40.25,14.91,0.37-.02.74-0.03,1.11-0.05l0.57,0.53a0.8,0.8,0,0,1,.05,1.12,0.828,0.828,0,0,1-.58.25,0.775,0.775,0,0,1-.53-0.21l-1.15-1.06a0.794,0.794,0,0,1-.11-1.03,87.87,87.87,0,0,0-27.65-12.68c-1.22-1.96-2.41-3.91-3.61-5.88-12.5-21.26-18.36-41.18-36.69-47.24,3.21-2.58,5.11-9.29.78-12.13-0.21-5.31-4.64-6.43-8.5-1.38-0.48.58-.97,1.25-1.09,0.34-0.19-1.49-.63-3.21-1.67-1.6-1.02,1.43-1.56,4.07-2.38,1.18-0.33-1-.67-3.02-1.8-0.36-0.44,1.06-.66,2.03-1,3.1-0.37,1.17-.79,1.82-1.39.85a5.5,5.5,0,0,1-.39-0.99c-0.37-.95-0.85-0.66-1.19.28-0.25.72-.41,1.4-0.58,2.09-0.29,1.19-1.42,2.94-2.22.8-0.18-.37-0.37-1.47-0.73-1.47-0.49,0-.81,1.18-1.13,2.55a19.583,19.583,0,0,1-2.61,5.84c-1.77,3.15-3.23,7.33-.74,11.14a11.7,11.7,0,0,0-5.59,5.93c2.84-.17,3.62,1.14,8.27.75-4.13,7.1,1.06,17.48,10.57,14.95,1.1,10.74-2.37,27.28-3.57,45.51-2.37,36.06,17.06,85.17,61.28,91-0.16-.31-0.31-0.63-0.45-0.94a0.8,0.8,0,0,1,.38-1.05,0.787,0.787,0,0,1,1.04.38c0.22,0.47.44,0.93,0.68,1.38a0.788,0.788,0,0,1-.33,1.06c2.67,5.37,8.68,9.75,15.16,11.61-1.4,4.13-3.74,10.97-6.7,13.3-3.05,2.39-5.33,1.6-8.31,1.64a6.59,6.59,0,0,0-3.81.92,4.473,4.473,0,0,0-3.48,1.72,6.206,6.206,0,0,1,2.53.2v0.08c-6.86.11-13.82-.99-15.82,0.74a4.528,4.528,0,0,0-3.91,3.23,5.817,5.817,0,0,1,3.81.1,4.479,4.479,0,0,0,3.34.83c8.32-.43,15.01.2,23.57-0.61-1.07.37-3.14,1-3.25,2.55a3.9,3.9,0,0,0-1.06,1.57,4.855,4.855,0,0,1,1.73-.46c1.89,0.88,6.93-.84,9.06-1.25q-0.18.57-.42,1.14c-1.73,1.36-4.06,1.37-6.07,1.28-1.8-.07-4.16-0.25-5.19.81a3.033,3.033,0,0,0-2.47,1.38,5.323,5.323,0,0,1,2.19.24,1.864,1.864,0,0,0,1.76,1.28c-2.53.19-5,.31-7.46,0.37-3.17.07-9.98-1.47-12.55,0.38a4.831,4.831,0,0,0-3.15,2.8,5.348,5.348,0,0,1,3.13.11c1.98,1.81,8.25.93,10.9,1.01,4.18,0.14,7.47.28,10.02,0.56-1.74.9-2.66,1.78-5.69,2.55-1.66.42-2.82,0.29-4.22,0.59a3.256,3.256,0,0,0-2.52,2,5.3,5.3,0,0,0-1.67,3.38,3.78,3.78,0,0,1,2.5-.86,8.178,8.178,0,0,0,3.35-.22c1.36-.41,2.22-0.87,3.75-1.24a69.019,69.019,0,0,0,11.79-4.04c5.89,0.51,9.45-.52,10.27-3.35,0.62-.21,1.24-0.41,1.86-0.61a5.367,5.367,0,0,0,7.01,2.14,7.482,7.482,0,0,1,3.5-.09,6.477,6.477,0,0,0-3.17-1.88c-0.51-1.98-5.63-4.2-6.58-9.19q0.66-2.37,1.32-4.73c1.73,1.2,3.49,1.72,5.58.74a5.649,5.649,0,0,1,3.06.57,4.538,4.538,0,0,0-2.75-2.31c-0.82-1.76-3.71-2.42-4.54-4.18a48.47,48.47,0,0,1,4.14-13.6c8.47-1.1,17.56-5.49,21.83-13.25h0a0.777,0.777,0,0,1-.3-1.07c0.24-.43.47-0.89,0.68-1.35a0.785,0.785,0,1,1,1.42.67c-0.12.26-.25,0.52-0.38,0.78,21.27-5.64,37.13-17.72,46.39-38.08a0.788,0.788,0,0,1-.45-0.73l0.03-1.56a0.775,0.775,0,0,1,.78-0.78h0.01a0.79,0.79,0,0,1,.78.79l-0.03,1.33-0.79.24c6.8-2.09,15.92-4.45,19.8-12.39,1.52-3.6.94-8.55-2.75-10.42,5.18-3,9.47-7.28,10.67-13.44,0.41-3.54-.31-7.68-4.26-8.65a22.875,22.875,0,0,0,6.98-12.54C3995.57,2717.49,3993.98,2710.79,3988.78,2710.63Zm-26.12,41.73c0.11,0.52.23,1.04,0.34,1.56a0.785,0.785,0,0,1-.61.93,0.875,0.875,0,0,1-.16.02,0.788,0.788,0,0,1-.77-0.63c-0.1-.51-0.21-1.02-0.33-1.52A0.786,0.786,0,1,1,3962.66,2752.36Zm-7.25-18.37a0.8,0.8,0,0,1,1.05.37c0.23,0.48.45,0.96,0.67,1.45a0.785,0.785,0,0,1-1.43.65c-0.21-.48-0.43-0.95-0.65-1.42A0.784,0.784,0,0,1,3955.41,2733.99Zm-0.25,20.34,1.55,0.26a0.8,0.8,0,0,1,.64.92,0.79,0.79,0,0,1-.77.65,0.675,0.675,0,0,1-.14-0.02l-1.54-.26a0.785,0.785,0,0,1-.64-0.91A0.77,0.77,0,0,1,3955.16,2754.33Zm-2.71-25.89a0.789,0.789,0,0,1,1.07.29c0.26,0.46.52,0.92,0.77,1.39a0.789,0.789,0,0,1-.31,1.07,0.736,0.736,0,0,1-.37.1,0.783,0.783,0,0,1-.69-0.41c-0.25-.46-0.5-0.91-0.76-1.36A0.788,0.788,0,0,1,3952.45,2728.44Zm-3.39-5.3a0.777,0.777,0,0,1,1.09.21c0.3,0.44.59,0.88,0.88,1.32a0.784,0.784,0,1,1-1.31.86c-0.28-.43-0.57-0.86-0.86-1.29A0.8,0.8,0,0,1,3949.06,2723.14Zm-0.13,30.25,1.56,0.22a0.784,0.784,0,0,1-.11,1.56h-0.11l-1.55-.21a0.8,0.8,0,0,1-.67-0.89A0.788,0.788,0,0,1,3948.93,2753.39Zm-3.64-35.27a0.771,0.771,0,0,1,1.1.12c0.33,0.42.66,0.83,0.98,1.25a0.8,0.8,0,0,1-.15,1.11,0.763,0.763,0,0,1-.47.16,0.776,0.776,0,0,1-.63-0.31c-0.31-.41-0.63-0.82-0.95-1.23A0.781,0.781,0,0,1,3945.29,2718.12Zm-4.14-4.74a0.8,0.8,0,0,1,1.11.04c0.36,0.39.72,0.78,1.07,1.18a0.79,0.79,0,0,1-.07,1.11,0.74,0.74,0,0,1-.52.2,0.748,0.748,0,0,1-.58-0.26c-0.35-.39-0.7-0.77-1.05-1.16A0.8,0.8,0,0,1,3941.15,2713.38Zm-1.08,16.78c0.06-.09.13-0.19,0.21-0.29-0.02.03,0,.01,0.06-0.07,0.08-.42.22-1.14,0.41-2.17,0.17-.92.31-1.65,0.41-2.17,0.11-.46.25-1.08,0.44-1.85,0.23-.91.39-1.53,0.47-1.85a0.865,0.865,0,0,1,.5-0.37,3.748,3.748,0,0,1,.93-0.29c0.72-.13,1.05-0.06.99,0.22-0.07.3-.22,0.92-0.46,1.85-0.2.77-.34,1.38-0.44,1.85-0.07.4-.25,1.33-0.54,2.82,0.29-.13.57-0.24,0.85-0.34a6.99,6.99,0,0,1,2.59-.5,1.478,1.478,0,0,1,1.35.59,2,2,0,0,1-.07,1.67,5.363,5.363,0,0,1-1.35,1.83,7.466,7.466,0,0,1-2.36,1.61c-0.18.08-.35,0.15-0.52,0.21a23.19,23.19,0,0,1,1.89,4.41,32.243,32.243,0,0,0,1.81,4.48c0.05,0.09-.04.2-0.25,0.34a3.924,3.924,0,0,1-.79.36c-0.79.26-1.27,0.25-1.42-.04a26.219,26.219,0,0,1-1.63-3.98,37.43,37.43,0,0,0-1.58-4.01,14.374,14.374,0,0,0-.67,3.2c0,0.33-.42.57-1.24,0.73a3.249,3.249,0,0,1-.84.08c-0.25-.01-0.38-0.06-0.38-0.15,0.03-.36.33-1.73,0.91-4.09,0.29-1.17.58-2.45,0.86-3.85C3940.05,2730.35,3940,2730.27,3940.07,2730.16Zm4.87,23.54a0.8,0.8,0,0,1-.78.7h-0.09l-1.55-.16a0.791,0.791,0,0,1-.7-0.86,0.771,0.771,0,0,1,.86-0.71l1.56,0.16A0.8,0.8,0,0,1,3944.94,2753.7Zm-8.65.01a0.786,0.786,0,0,1-.73-0.84,0.812,0.812,0,0,1,.84-0.73l1.57,0.11a0.792,0.792,0,0,1-.06,1.58h-0.06Zm0.9,22.46a3.285,3.285,0,0,1-.51.78,0.89,0.89,0,0,1-.47.36,5.261,5.261,0,0,0-1.01.08c-0.18.03-.22-0.1-0.15-0.4a2.307,2.307,0,0,1,.21-0.55,3.222,3.222,0,0,1,.51-0.77,1.134,1.134,0,0,1,.47-0.36,5.36,5.36,0,0,1,1.02-.08C3937.53,2775.23,3937.51,2775.55,3937.19,2776.17Zm-0.49-67.22a0.776,0.776,0,0,1,1.1-.03c0.39,0.36.77,0.73,1.15,1.09a0.791,0.791,0,0,1,.01,1.12,0.757,0.757,0,0,1-.56.24,0.776,0.776,0,0,1-.54-0.23c-0.37-.36-0.75-0.72-1.13-1.08A0.788,0.788,0,0,1,3936.7,2708.95Zm-4.74-4.12a0.771,0.771,0,0,1,1.1-.11c0.41,0.34.81,0.68,1.21,1.02a0.791,0.791,0,0,1,.09,1.11,0.774,0.774,0,0,1-.59.28,0.753,0.753,0,0,1-.51-0.19c-0.39-.34-0.79-0.67-1.19-1A0.783,0.783,0,0,1,3931.96,2704.83Zm0.93,23.06a5.818,5.818,0,0,1,3.06-1.44,2.738,2.738,0,0,1,2.49.54,2.7,2.7,0,0,1,.77,2.05,3.089,3.089,0,0,1-.83,2.03,2.413,2.413,0,0,1-1.65.59,1.317,1.317,0,0,1-.51-0.04c-0.2-.05-0.21-0.18-0.06-0.35a2.388,2.388,0,0,0,.61-1.62,2.344,2.344,0,0,0-.7-1.87,1.674,1.674,0,0,0-.46-0.32c-0.06-.02-0.1-0.04-0.14-0.05h-0.01a0.01,0.01,0,0,0-.01.01,4.269,4.269,0,0,0-1.41,1.73,10.672,10.672,0,0,0-.83,2.56,13.218,13.218,0,0,0-.21,2.65,6.244,6.244,0,0,0,.46,2.5,1.71,1.71,0,0,0,.55.72c0.07-.06.12-0.11,0.16-0.15a4.969,4.969,0,0,0,.68-0.93,2.09,2.09,0,0,1,1.44-.65,2.319,2.319,0,0,1,.61-0.05c0.34,0.02.46,0.1,0.37,0.27a5.151,5.151,0,0,1-2.82,2.36c-1.7.55-2.81,0.31-3.35-.73a8.432,8.432,0,0,1-.38-5.12A7.732,7.732,0,0,1,3932.89,2727.89Zm-0.46,24.81a0.783,0.783,0,0,1-.78.76h-0.03l-1.56-.06a0.771,0.771,0,0,1-.76-0.81,0.749,0.749,0,0,1,.8-0.76l1.58,0.06A0.775,0.775,0,0,1,3932.43,2752.7Zm-9.36-22.67a6.327,6.327,0,0,1,3.38-2.78,3.684,3.684,0,0,1,2.72-.28,1.327,1.327,0,0,1,.65,1.3c0.51-.06.77-0.01,0.77,0.14a8.834,8.834,0,0,1-.68,3.02,41.686,41.686,0,0,0-1.17,6.39c-0.02.33-.44,0.58-1.26,0.73a3.679,3.679,0,0,1-.83.09q-0.375-.03-0.36-0.15c0.04-.56.1-1.17,0.19-1.8a5.882,5.882,0,0,1-.9.8,3.986,3.986,0,0,1-1.74.69,2.1,2.1,0,0,1-1.39-.11,2.551,2.551,0,0,1-.87-2.21A11.359,11.359,0,0,1,3923.07,2730.03Zm2.31,23.31c-0.52,0-1.04.01-1.56,0.02h-0.01a0.79,0.79,0,0,1-.01-1.58c0.52-.01,1.04-0.01,1.58-0.02h0A0.79,0.79,0,0,1,3925.38,2753.34Zm-0.37,14.97a0.711,0.711,0,0,1-.32.07,0.787,0.787,0,0,1-.72-0.46l-0.65-1.42a0.8,0.8,0,0,1,.38-1.05,0.778,0.778,0,0,1,1.04.38l0.66,1.44A0.782,0.782,0,0,1,3925.01,2768.31Zm1.26,2.89a0.775,0.775,0,0,1,1.02.42l0.6,1.46a0.791,0.791,0,0,1-.73,1.09,0.789,0.789,0,0,1-.72-0.49l-0.6-1.45A0.8,0.8,0,0,1,3926.27,2771.2Zm-13.26-36.82c0.22-1,.52-2.18.91-3.56a56.821,56.821,0,0,0,1.73-7.21,0.419,0.419,0,0,1,.04-0.15c-0.03,0-.07.01-0.11,0.01h-0.05a0.3,0.3,0,0,1-.11.03c0.05-.02-0.02.01-0.22,0.06-0.81.24-1.26,0.23-1.34-.04-0.06-.22.32-0.46,1.14-0.69a5.751,5.751,0,0,1,4.42.11,3.416,3.416,0,0,1,1.89,2.85,7.08,7.08,0,0,1-1.31,4.48,12.408,12.408,0,0,1-1.81,2.19c2.22-.41,3.26.1,3.1,1.55-0.15,1.38-1.13,2.51-2.94,3.37a11.27,11.27,0,0,1-5.33,1.22,0.781,0.781,0,0,1-.32-0.08c-0.4.01-.56-0.08-0.51-0.28C3912.18,2738.29,3912.45,2737,3913.01,2734.38Zm4.86,19.92a0.774,0.774,0,0,1,1.07.29l0.77,1.37a0.791,0.791,0,0,1-.3,1.08,0.849,0.849,0,0,1-.38.09,0.77,0.77,0,0,1-.68-0.4l-0.77-1.36A0.791,0.791,0,0,1,3917.87,2754.3Zm-1.1-1.34a0.787,0.787,0,0,1,.71-0.86c0.51-.05,1.04-0.09,1.58-0.12a0.787,0.787,0,0,1,.1,1.57c-0.52.04-1.04,0.07-1.54,0.12h-0.07A0.782,0.782,0,0,1,3916.77,2752.96Zm3.52,38.95c0.1,0.53.19,1.05,0.27,1.58a0.777,0.777,0,0,1-.65.9,0.487,0.487,0,0,1-.12.01,0.783,0.783,0,0,1-.77-0.66q-0.12-.78-0.27-1.53a0.786,0.786,0,0,1,.63-0.92A0.772,0.772,0,0,1,3920.29,2791.91Zm-4.01-40.33a0.7,0.7,0,0,1-.41.12,0.779,0.779,0,0,1-.67-0.37l-0.82-1.33a0.8,0.8,0,0,1,.24-1.09,0.778,0.778,0,0,1,1.08.25l0.83,1.34A0.778,0.778,0,0,1,3916.28,2751.58Zm-5.13-7.91a0.777,0.777,0,0,1,1.09.2c0.3,0.44.6,0.87,0.89,1.31a0.788,0.788,0,0,1-.22,1.09,0.76,0.76,0,0,1-.43.14,0.816,0.816,0,0,1-.66-0.35c-0.28-.44-0.58-0.87-0.87-1.29A0.8,0.8,0,0,1,3911.15,2743.67Zm-0.44,32.67,1.56-.14a0.788,0.788,0,0,1,.14,1.57l-1.57.14h-0.06a0.778,0.778,0,0,1-.78-0.73A0.769,0.769,0,0,1,3910.71,2776.34Zm-3.24-37.77a0.784,0.784,0,0,1,1.1.16l0.93,1.27a0.793,0.793,0,0,1-.16,1.1,0.819,0.819,0,0,1-.47.15,0.773,0.773,0,0,1-.63-0.32l-0.93-1.25A0.8,0.8,0,0,1,3907.47,2738.57Zm-0.6,38.83a0.785,0.785,0,0,1-.74.83c-0.53.03-1.05,0.05-1.58,0.07h-0.03a0.775,0.775,0,0,1-.78-0.75,0.784,0.784,0,0,1,.75-0.82c0.52-.02,1.04-0.05,1.55-0.08A0.787,0.787,0,0,1,3906.87,2777.4Zm-3.29-43.77a0.779,0.779,0,0,1,1.1.11l0.99,1.23a0.792,0.792,0,0,1-.12,1.11,0.789,0.789,0,0,1-1.1-.12l-0.98-1.22A0.792,0.792,0,0,1,3903.58,2733.63Zm-4.08-4.78a0.788,0.788,0,0,1,1.11.06c0.35,0.4.69,0.8,1.04,1.2a0.791,0.791,0,0,1-.09,1.11,0.753,0.753,0,0,1-.51.19,0.764,0.764,0,0,1-.59-0.27c-0.34-.4-0.68-0.79-1.02-1.18A0.788,0.788,0,0,1,3899.5,2728.85Zm-4.25-4.63a0.767,0.767,0,0,1,1.1.03l1.08,1.15a0.788,0.788,0,0,1-.03,1.11,0.774,0.774,0,0,1-1.11-.03l-1.07-1.14A0.791,0.791,0,0,1,3895.25,2724.22Zm5.3,20.48a4.863,4.863,0,0,1,2.48.78,6.814,6.814,0,0,1,1.79.03,5.83,5.83,0,0,1,.91.18q0.765,0.21.66,0.48a0.347,0.347,0,0,1-.06.09,0.944,0.944,0,0,1-.03.09,32.1,32.1,0,0,1-3.42,5.19c-0.5.97-1.49,2.73-2.94,5.27-1.32,2.64-2.39,4.64-3.23,6.01a34.837,34.837,0,0,1-3.38,4.81,10.233,10.233,0,0,1-3.35,2.51,8.325,8.325,0,0,1-6.13.32,5.7,5.7,0,0,1-2.09-1.28,2.922,2.922,0,0,1-.96-2.2q0.03-1.215,2-4.05c0.29-.42,1.18-0.54,2.65-0.39,1.3,0.14,1.79.42,1.49,0.84-1.26,1.82-1.88,3.05-1.86,3.71a2.618,2.618,0,0,0,.89,1.88c0.15,0.14.31,0.27,0.45,0.38,0.15-.08.26-0.14,0.32-0.17a7.448,7.448,0,0,0,1.41-1.02,16.239,16.239,0,0,0,2.59-2.99c0.73-1.06,1.48-2.24,2.26-3.56a9.714,9.714,0,0,1-4.21.08,4.077,4.077,0,0,1-3.05-2.33,5.522,5.522,0,0,1,.21-4.39,16.1,16.1,0,0,1,8.03-8.73A10.752,10.752,0,0,1,3900.55,2744.7Zm2.88,53.37c0.14,0.14-.02.29-0.49,0.45a2.4,2.4,0,0,1-.63.15,0.543,0.543,0,0,1-.41-0.05,3.794,3.794,0,0,0-.55-0.45c-0.1-.06-0.06-0.16.12-0.27a2.017,2.017,0,0,1,.36-0.18,4.08,4.08,0,0,1,.63-0.15,0.791,0.791,0,0,1,.42.05A4.427,4.427,0,0,1,3903.43,2798.07Zm-2.83-20.44a0.777,0.777,0,0,1-.78.79l-0.94.01h-0.63a0.79,0.79,0,0,1,0-1.58h1.57A0.781,0.781,0,0,1,3900.6,2777.63Zm-6.27-.07a0.789,0.789,0,0,1-.78.75h-0.04c-0.53-.03-1.05-0.05-1.57-0.09a0.778,0.778,0,0,1-.74-0.83,0.756,0.756,0,0,1,.83-0.74c0.52,0.03,1.03.06,1.55,0.08A0.786,0.786,0,0,1,3894.33,2777.56Zm-6.25-.43a0.8,0.8,0,0,1-.78.71c-0.03,0-.06-0.01-0.09-0.01l-1.57-.18a0.791,0.791,0,0,1,.2-1.57c0.51,0.07,1.03.13,1.54,0.18A0.8,0.8,0,0,1,3888.08,2777.13Zm-6.22-.84a0.781,0.781,0,0,1-.77.65,0.66,0.66,0,0,1-.14-0.01c-0.52-.09-1.04-0.19-1.55-0.3a0.784,0.784,0,0,1,.3-1.54c0.51,0.1,1.02.2,1.53,0.29A0.781,0.781,0,0,1,3881.86,2776.29Zm8.96-56.53a0.779,0.779,0,0,1,1.11-.01l1.12,1.1a0.791,0.791,0,0,1,0,1.12,0.741,0.741,0,0,1-.55.23,0.779,0.779,0,0,1-.56-0.23l-1.11-1.1A0.788,0.788,0,0,1,3890.82,2719.76Zm-10.51,17.76a6.605,6.605,0,0,1,1.2.21c0.71,0.19,1.01.39,0.91,0.6-0.69,1.29-1.57,2.8-2.64,4.51a13.163,13.163,0,0,1,1.32-.71,11.024,11.024,0,0,1,6.41-.81q1.515,0.225,1.53.75a11.853,11.853,0,0,1-1.11,4.93,49,49,0,0,1-2.5,4.96q-4.53,8.01-6.41,10.71a1.483,1.483,0,0,1-1.02.3,6.174,6.174,0,0,1-1.65-.06c-1.26-.19-1.74-0.5-1.46-0.91q1.89-2.7,6.31-10.53,3.165-5.61,3.48-8.34a9.611,9.611,0,0,0-1.01.53,23.352,23.352,0,0,0-4.12,3.32,100.171,100.171,0,0,0-6.72,7.65c-0.28.35-1.08,0.43-2.42,0.25s-1.93-.42-1.79-0.74a59.477,59.477,0,0,1,4.6-8.16c2.48-3.83,4.1-6.49,4.89-7.97C3878.32,2737.59,3879.06,2737.42,3880.31,2737.52Zm-4.58,37.47a0.79,0.79,0,0,1-.76.59,0.747,0.747,0,0,1-.2-0.03l-0.25-.07c-0.42-.12-0.85-0.24-1.28-0.36a0.794,0.794,0,0,1-.53-0.98,0.783,0.783,0,0,1,.97-0.53c0.42,0.12.84,0.24,1.25,0.35l0.24,0.06A0.8,0.8,0,0,1,3875.73,2774.99Zm-6.74-1.3a0.842,0.842,0,0,1-.27-0.04c-0.49-.18-0.98-0.36-1.48-0.55a0.784,0.784,0,0,1-.46-1.01,0.776,0.776,0,0,1,1.01-.46c0.49,0.18.98,0.36,1.46,0.53A0.787,0.787,0,0,1,3868.99,2773.69Zm0.48,2.61c-0.36.36-.71,0.73-1.06,1.1a0.762,0.762,0,0,1-.57.26,0.775,0.775,0,0,1-.53-0.21,0.788,0.788,0,0,1-.05-1.11c0.36-.4.73-0.79,1.12-1.17a0.767,0.767,0,0,1,1.1.02A0.779,0.779,0,0,1,3869.47,2776.3Zm2.88-47.22a3.876,3.876,0,0,1,1.03-.11,6.784,6.784,0,0,1,1.65.19,1.839,1.839,0,0,1,.95.46,9.092,9.092,0,0,1,.96,1.57c0.22,0.45-.3.67-1.56,0.67a6.7,6.7,0,0,1-1.64-.19,1.515,1.515,0,0,1-.96-0.47,9.427,9.427,0,0,0-.96-1.56C3871.64,2729.39,3871.81,2729.2,3872.35,2729.08Zm0.7,5.88c1.19,0.19,1.67.49,1.44,0.91q-2.2,3.885-5,8c-0.9,1.3-1.8,2.59-2.72,3.85a11.852,11.852,0,0,0-2.03,3.43c-0.07.5-.83,0.67-2.26,0.54-1.41-.13-2.09-0.42-2.03-0.87a12.943,12.943,0,0,1,2.22-3.77c1.01-1.41,1.92-2.69,2.71-3.85q2.835-4.2,5.01-8a1.368,1.368,0,0,1,.99-0.31A6.8,6.8,0,0,1,3873.05,2734.96Zm-12.07,57.4c-0.11.51-.21,1.01-0.3,1.52a0.79,0.79,0,0,1-.77.65,0.66,0.66,0,0,1-.14-0.01,0.783,0.783,0,0,1-.63-0.91c0.09-.53.19-1.06,0.3-1.58A0.788,0.788,0,1,1,3860.98,2792.36Zm-7.96-90.77h0.01c0.53,0.01,1.06.03,1.6,0.06a0.791,0.791,0,0,1-.05,1.58h-0.04c-0.52-.03-1.03-0.05-1.54-0.06A0.79,0.79,0,0,1,3853.02,2701.59Zm-1.1,19.11a4.865,4.865,0,0,1,1.01.3c0.54,0.22.69,0.43,0.44,0.62a10.1,10.1,0,0,0-2.88,4.57q-1.815,4.74-2.04,5.32a42,42,0,0,0-3,9.87,33.409,33.409,0,0,0,5.6-5.79,74.8,74.8,0,0,0,6.82-11.07c0.25-.46,1.07-0.61,2.44-0.44a5.483,5.483,0,0,1,1.38.3c0.38,0.16.54,0.33,0.49,0.48q-4.965,14.13-6.35,18.79c0.18-.17.25-0.24,0.19-0.2a36.137,36.137,0,0,0,4.4-4.79,46.976,46.976,0,0,0,4.1-6.79,29.742,29.742,0,0,0,1.78-4.07,19.783,19.783,0,0,0,.71-4.03c0.03-.47.76-0.65,2.2-0.55,1.44,0.12,2.14.41,2.1,0.9a17.039,17.039,0,0,1-.87,4.49,34.785,34.785,0,0,1-1.98,4.29,44.386,44.386,0,0,1-4.52,7.21,35.548,35.548,0,0,1-4.78,4.9c-2.14,1.86-4.15,2.77-6.01,2.76a12.5,12.5,0,0,1-1.52-.16c-0.86-.16-1.24-0.39-1.17-0.69,0.67-2.4,1.46-5.01,2.39-7.84a25.637,25.637,0,0,1-7.81,5.75,4.358,4.358,0,0,1-2.46.1c-0.99-.15-1.5-0.41-1.54-0.75-0.21-3.02.88-7.52,3.3-13.51,0.23-.57.57-1.47,1.04-2.7,0.43-1.2.78-2.1,1.04-2.73a10.141,10.141,0,0,1,2.82-4.28A3.627,3.627,0,0,1,3851.92,2720.7Zm0.82,44.42a0.791,0.791,0,0,1-.67.37,0.779,0.779,0,0,1-.41-0.12c-0.45-.28-0.89-0.56-1.33-0.85a0.782,0.782,0,0,1-.23-1.09,0.77,0.77,0,0,1,1.08-.23c0.44,0.28.87,0.56,1.31,0.83A0.792,0.792,0,0,1,3852.74,2765.12Zm-5.22-3.49a0.773,0.773,0,0,1-.63.32,0.763,0.763,0,0,1-.47-0.16c-0.42-.31-0.84-0.64-1.26-0.96a0.8,0.8,0,0,1-.14-1.11,0.792,0.792,0,0,1,1.1-.14c0.41,0.32.82,0.63,1.24,0.95A0.793,0.793,0,0,1,3847.52,2761.63Zm-7.22-6.06a0.78,0.78,0,0,1,1.11-.04c0.37,0.36.76,0.71,1.14,1.06a0.789,0.789,0,0,1,.06,1.11,0.748,0.748,0,0,1-.58.26,0.764,0.764,0,0,1-.53-0.2c-0.39-.35-0.78-0.72-1.17-1.08A0.788,0.788,0,0,1,3840.3,2755.57Zm-0.24-50.64a0.782,0.782,0,0,1,.41-1.03c0.49-.21.99-0.41,1.5-0.59a0.786,0.786,0,0,1,.53,1.48c-0.48.18-.96,0.36-1.42,0.56a0.8,0.8,0,0,1-.3.06A0.77,0.77,0,0,1,3840.06,2704.93Zm9.04-2.4a0.787,0.787,0,0,1-.68.88c-0.51.06-1.01,0.13-1.51,0.22a0.615,0.615,0,0,1-.14.01,0.786,0.786,0,0,1-.13-1.56q0.78-.135,1.59-0.24A0.785,0.785,0,0,1,3849.1,2702.53Zm-13.37-33.16c0.52-.08,1.05-0.16,1.57-0.22a0.755,0.755,0,0,1,.87.68,0.781,0.781,0,0,1-.67.88l-1.55.21a0.375,0.375,0,0,1-.11.01A0.784,0.784,0,0,1,3835.73,2669.37Zm-2.67,8.05c0.1,0.33.31,1.01,0.62,2.03,0.24,0.85.46,1.52,0.63,2.02,0.16,0.42.52,1.42,1.11,3,0.19-.29.39-0.56,0.6-0.82a8.032,8.032,0,0,1,2.19-1.97,1.631,1.631,0,0,1,1.62-.21,2.2,2.2,0,0,1,.89,1.62,5.955,5.955,0,0,1-.24,2.53,8.261,8.261,0,0,1-1.33,2.9c-0.13.17-.25,0.34-0.38,0.5a26.222,26.222,0,0,1,4.33,3.11,35.312,35.312,0,0,0,4.28,3.23c0.09,0.05.07,0.21-.05,0.46a4.327,4.327,0,0,1-.54.8c-0.61.7-1.07,0.97-1.38,0.79a29.77,29.77,0,0,1-3.83-2.85,38.282,38.282,0,0,0-3.79-2.92,15.479,15.479,0,0,0,1.19,3.44c0.18,0.31-.08.79-0.77,1.41a3.28,3.28,0,0,1-.76.56c-0.24.14-.39,0.16-0.44,0.08-0.19-.36-0.68-1.84-1.47-4.43-0.39-1.27-.85-2.66-1.38-4.16-0.18.05-.27,0.01-0.26-0.14a2.8,2.8,0,0,1,.03-0.4,0.182,0.182,0,1,0,.01-0.1c-0.15-.45-0.43-1.21-0.84-2.3-0.36-.98-0.65-1.75-0.84-2.31-0.17-.5-0.39-1.17-0.65-2.01-0.3-1.01-.5-1.68-0.61-2.04a0.967,0.967,0,0,1,.27-0.64,4.2,4.2,0,0,1,.72-0.82C3832.6,2677.25,3832.96,2677.12,3833.06,2677.42Zm2.99,73.51a0.779,0.779,0,0,1,1.1.09c0.33,0.4.67,0.79,1.02,1.18a0.789,0.789,0,0,1-.06,1.11,0.764,0.764,0,0,1-.53.2,0.8,0.8,0,0,1-.58-0.26c-0.35-.4-0.7-0.8-1.05-1.21A0.792,0.792,0,0,1,3836.05,2750.93Zm-0.65-42.32a0.79,0.79,0,0,1-.49-1.41c0.42-.33.86-0.65,1.31-0.96a0.774,0.774,0,0,1,1.08.2,0.788,0.788,0,0,1-.2,1.1c-0.42.29-.82,0.59-1.22,0.9A0.725,0.725,0,0,1,3835.4,2708.61Zm-5.9-38.07c0.52-.11,1.04-0.23,1.55-0.34a0.788,0.788,0,0,1,.93.61,0.8,0.8,0,0,1-.61.94c-0.5.1-1.01,0.21-1.52,0.33a1.114,1.114,0,0,1-.17.02,0.791,0.791,0,0,1-.77-0.61A0.8,0.8,0,0,1,3829.5,2670.54Zm-1.65,16.7a3.043,3.043,0,0,1,2.67-.92,2.925,2.925,0,0,1,1.91,1.51,3.52,3.52,0,0,1,.38,2.42,2.755,2.755,0,0,1-1.24,1.51,1.366,1.366,0,0,1-.51.26c-0.22.06-.31-0.05-0.26-0.31a2.659,2.659,0,0,0-.34-1.89,2.607,2.607,0,0,0-1.74-1.38,1.95,1.95,0,0,0-.62-0.04,1.425,1.425,0,0,1-.16.03l-0.01.01a0.031,0.031,0,0,0-.01.02,4.862,4.862,0,0,0-.35,2.46,11.708,11.708,0,0,0,.67,2.92,14.207,14.207,0,0,0,1.31,2.65,7.115,7.115,0,0,0,1.87,2.12,1.885,1.885,0,0,0,.94.36c0.03-.1.05-0.17,0.07-0.23a6.3,6.3,0,0,0,.11-1.28,2.383,2.383,0,0,1,1-1.46,2.671,2.671,0,0,1,.55-0.39c0.34-.19.51-0.17,0.51,0.04a5.756,5.756,0,0,1-1.34,3.88c-1.3,1.5-2.5,1.92-3.61,1.24q-1.89-1.155-3.28-4.66a8.593,8.593,0,0,1-.61-5.73A6.494,6.494,0,0,1,3827.85,2687.24Zm-1.16,40.76a0.8,0.8,0,0,1,.83.74c0.03,0.5.07,1.01,0.13,1.53a0.786,0.786,0,0,1-.69.87c-0.03,0-.06.01-0.09,0.01a0.779,0.779,0,0,1-.77-0.7c-0.07-.55-0.12-1.08-0.15-1.61A0.793,0.793,0,0,1,3826.69,2728Zm-0.65-4.01c0.05-.55.12-1.08,0.21-1.61a0.77,0.77,0,0,1,.9-0.65,0.783,0.783,0,0,1,.64.9c-0.08.5-.14,1.01-0.19,1.52a0.789,0.789,0,0,1-.78.7h-0.08A0.779,0.779,0,0,1,3826.04,2723.99Zm1.51,10.25a0.759,0.759,0,0,1,.95.56c0.13,0.49.27,0.99,0.42,1.48a0.789,0.789,0,0,1-.51.99,0.969,0.969,0,0,1-.23.03,0.771,0.771,0,0,1-.75-0.55c-0.16-.52-0.31-1.04-0.44-1.55A0.786,0.786,0,0,1,3827.55,2734.24Zm1.38-16.04a0.138,0.138,0,0,1-.03.04,0.79,0.79,0,0,1-.54.51l-1.51.39a0.645,0.645,0,0,1-.2.03,0.794,0.794,0,0,1-.19-1.56l1.13-.29c0.15-.39.3-0.78,0.47-1.17a0.783,0.783,0,1,1,1.43.64C3829.29,2717.25,3829.1,2717.72,3828.93,2718.2Zm0.59,22.01a0.8,0.8,0,0,1,1.04.4c0.21,0.46.43,0.93,0.66,1.39a0.8,0.8,0,0,1-.36,1.06,0.719,0.719,0,0,1-.35.08,0.778,0.778,0,0,1-.7-0.44c-0.24-.48-0.47-0.96-0.68-1.45A0.791,0.791,0,0,1,3829.52,2740.21Zm1.57-27.05a0.738,0.738,0,0,1-.45-0.15,0.786,0.786,0,0,1-.19-1.1q0.48-.66.99-1.29a0.785,0.785,0,1,1,1.21,1c-0.32.39-.63,0.79-0.92,1.21A0.787,0.787,0,0,1,3831.09,2713.16Zm1.32,32.64a0.787,0.787,0,0,1,1.08.24l0.22,0.34q0.3,0.48.63,0.96a0.787,0.787,0,0,1-.2,1.09,0.823,0.823,0,0,1-.45.14,0.784,0.784,0,0,1-.64-0.34q-0.345-.495-0.66-0.99l-0.22-.35A0.8,0.8,0,0,1,3832.41,2745.8Zm-9.02-73.61c0.5-.16,1.01-0.31,1.52-0.46a0.774,0.774,0,0,1,.96.54,0.794,0.794,0,0,1-.53.98c-0.5.14-1,.29-1.49,0.44a0.62,0.62,0,0,1-.23.04A0.788,0.788,0,0,1,3823.39,2672.19Zm-0.89,19.34a2.574,2.574,0,0,1,1.51,1.16,9.457,9.457,0,0,1,1.38,3.49,1.569,1.569,0,0,1-.46.93,3.708,3.708,0,0,1-.79.74c-0.16.11-.61,0.38-1.36,0.82-0.56.35-1,.64-1.31,0.87a18.628,18.628,0,0,0,.94,2.13,7.662,7.662,0,0,0,1.15,1.7,1.576,1.576,0,0,0,.76.49,3.853,3.853,0,0,0,.15-0.64,4.519,4.519,0,0,0-.22-2.26,0.972,0.972,0,0,1,.26-0.66,4.179,4.179,0,0,1,.73-0.81c0.59-.52.95-0.64,1.06-0.35a4.778,4.778,0,0,1-.04,3.43,5.588,5.588,0,0,1-1.01,1.82,4.644,4.644,0,0,1-1.93,1.53c-0.87.27-1.68-.2-2.41-1.42a20.4,20.4,0,0,1-1.34-2.69,13.194,13.194,0,0,1-1.15-4.47,6.164,6.164,0,0,1,.08-2.27,5.006,5.006,0,0,1,1.65-2.54A2.816,2.816,0,0,1,3822.5,2691.53Zm-0.16,28.86-1.5.44a0.833,0.833,0,0,1-.22.03,0.786,0.786,0,0,1-.23-1.54l1.51-.45A0.791,0.791,0,0,1,3822.34,2720.39Zm-4.93-46.1c0.49-.19.98-0.38,1.48-0.57a0.789,0.789,0,0,1,.55,1.48c-0.49.18-.97,0.37-1.45,0.56a0.717,0.717,0,0,1-.29.06,0.8,0.8,0,0,1-.73-0.5A0.806,0.806,0,0,1,3817.41,2674.29Zm-5.78,2.63c0.47-.24.95-0.48,1.43-0.71a0.774,0.774,0,0,1,1.04.37,0.788,0.788,0,0,1-.37,1.05c-0.47.23-.93,0.45-1.38,0.69a0.8,0.8,0,0,1-.36.09,0.787,0.787,0,0,1-.7-0.43A0.8,0.8,0,0,1,3811.63,2676.92Zm-2.59,18.73v0.01l0.01,0.02a0.147,0.147,0,0,1,.04.02,12.1,12.1,0,0,1,2.17,2.38q0.45,0.585,2.64,3.15c0.55,0.65,1.04,1.21,1.45,1.71a100.032,100.032,0,0,1-3.63-11.56,0.97,0.97,0,0,1,.27-0.65,4.259,4.259,0,0,1,.73-0.82c0.63-.56.98-0.68,1.06-0.35a116.2,116.2,0,0,0,6.15,17.77,1.421,1.421,0,0,1-.61,1.26,4.353,4.353,0,0,1-.89.88,0.657,0.657,0,0,1-.74.2,29.143,29.143,0,0,1-2.86-2.99q-1.29-1.515-2.89-3.38c-0.06-.08-0.15-0.19-0.27-0.34,1.06,3.14,1.99,5.59,2.77,7.37a1.5,1.5,0,0,1-.68,1.31,5.226,5.226,0,0,1-.62.53c-0.39.28-.61,0.35-0.67,0.21-0.79-1.8-1.72-4.28-2.82-7.44q-1.89-5.49-2.67-7.47a1,1,0,0,1,.27-0.65,3.881,3.881,0,0,1,.72-0.81C3808.57,2695.47,3808.92,2695.35,3809.04,2695.65Zm7.33,26.58-1.48.5a0.727,0.727,0,0,1-.25.04,0.78,0.78,0,0,1-.74-0.54,0.79,0.79,0,0,1,.49-1l1.49-.5A0.789,0.789,0,1,1,3816.37,2722.23Zm-5.89,2.06-1.46.54a0.722,0.722,0,0,1-.28.05,0.784,0.784,0,0,1-.28-1.52l1.48-.55a0.775,0.775,0,0,1,1,.47A0.793,0.793,0,0,1,3810.48,2724.29Zm-4.34-44.14c0.44-.29.88-0.58,1.34-0.87a0.784,0.784,0,0,1,.83,1.33c-0.44.28-.87,0.56-1.29,0.85a0.78,0.78,0,0,1-.44.13A0.786,0.786,0,0,1,3806.14,2680.15Zm-1.48,46.4-1.44.6a0.853,0.853,0,0,1-.31.06,0.786,0.786,0,0,1-.3-1.51l1.45-.61A0.789,0.789,0,1,1,3804.66,2726.55Zm0.81,22.12a0.938,0.938,0,0,1-.13-0.42c-0.29-.44-0.3-0.69-0.04-0.77q-0.09.03,4.89-1.75,1.89-.675,4.61-1.45a71.315,71.315,0,0,0,9.26-3.05,0.734,0.734,0,0,1,.2-0.05,0.744,0.744,0,0,0-.09-0.12,0.321,0.321,0,0,1-.03-0.05,0.441,0.441,0,0,1-.11-0.12,0.73,0.73,0,0,1-.23-0.2c-0.83-.75-1.12-1.26-0.87-1.54,0.2-.23.73,0.04,1.56,0.81q2.76,2.49,2.94,5.07a4.518,4.518,0,0,1-1.87,4.11,9.191,9.191,0,0,1-5.93,1.63,15.728,15.728,0,0,1-3.7-.52c2,2.23,2.15,3.76.42,4.59q-2.475,1.185-5.82-.99A15.209,15.209,0,0,1,3805.47,2748.67Zm6.83,10.64q-1.08-1.155-.72-1.35s0.04-.02.13-0.06a23.039,23.039,0,0,1,5.05-1.9c0.77-.31,1.44-0.56,2.01-0.74,3.32-1.08,5.28-1.85,5.86-2.31,0.31-.24.87,0.03,1.65,0.83a4.791,4.791,0,0,1,.72.9c0.16,0.31.19,0.5,0.08,0.6a7.518,7.518,0,0,1-1.51.89,0.031,0.031,0,0,0,.02.01h0.02a5.356,5.356,0,0,1,1.88,1.22,3.114,3.114,0,0,1,1.1,1.88,1.9,1.9,0,0,1-1.38,1.75,9.115,9.115,0,0,1-2.95.69,7.082,7.082,0,0,1-2.51-.17,3.845,3.845,0,0,1-1.81-1.46,1.8,1.8,0,0,1-.31-0.62c-0.08-.3.04-0.4,0.35-0.31a5.238,5.238,0,0,0,1.98.12,8.672,8.672,0,0,0,2.63-.52,3.4,3.4,0,0,0,1.06-.6,17.714,17.714,0,0,0-6.81.33q-3.78,1.515-4.94,1.86C3813.55,2760.45,3813.02,2760.1,3812.3,2759.31Zm6.95,11.38a5.484,5.484,0,0,1-1.83-2.28c-0.33-1.04.22-2.01,1.65-2.89a23.545,23.545,0,0,1,3.16-1.64,15.732,15.732,0,0,1,5.26-1.44,7.347,7.347,0,0,1,2.69.08,5.9,5.9,0,0,1,3.01,1.93c0.99,1.1,1.4,2.04,1.21,2.79a3.026,3.026,0,0,1-1.34,1.82,10.892,10.892,0,0,1-4.11,1.69,1.739,1.739,0,0,1-1.1-.53,4.427,4.427,0,0,1-.89-0.94c-0.13-.19-0.46-0.72-0.99-1.6a16.6,16.6,0,0,0-1.04-1.56,20.58,20.58,0,0,0-2.5,1.15,9.2,9.2,0,0,0-2,1.39,1.93,1.93,0,0,0-.57.91,4.332,4.332,0,0,0,.76.18,5.286,5.286,0,0,0,2.67-.3,1.143,1.143,0,0,1,.78.31,4.733,4.733,0,0,1,.97.85c0.63,0.71.76,1.13,0.42,1.27a5.647,5.647,0,0,1-4.05,0A6.6,6.6,0,0,1,3819.25,2770.69Zm6.94,11.59a4.776,4.776,0,0,1-.67-0.88c-0.16-.29-0.19-0.47-0.1-0.51,0.66-.35,1.38-0.7,2.15-1.03a8.81,8.81,0,0,1-1.52-.47,5.4,5.4,0,0,1-1.98-1.49,2.875,2.875,0,0,1-.84-1.65c0.02-.87.64-1.7,1.88-2.51a14.918,14.918,0,0,1,7.54-2.37,8.338,8.338,0,0,1,5.45,1.9,4.789,4.789,0,0,1,2.2,2.87,1.754,1.754,0,0,1-.99,1.65c0.43,0.53.55,0.85,0.37,0.96a11.562,11.562,0,0,1-3.84,1.33,54.52,54.52,0,0,0-7.97,3.11C3827.49,2783.4,3826.92,2783.09,3826.19,2782.28Zm7.31,9.7a7.146,7.146,0,0,1-3.88-3.29,4.11,4.11,0,0,1-.4-3.35,2.47,2.47,0,0,1,2.5-1.71,2.762,2.762,0,0,1,1.74,1.19,3.02,3.02,0,0,1,.47.65c0.22,0.39.21,0.59-.04,0.6a2.386,2.386,0,0,0-1.56.57,2.21,2.21,0,0,0-.74,1.5,2.917,2.917,0,0,0,.16,1.46c0.03,0.01.07,0.04,0.1,0.05,1.48,0.45,2.76-.63,3.86-3.27,0.08-.2.25-0.65,0.49-1.35q0.33-.885.57-1.41a4.125,4.125,0,0,1,1.89-2.12,4.231,4.231,0,0,1,3.84.06,6.291,6.291,0,0,1,2.9,2.74,4.637,4.637,0,0,1,.58,1.67,1.493,1.493,0,0,1-.59,1.55,5.043,5.043,0,0,1-3.15.57,3.02,3.02,0,0,1-1.75-1.17,3.072,3.072,0,0,1-.45-0.68c-0.23-.41-0.22-0.6.03-0.59,1.72,0.11,2.78-.14,3.18-0.77a1.4,1.4,0,0,0,.07-1.32,3.075,3.075,0,0,0-2.74.57,5.32,5.32,0,0,0-1.52,2.25c-0.82,2.03-1.21,3-1.16,2.92a6.156,6.156,0,0,1-1.67,2.38A2.745,2.745,0,0,1,3833.5,2791.98Zm21.01-.51c-1.61.33-3.06,0.66-4.33,0.99,0.59,0.97,1.09,1.81,1.49,2.52a0.493,0.493,0,0,1,.06.57,0.468,0.468,0,0,1-.56-0.05,4.014,4.014,0,0,1-1.72-1.64c-0.17-.29-0.37-0.64-0.6-1.03-0.98.28-1.91,0.59-2.79,0.9-0.52.18-1.17,0.45-1.97,0.8-1.04.44-1.69,0.72-1.95,0.83a14.419,14.419,0,0,0-3.05,1.51,5.088,5.088,0,0,0-1.18,1.27,7.691,7.691,0,0,0,3.48-.62c0.4-.18.96,0.13,1.69,0.94a4.962,4.962,0,0,1,.65.89c0.16,0.3.2,0.46,0.12,0.5a8.022,8.022,0,0,1-5.23.59,5.127,5.127,0,0,1-3.22-2.42,1.992,1.992,0,0,1,.2-2.33,6.893,6.893,0,0,1,3.16-2.27l1.96-.86c0.8-.34,1.46-0.62,1.97-0.83,1.41-.54,2.93-1.05,4.56-1.5-0.65-1.03-1.1-1.74-1.34-2.13a0.5,0.5,0,0,1-.09-0.57,0.5,0.5,0,0,1,.58.05,4.28,4.28,0,0,1,1.73,1.63c0.12,0.2.26,0.42,0.42,0.68,1.16-.29,2.41-0.57,3.76-0.84,0.41-.09.99,0.3,1.76,1.17C3854.75,2790.98,3854.9,2791.4,3854.51,2791.47Zm3.7-23.27a0.789,0.789,0,0,1-.7.42,0.666,0.666,0,0,1-.36-0.09c-0.47-.24-0.93-0.49-1.4-0.75a0.788,0.788,0,1,1,.76-1.38c0.45,0.25.91,0.5,1.37,0.74A0.79,0.79,0,0,1,3858.21,2768.2Zm0.39,30.2a0.8,0.8,0,0,1,.82-0.75,0.785,0.785,0,0,1,.74.83c-0.02.51-.04,1.03-0.05,1.55a0.773,0.773,0,0,1-.78.77h-0.01a0.792,0.792,0,0,1-.78-0.8C3858.55,2799.47,3858.57,2798.93,3858.6,2798.4Zm1.13,8.69a0.8,0.8,0,0,1-.78-0.68c-0.07-.53-0.14-1.06-0.19-1.59a0.788,0.788,0,0,1,.7-0.87,0.819,0.819,0,0,1,.86.7c0.05,0.52.11,1.03,0.19,1.54a0.789,0.789,0,0,1-.67.89A0.41,0.41,0,0,1,3859.73,2807.09Zm1.62,6.1a0.672,0.672,0,0,1-.24.04,0.777,0.777,0,0,1-.74-0.56c-0.16-.5-0.31-1.02-0.45-1.53a0.784,0.784,0,1,1,1.51-.42c0.13,0.5.28,0.99,0.43,1.48A0.789,0.789,0,0,1,3861.35,2813.19Zm1.43-26.71q-0.285.7-.54,1.44a0.794,0.794,0,0,1-.74.52,0.857,0.857,0,0,1-.27-0.05,0.779,0.779,0,0,1-.47-1c0.18-.51.37-1.01,0.57-1.51a0.792,0.792,0,0,1,1.02-.43A0.776,0.776,0,0,1,3862.78,2786.48Zm0.38-15.12a0.741,0.741,0,0,1-.32-0.07c-0.48-.21-0.96-0.43-1.44-0.65a0.788,0.788,0,0,1,.66-1.43c0.47,0.22.94,0.43,1.42,0.64A0.789,0.789,0,0,1,3863.16,2771.36Zm0.97,11.37a0.794,0.794,0,0,1-.39-0.11,0.785,0.785,0,0,1-.28-1.08c0.27-.46.55-0.92,0.84-1.37a0.791,0.791,0,0,1,1.09-.23,0.8,0.8,0,0,1,.23,1.09c-0.28.43-.55,0.87-0.81,1.31A0.792,0.792,0,0,1,3864.13,2782.73Zm2.54,24.79a3.645,3.645,0,0,1-.72.23,0.975,0.975,0,0,1-.29.16,2.051,2.051,0,0,1-.62.2c-0.47.09-.69,0.04-0.65-0.15a88.625,88.625,0,0,0,1.84-10.08,0.875,0.875,0,0,1,.85-0.47,2.164,2.164,0,0,1,.55-0.05c0.16,0.01.24,0.04,0.23,0.08a89.786,89.786,0,0,1-1.73,9.66,4.346,4.346,0,0,0,.44-0.41,5.666,5.666,0,0,0,.84-1.19,11.271,11.271,0,0,0,1.18-3.2,7.364,7.364,0,0,0-.07-4.35,1.8,1.8,0,0,0-.39-0.65,2.152,2.152,0,0,0-.29-0.25,1.468,1.468,0,0,0-.15-0.09,0.944,0.944,0,0,1-.09-0.03h-0.01a1.152,1.152,0,0,0-.21-0.06,0.175,0.175,0,0,1-.05-0.01h-0.16q-0.12.045-.15,0.06c-0.06.02-.1,0.04-0.13,0.05-0.06.03-.11,0.05-0.14,0.07a0.142,0.142,0,0,1-.04.02,2.216,2.216,0,0,1-1.15.31,0.27,0.27,0,0,1-.26-0.12,0.226,0.226,0,0,1,.17-0.23,5.8,5.8,0,0,1,2.51-.81,2.179,2.179,0,0,1,1.51.38,3.5,3.5,0,0,1,.99,2.76,11.7,11.7,0,0,1-.97,4.82A5.735,5.735,0,0,1,3866.67,2807.52Zm7.44-3.47a1.87,1.87,0,0,1-1.1.39,0.762,0.762,0,0,1-.34-0.03c-0.15-.04-0.16-0.12-0.04-0.23a2.752,2.752,0,0,0,.58-0.82,4.441,4.441,0,0,0,.46-1.26,1.627,1.627,0,0,0,.03-0.61,9.106,9.106,0,0,0-1.65,3q-0.36,2.025-.51,2.61a1.119,1.119,0,0,1-.86.42c-0.52.1-.78,0.08-0.77-0.05a0.6,0.6,0,0,1,.01-0.08,12.06,12.06,0,0,1,.52-2.66c0.08-.41.15-0.76,0.22-1.06a13.718,13.718,0,0,0,.56-3.11c-0.02-.2.24-0.37,0.79-0.49a1.766,1.766,0,0,1,.57-0.07q0.255,0.015.27,0.12a3.259,3.259,0,0,1-.01.88v-0.01a0.01,0.01,0,0,0,.01-0.01,2.767,2.767,0,0,1,1.01-.48,1.558,1.558,0,0,1,1.09.02,0.967,0.967,0,0,1,.38,1.05,4.608,4.608,0,0,1-.49,1.45A3.463,3.463,0,0,1,3874.11,2804.05Zm5.35,3.63a2.082,2.082,0,0,1-.61.2q-0.72.135-.66-0.15c0.43-1.8.67-2.84,0.73-3.1-0.07.12-.12,0.22-0.17,0.31a8.025,8.025,0,0,1-1.44,1.91,2.711,2.711,0,0,1-2.18.75,0.182,0.182,0,0,1-.15-0.1,12.862,12.862,0,0,1,1.76-7.07,1.378,1.378,0,0,1,.96-0.44,1.343,1.343,0,0,1,.41-0.03q0.33,0.015.24,0.18a12.638,12.638,0,0,0-1.72,5.91,15.581,15.581,0,0,0,.8-1.35c1.2-2.21,1.91-3.62,2.13-4.21a1.18,1.18,0,0,1,.86-0.41c0.51-.11.77-0.1,0.75,0.04a51.061,51.061,0,0,1-1.38,7.32A0.515,0.515,0,0,1,3879.46,2807.68Zm9.15-2.04c-0.05.23-.1,0.64-0.17,1.22a7.463,7.463,0,0,1-.2,1.23,0.551,0.551,0,0,1-.33.25,3,3,0,0,1-.62.2c-0.48.08-.7,0.03-0.65-0.15a8.13,8.13,0,0,0,.18-1.13c0.06-.54.1-0.92,0.14-1.12,0.06-.34.26-1.14,0.58-2.41a14.893,14.893,0,0,0,.45-2.38,1.752,1.752,0,0,0-.02-0.54c-0.02.03-.03,0.04-0.01,0.02a3.278,3.278,0,0,0-.43.66,11.647,11.647,0,0,0-.7,1.65c-0.1.29-.34,0.87-0.72,1.75a9.229,9.229,0,0,0-.4,1.04c-0.07.43-.14,0.81-0.22,1.14a1.043,1.043,0,0,1-.85.41c-0.52.11-.78,0.09-0.77-0.04a4.366,4.366,0,0,1,.11-0.75,4.161,4.161,0,0,1,.12-0.44c0.28-1.82.44-2.8,0.47-2.96,0.17-.64.28-1.12,0.33-1.43a4.056,4.056,0,0,0,.08-1.17,11.464,11.464,0,0,0-1.13,2.17c-0.34.84-.65,1.74-0.95,2.7a17.47,17.47,0,0,0-.45,1.74,0.551,0.551,0,0,1-.33.25,2.817,2.817,0,0,1-.62.2c-0.46.08-.68,0.05-0.67-0.08a34.29,34.29,0,0,1,.84-3.66,15.7,15.7,0,0,0,.63-3.69c0-.22.27-0.38,0.81-0.49a1.977,1.977,0,0,1,.57-0.06c0.16,0.01.25,0.04,0.25,0.1,0,0.16-.01.32-0.02,0.48a1.5,1.5,0,0,1,.33-0.23,3.35,3.35,0,0,1,1.31-.45c0.62-.07.97,0.11,1.04,0.56a2.328,2.328,0,0,1,.02.6,3.238,3.238,0,0,1,2.05-.94,0.915,0.915,0,0,1,.78.17,0.86,0.86,0,0,1,.19.58,10.521,10.521,0,0,1-.38,2.38C3888.81,2804.8,3888.6,2805.68,3888.61,2805.64Zm5.69-3.39a1.483,1.483,0,0,1-.96.45,1.726,1.726,0,0,1-.41.02c-0.23-.02-0.31-0.07-0.24-0.18a1.748,1.748,0,0,0,.51-1.56,0.687,0.687,0,0,0-.54-0.38,1.578,1.578,0,0,0-.48,1.33,2.675,2.675,0,0,0,.55,1.24c0.65,0.88.96,1.31,0.94,1.27a3.012,3.012,0,0,1,.56,1.34,1.358,1.358,0,0,1-.59,1.24,3.494,3.494,0,0,1-2.41.8,2.028,2.028,0,0,1-1.53-.71,1.257,1.257,0,0,1-.07-1.51,1.344,1.344,0,0,1,.97-0.44,1.278,1.278,0,0,1,.4-0.03c0.22,0.01.3,0.06,0.24,0.17a1.229,1.229,0,0,0-.17.82,1.1,1.1,0,0,0,.44.71,1.521,1.521,0,0,0,.66.32,0.219,0.219,0,0,0,.05-0.03c0.58-.51.46-1.35-0.37-2.51-0.06-.09-0.21-0.28-0.44-0.57-0.2-.25-0.34-0.46-0.45-0.61a2.025,2.025,0,0,1,.63-3,3.15,3.15,0,0,1,1.93-.53,2.422,2.422,0,0,1,.86.19,0.749,0.749,0,0,1,.5.66A2.505,2.505,0,0,1,3894.3,2802.25Zm3.12,4.51a3.951,3.951,0,0,0,.65-1.66,0.869,0.869,0,0,1,.84-0.47,2.283,2.283,0,0,1,.55-0.05c0.17,0.01.25,0.03,0.25,0.08a4.116,4.116,0,0,1-1.13,2.4,2.562,2.562,0,0,1-1.88.74,0.981,0.981,0,0,1-.93-0.7,3.463,3.463,0,0,1-.13-1.95c0.02-.14.07-0.49,0.15-1.06,0.07-.44.12-0.79,0.17-1.07,0.14-.74.32-1.53,0.56-2.35-0.61.01-1.03,0.02-1.25,0.02a0.238,0.238,0,0,1-.27-0.12,0.247,0.247,0,0,1,.17-0.23,2.108,2.108,0,0,1,1.15-.31h0.4c0.18-.58.39-1.19,0.63-1.84a1.231,1.231,0,0,1,.96-0.45c0.5-.09.72-0.04,0.65,0.15-0.28.78-.53,1.48-0.72,2.12,0.56,0,1.05,0,1.46.02a0.259,0.259,0,0,1,.26.12,0.247,0.247,0,0,1-.17.23,2.077,2.077,0,0,1-1.15.31c-0.17-.01-0.37-0.01-0.59-0.02-0.14.49-.26,0.97-0.35,1.43a10.041,10.041,0,0,0-.19,1.06c-0.08.56-.14,0.91-0.16,1.06a7.519,7.519,0,0,0-.16,1.7A2.451,2.451,0,0,0,3897.42,2806.76Zm4.91-3.04c-0.17.59-.33,1.19-0.5,1.77a4.564,4.564,0,0,0-.31,1.53c0.04,0.2-.22.36-0.76,0.5s-0.83.12-.86-0.06a4.763,4.763,0,0,1,.33-1.67c0.19-.66.36-1.25,0.5-1.78q0.495-1.92.81-3.6a0.6,0.6,0,0,1,.32-0.25,2.9,2.9,0,0,1,.63-0.19c0.46-.08.68-0.04,0.64,0.15C3902.93,2801.27,3902.66,2802.47,3902.33,2803.72Zm4.64-3.25a1.061,1.061,0,0,0-.31-0.21l-0.09-.03h-0.01a2.834,2.834,0,0,0-.93,1.15,6.914,6.914,0,0,0-.55,1.7,8.684,8.684,0,0,0-.15,1.75,4.25,4.25,0,0,0,.31,1.66,1.365,1.365,0,0,0,.36.48,1.109,1.109,0,0,0,.11-0.11,3.327,3.327,0,0,0,.45-0.61,1.416,1.416,0,0,1,.95-0.44,1.819,1.819,0,0,1,.41-0.02c0.22,0.01.31,0.06,0.24,0.17a3.349,3.349,0,0,1-1.86,1.56q-1.7.555-2.22-.48a5.494,5.494,0,0,1-.25-3.38,5.18,5.18,0,0,1,1.43-3.11,3.886,3.886,0,0,1,2.03-.96,1.781,1.781,0,0,1,1.64.36,1.756,1.756,0,0,1,.52,1.36,2.08,2.08,0,0,1-.55,1.34,1.545,1.545,0,0,1-1.09.39,0.723,0.723,0,0,1-.34-0.02c-0.13-.04-0.14-0.12-0.04-0.24a1.547,1.547,0,0,0,.4-1.07A1.579,1.579,0,0,0,3906.97,2800.47Zm7.75,0.98a3.589,3.589,0,0,1-.9,1.22,4.859,4.859,0,0,1-1.56,1.06c-0.12.05-.24,0.1-0.35,0.14a16.014,16.014,0,0,1,1.26,2.92,19.636,19.636,0,0,0,1.2,2.97c0.03,0.06-.03.13-0.17,0.22a2.3,2.3,0,0,1-.52.24c-0.53.17-.84,0.17-0.94-0.02a18.737,18.737,0,0,1-1.09-2.64,22.815,22.815,0,0,0-1.04-2.66,9.841,9.841,0,0,0-.44,2.12,0.837,0.837,0,0,1-.83.49,2.2,2.2,0,0,1-.55.05c-0.17-.01-0.25-0.04-0.25-0.1a25.882,25.882,0,0,1,.6-2.71c0.19-.77.39-1.62,0.57-2.55-0.1-.02-0.14-0.08-0.09-0.15a2.307,2.307,0,0,1,.14-0.19c-0.02.02,0,0,.04-0.05,0.05-.28.14-0.75,0.27-1.43,0.11-.61.2-1.1,0.27-1.44,0.07-.31.17-0.72,0.29-1.23,0.16-.6.26-1.01,0.31-1.22a0.587,0.587,0,0,1,.34-0.25,2.723,2.723,0,0,1,.61-0.19c0.48-.09.69-0.04,0.66,0.15-0.05.2-.15,0.6-0.31,1.22-0.13.51-.23,0.92-0.29,1.23-0.05.26-.17,0.88-0.36,1.87a6.124,6.124,0,0,1,2.28-.56,0.951,0.951,0,0,1,.89.39A1.32,1.32,0,0,1,3914.72,2801.45Zm1.67-19.11a0.736,0.736,0,0,1-.37.1,0.773,0.773,0,0,1-.69-0.42c-0.25-.45-0.5-0.9-0.76-1.33a0.783,0.783,0,0,1,.26-1.08,0.792,0.792,0,0,1,1.08.26c0.27,0.46.54,0.93,0.8,1.41A0.787,0.787,0,0,1,3916.39,2782.34Zm0.63-5.06a0.8,0.8,0,0,1-.78-0.7,0.786,0.786,0,0,1,.68-0.87l1.56-.19a0.768,0.768,0,0,1,.87.68,0.781,0.781,0,0,1-.68.88l-1.56.19A0.277,0.277,0,0,1,3917.02,2777.28Zm0.63,10.43q-0.225-.75-0.48-1.47a0.781,0.781,0,1,1,1.47-.53q0.27,0.75.51,1.53a0.788,0.788,0,0,1-.52.98,0.656,0.656,0,0,1-.23.04A0.783,0.783,0,0,1,3917.65,2787.71Zm2.43,23.31c-0.11.53-.25,1.05-0.39,1.56a0.778,0.778,0,0,1-.75.58,0.761,0.761,0,0,1-.21-0.03,0.79,0.79,0,0,1-.55-0.97c0.14-.48.26-0.98,0.38-1.49A0.78,0.78,0,1,1,3920.08,2811.02Zm0.79-4.75a0.781,0.781,0,0,1-.78.7h-0.08a0.794,0.794,0,0,1-.7-0.87c0.06-.51.1-1.02,0.14-1.54a0.791,0.791,0,0,1,.84-0.73,0.777,0.777,0,0,1,.72.84C3920.98,2805.21,3920.93,2805.74,3920.87,2806.27Zm-0.51-5.59h-0.02a0.785,0.785,0,0,1-.78-0.77c-0.01-.52-0.03-1.03-0.06-1.55a0.781,0.781,0,1,1,1.56-.09c0.03,0.53.06,1.07,0.07,1.6A0.792,0.792,0,0,1,3920.36,2800.68Zm1.61-37.98a0.8,0.8,0,0,1-.7-0.43l-0.71-1.4a0.787,0.787,0,0,1,1.4-.72l0.71,1.4a0.788,0.788,0,0,1-.34,1.06A0.8,0.8,0,0,1,3921.97,2762.7Zm1.15,12.18,1.54-.24a0.784,0.784,0,0,1,.9.66,0.8,0.8,0,0,1-.66.9l-1.55.23a0.487,0.487,0,0,1-.12.01A0.784,0.784,0,0,1,3923.12,2774.88Zm9.46,23.88a3.969,3.969,0,0,1-.53.59c-0.18.15-.29,0.21-0.33,0.16a74.569,74.569,0,0,1-6.89-11.52c-0.25.26-.47,0.5-0.66,0.74-0.15.19-.29,0.35-0.39,0.49s-0.18.24-.22,0.3a0.138,0.138,0,0,1-.03.04,0.044,0.044,0,0,1-.01.03c-0.44.67-.74,0.94-0.92,0.82-0.24-.14-0.13-0.55.31-1.22a18.612,18.612,0,0,1,2.1-2.66c0.07-.11.13-0.21,0.19-0.29a1.062,1.062,0,0,1,.7-0.59,18.612,18.612,0,0,1,2.48-1.93c0.2-.12.29-0.07,0.29,0.15a1.089,1.089,0,0,1-.09.49,2.846,2.846,0,0,1-.97,1.35,14.555,14.555,0,0,0-1.2.84,73.052,73.052,0,0,0,6.56,10.89Q3933.27,2797.8,3932.58,2798.76Zm8.18-8.24a4.153,4.153,0,0,1-.53.6q-0.27.24-.36,0.15a9.842,9.842,0,0,1-1.43-2.28,21.047,21.047,0,0,0-1.27-2.38,21.445,21.445,0,0,0-2.06-2.67,4.543,4.543,0,0,0-.72-0.59,11.094,11.094,0,0,0,.71,2.8q0.555,1.6,1.62,3.93c0.71,1.56,1.09,2.43,1.16,2.6a1.907,1.907,0,0,1-.51,1.27q-0.63.93-.81,0.69a129.387,129.387,0,0,1-8.68-13.88,0.889,0.889,0,0,1,.1-0.58,3.489,3.489,0,0,1,.46-0.81c0.41-.57.68-0.73,0.81-0.49q2.175,3.9,3.77,6.55a5.109,5.109,0,0,1,.04-1.67,4.488,4.488,0,0,1,.9-1.85c0.57-.72,1.13-0.92,1.69-0.59a5.889,5.889,0,0,1,1.39,1.33c0.33,0.42.73,0.96,1.19,1.62a16.005,16.005,0,0,1,1.18,1.94,15.663,15.663,0,0,0,1.72,3.01C3941.33,2789.44,3941.2,2789.87,3940.76,2790.52Zm2.95-2.89c-0.42.68-.73,0.94-0.94,0.8a7.058,7.058,0,0,1-1.3-2.06c-0.44-.86-0.84-1.64-1.21-2.33-0.9-1.65-1.8-3.16-2.68-4.53a0.729,0.729,0,0,1,.09-0.57,3.958,3.958,0,0,1,.46-0.82c0.4-.54.67-0.71,0.82-0.48q1.35,2.085,2.68,4.52c0.41,0.77.82,1.55,1.21,2.33a6.4,6.4,0,0,0,1.18,1.88C3944.25,2786.54,3944.14,2786.95,3943.71,2787.63Zm7.94,0.54a3.307,3.307,0,0,1-1.16.72,1.635,1.635,0,0,1-1.33-.08,5.227,5.227,0,0,1-1.5-2.03,1.779,1.779,0,0,1,.49-1.42c0.39-.61.65-0.78,0.79-0.53a4.821,4.821,0,0,0,1.35,1.87,1.458,1.458,0,0,0,1.16.03q0.165-.06.3-0.12v-0.21a4.563,4.563,0,0,0-.15-0.96,8.827,8.827,0,0,0-.82-2.05c-0.34-.63-0.73-1.31-1.18-2.03a5.6,5.6,0,0,1-1.03,2.12,2.246,2.246,0,0,1-1.92.93,3,3,0,0,1-2.12-1.21,9.1,9.1,0,0,1-2.28-6.22,6.081,6.081,0,0,1,.91-3.67,2.789,2.789,0,0,1,1.01-1.04,4.072,4.072,0,0,1,.47-0.88,3.605,3.605,0,0,1,.32-0.42c0.2-.22.34-0.28,0.41-0.2a0.219,0.219,0,0,1,.03.05,0.138,0.138,0,0,0,.03.04,17.564,17.564,0,0,1,1.7,3.02c0.35,0.49.97,1.43,1.85,2.8,0.97,1.33,1.69,2.37,2.15,3.13a20.052,20.052,0,0,1,1.52,2.91,5.973,5.973,0,0,1,.4,2.31A4.766,4.766,0,0,1,3951.65,2788.17Zm5.62-13.41a4.151,4.151,0,0,1-.52.6c-0.19.16-.3,0.21-0.36,0.15a9.517,9.517,0,0,1-1.43-2.28,19.718,19.718,0,0,0-1.28-2.38,20.15,20.15,0,0,0-2.05-2.67,3.835,3.835,0,0,0-.73-0.6,11.923,11.923,0,0,0,.71,2.8c0.37,1.07.91,2.38,1.62,3.94s1.1,2.42,1.16,2.59a1.862,1.862,0,0,1-.5,1.27c-0.43.63-.69,0.86-0.81,0.7a129.683,129.683,0,0,1-8.68-13.89,0.8,0.8,0,0,1,.1-0.57,3.547,3.547,0,0,1,.46-0.82c0.4-.56.68-0.72,0.81-0.49q2.175,3.915,3.77,6.55a5.065,5.065,0,0,1,.03-1.66,4.62,4.62,0,0,1,.9-1.85c0.57-.72,1.14-0.92,1.7-0.59a5.493,5.493,0,0,1,1.38,1.33c0.34,0.42.74,0.96,1.19,1.62a14.812,14.812,0,0,1,1.18,1.93,15.883,15.883,0,0,0,1.72,3.01C3957.84,2773.67,3957.72,2774.11,3957.27,2774.76Zm1.79-32.05a0.646,0.646,0,0,1-.27.05,0.794,0.794,0,0,1-.74-0.52c-0.18-.49-0.36-0.97-0.55-1.46a0.8,0.8,0,0,1,.45-1.02,0.768,0.768,0,0,1,1.01.45c0.2,0.49.38,0.99,0.56,1.49A0.789,0.789,0,0,1,3959.06,2742.71Zm0.91,5.47c-0.14-.5-0.29-1-0.44-1.5a0.784,0.784,0,0,1,1.5-.46l0.45,1.53a0.8,0.8,0,0,1-.54.97,0.833,0.833,0,0,1-.22.03A0.777,0.777,0,0,1,3959.97,2748.18Zm0.46,7.93a0.788,0.788,0,0,1,.93-0.61c0.52,0.11,1.04.23,1.54,0.34a0.79,0.79,0,0,1-.17,1.56,1.1,1.1,0,0,1-.18-0.02c-0.49-.12-1-0.23-1.52-0.34A0.786,0.786,0,0,1,3960.43,2756.11Zm2.12,4.29c-0.08-.52-0.15-1.04-0.24-1.55a0.782,0.782,0,0,1,.65-0.9,0.8,0.8,0,0,1,.9.65c0.09,0.52.17,1.05,0.24,1.57a0.8,0.8,0,0,1-.67.9h-0.11A0.776,0.776,0,0,1,3962.55,2760.4Zm0.7,6.21-0.14-1.56a0.786,0.786,0,0,1,.7-0.86,0.775,0.775,0,0,1,.86.71l0.14,1.58a0.784,0.784,0,0,1-.71.85h-0.07A0.791,0.791,0,0,1,3963.25,2766.61Zm1.15,7.01h-0.02a0.786,0.786,0,0,1-.79-0.76c-0.01-.52-0.03-1.05-0.05-1.57a0.775,0.775,0,0,1,.75-0.81,0.724,0.724,0,0,1,.82.75c0.02,0.53.04,1.05,0.05,1.59A0.781,0.781,0,0,1,3964.4,2773.62Z" transform="translate(-3786 -2633)"/>
</svg>
