<svg height="166" viewBox="0 0 313 166" width="313" xmlns="http://www.w3.org/2000/svg"><path d="m3426.16 2758.49c-.02 0-.01.01-.02.01h.05c-.07.01-.08.01-.03-.01zm111.5 14.75a3.977 3.977 0 0 0 .29-.31 7.606 7.606 0 0 0 1.47-4.63 3.177 3.177 0 0 0 -.6-1.92q-.15.255-.3.57a12.121 12.121 0 0 0 -.67 1.88 8.807 8.807 0 0 0 -.44 3.8 1.454 1.454 0 0 0 .25.61zm-93.31-2.75a4.447 4.447 0 0 0 -.65-3.04.437.437 0 0 0 -.08-.07 2.383 2.383 0 0 0 -.35.24 12.279 12.279 0 0 0 -3.3 5 12.742 12.742 0 0 0 -1.1 5.92 4.117 4.117 0 0 0 1.32 2.76 3.346 3.346 0 0 0 .4.31.6.6 0 0 1 .08-.07 1.859 1.859 0 0 1 .87-.47q.465-1.365 1.68-5.11c.7-2.17 1.27-3.88 1.69-5.14-.38-.06-.57-.18-.56-.33zm14.83-66.95a39.425 39.425 0 0 0 -2.11 5.91q-2.205 7.815-1.38 11.92a4.683 4.683 0 0 0 .78 1.92 11.694 11.694 0 0 0 .92-.98 21.063 21.063 0 0 0 2.47-4.24 23.317 23.317 0 0 0 2.15-10.31 10.1 10.1 0 0 0 -1.88-6.03c-.32.56-.64 1.16-.95 1.81zm-2.83 65.86c-.08.04-.1.06-.06.04a3.425 3.425 0 0 0 -.39.35 9.913 9.913 0 0 0 -.87 1.07c-.56.83-1.05 1.63-1.49 2.41-.21.54-.44 1.11-.65 1.72a30.432 30.432 0 0 1 3.2.21 9.9 9.9 0 0 0 .94-3.55 2.835 2.835 0 0 0 -.53-2.13c-.06-.05-.12-.09-.15-.12zm46.27-16.91c-.03.03-.04.04-.02.03a1.624 1.624 0 0 0 -.18.2 5.508 5.508 0 0 0 -.37.61c-.22.47-.42.91-.59 1.34q-.105.435-.21.93a16.189 16.189 0 0 1 1.66-.12 4.927 4.927 0 0 0 .22-1.88 1.459 1.459 0 0 0 -.42-1.06c-.04-.02-.07-.04-.09-.05zm-24.58-3.45h.02c-.04.01-.04.01-.02 0zm-51.95 9.48c-.02-.01.02-.01.05-.02a1.739 1.739 0 0 1 -.32.01c.03.01.04.01.01.01h.06a.212.212 0 0 0 .07.03h.01a.652.652 0 0 1 .12-.03zm-6.17 21.83c-.02 0-.05-.01-.08-.01-.01.01 0 .01-.02.01zm-.08-.01c.05-.01.09-.02.07-.02a.145.145 0 0 1 -.07.02zm-.02.01c.01 0 .02 0 .02-.01h-.03c-.03.01-.03 0-.06.01zm105.05-6.15a.028.028 0 0 0 -.03.01.1.1 0 0 1 .03-.01zm-33.94-21.71-.01.01a1.468 1.468 0 0 1 -.15.09c-.02.02-.04.03-.05.04s-.01.01-.02.01a6.2 6.2 0 0 0 -.5.44 2.356 2.356 0 0 0 -.38.5c-.17.3-.32.61-.45.9a9.533 9.533 0 0 0 -.65 2.25 4.456 4.456 0 0 0 .08 2.08c.03.07.06.14.1.22.1-.12.35-.44.73-.96a13.889 13.889 0 0 0 1.63-2.68c.18-.75.32-1.35.41-1.81-.36.03-.53 0-.52-.09a1.247 1.247 0 0 0 -.22-1zm-6.71-.05c-.11.1-.2.2-.28.28a5.85 5.85 0 0 0 -.57.78 10.83 10.83 0 0 0 -.62 1.14c-.11.47-.51 2.22-1.22 5.25a.188.188 0 0 1 .08-.02 1.7 1.7 0 0 1 1.11-.16 10.246 10.246 0 0 0 1.24-2.68 16.914 16.914 0 0 0 .67-2.78 3.449 3.449 0 0 0 .04-.88 1.242 1.242 0 0 0 -.28-.81 1.36 1.36 0 0 0 -.17-.12zm18.6 15.44a3.087 3.087 0 0 0 -.14-1.62 2.937 2.937 0 0 0 -.94-1.3 4.062 4.062 0 0 0 -.64-.41 50.626 50.626 0 0 1 -.89 6.18 1.877 1.877 0 0 1 .59.12c.05-.04.1-.08.16-.12a5.234 5.234 0 0 0 .54-.5 4.517 4.517 0 0 0 1.32-2.35zm9.37-.89a.087.087 0 1 0 -.02.03 1.445 1.445 0 0 1 -.39.24c-.01.07-.02.1-.02.08-.19.93-.42 1.91-.69 2.93a18.137 18.137 0 0 0 -.58 2.97s-.07.17-.18.49a.375.375 0 0 0 .06.46v.01a1.07 1.07 0 0 0 .16-.14 6.4 6.4 0 0 0 .52-.53c.01-.01.07-.08.17-.2q.165-.21.3-.39a10.647 10.647 0 0 0 .59-.92 7.56 7.56 0 0 0 .91-2.21 3.15 3.15 0 0 0 -.24-2.21 1.509 1.509 0 0 0 -.59-.61zm12.69 7.21c.03-.01.04-.02.03-.02s-.02.01-.03.02zm38.93-54.3a4.663 4.663 0 0 0 .36-1.75 1.416 1.416 0 0 0 -.32-1.03.922.922 0 0 0 -.08-.05c-.03.02-.04.03-.02.02a1.018 1.018 0 0 0 -.18.18 5.119 5.119 0 0 0 -.4.55c-.24.42-.46.82-.65 1.21-.09.27-.18.56-.27.86a11.709 11.709 0 0 1 1.56.01zm-87.45 40.79a.01.01 0 0 1 .01-.01h-.02a.028.028 0 0 1 -.03.01zm50.14 2.01c-.01 0 .01-.01.03-.01-.06.01-.11.02-.16.03h.03c.01 0 .03.01.04.01zm12.86-15.5c-.45 1.02-.75 1.69-.89 2.01q-.57 1.32-1.08 2.82c.75.05 1.17.06 1.26.06.16-.02.31-.03.46-.04.15-2.69.24-4.31.25-4.85zm-61.35 1.86c-.01 0 .01-.01.02-.02a.453.453 0 0 1 -.16.03h.03a.09.09 0 0 0 .05.01c-.01 0 .01-.01.06-.02zm48.53 13.62-.01.01c.01 0 .02-.01.03-.01-.04.01-.05.01-.02 0zm-50.13-2h-.04c-.01 0 0 0-.01.01a.062.062 0 0 1 .05-.01zm-.04 0c.03-.01.04-.02.03-.01s-.02.01-.03.01zm48.55 13.51a.048.048 0 0 1 -.04.01h-.01a.109.109 0 0 0 .05-.01zm28.59-67.48c.07.05.14.1.21.14a.3.3 0 0 1 .03-.04.87.87 0 0 1 .41-.25c.13-.45.35-1.3.67-2.54.28-1.07.51-1.92.68-2.54-.19-.02-.29-.07-.29-.15a2.177 2.177 0 0 0 -.4-1.46.4.4 0 0 0 -.04-.03 1.122 1.122 0 0 0 -.16.13 5.886 5.886 0 0 0 -1.46 2.52 6.142 6.142 0 0 0 -.37 2.91 2.036 2.036 0 0 0 .72 1.31zm-16.99-1.42h.14a.32.32 0 0 1 .07-.01.913.913 0 0 0 .2-.03 1.572 1.572 0 0 0 .23-.04c.01 0 .04-.01.1-.02a.386.386 0 0 1 .11-.02c.09-.03.13-.05.14-.05a.326.326 0 0 1 .1-.03c.09-.04.18-.07.25-.1a.348.348 0 0 0 .13-.06.826.826 0 0 0 .13-.07 1 1 0 0 0 .18-.11 2.259 2.259 0 0 0 .45-.35 1.8 1.8 0 0 0 .48-1.05.75.75 0 0 0 -.21-.7.585.585 0 0 0 -.27-.14.2.2 0 0 1 -.06-.02h-.12a.17.17 0 0 0 -.1 0h-.1s-.04.01-.1.02a.563.563 0 0 0 -.1.02l-.01-.01c0 .01 0 .01-.01.01-.1.03-.19.05-.25.07h-.01l-.02.02q-.18.06-.33.12a2.373 2.373 0 0 1 -.72.17c-.4 1.38-.64 2.17-.71 2.37.14.01.2.01.18.01a1.748 1.748 0 0 0 .23 0zm-6.7 5.85c-.01 0 .01 0 .02-.01a.777.777 0 0 1 -.16.02h.04a.227.227 0 0 0 .04.01c-.01 0 .01-.01.06-.02zm-2.41 10.8c.02-.01.04-.02.03-.02s-.02.01-.03.02zm.03 0a.032.032 0 0 0 -.03 0zm19.08-16.45c.1-.11.36-.39.76-.85a12.4 12.4 0 0 0 1.72-2.39c.23-.69.41-1.25.53-1.67-.34 0-.5-.04-.49-.13a1.158 1.158 0 0 0 -.13-.95v.01a.935.935 0 0 0 -.15.08.107.107 0 0 0 -.05.03c-.01 0-.01.01-.02.01a4.83 4.83 0 0 0 -.51.38 1.838 1.838 0 0 0 -.39.44 8.666 8.666 0 0 0 -1.27 2.87 4.173 4.173 0 0 0 -.08 1.96c.03.07.05.14.08.21zm-7.91-4.94a4.713 4.713 0 0 0 1.07-2.66 2.416 2.416 0 0 0 -.56-1.69c-.2.78-.68 2.15-1.42 4.13-.27.71-.48 1.3-.63 1.76a7.254 7.254 0 0 0 1.54-1.54zm-8.76 10.58h.02c-.04.01-.04.01-.02 0zm64.29 46.78a2.026 2.026 0 0 0 -.54-1.48 1.225 1.225 0 0 0 -.12-.08q-.075.06-.03.03a3.2 3.2 0 0 0 -.26.28 7.363 7.363 0 0 0 -.54.83c-.34.63-.63 1.24-.88 1.83-.12.4-.24.82-.35 1.27a21.759 21.759 0 0 1 2.31-.08 7.179 7.179 0 0 0 .41-2.6zm17.55 1.05a3.159 3.159 0 0 0 -.69-2.13.209.209 0 0 0 -.06-.04 2.2 2.2 0 0 0 -.23.2 8.828 8.828 0 0 0 -1.99 3.81 9.143 9.143 0 0 0 -.35 4.3 2.952 2.952 0 0 0 1.15 1.88 1.982 1.982 0 0 0 .31.19.457.457 0 0 0 .04-.06 1.435 1.435 0 0 1 .6-.4c.15-.67.42-1.92.82-3.77.34-1.59.62-2.86.83-3.79-.28-.02-.42-.08-.43-.19zm34.96 4.08a49.36 49.36 0 0 1 -16.53-14.05 243.443 243.443 0 0 0 -9.73-22.44c5.89-.05 12.92-1.46 21.19-4.2a70.188 70.188 0 0 1 -12.1-6.34 65.83 65.83 0 0 0 6.51-2.71c-12.86-3.22-20.34-11.64-36.48-13.01-7.15-5.71-16.17-10.83-28.03-15.73l.13 1a.664.664 0 0 1 -.58.74h-.08a.649.649 0 0 1 -.65-.57l-.16-1.3a.638.638 0 0 1 .07-.39c-1.52-.62-3.07-1.23-4.68-1.84-23.17-7.85-49.03-9.23-73.02-10.42-22.77-1.14-48.62-1.24-71.28 1.3-.58.07-1.16.15-1.74.22a.654.654 0 0 1 .65.51l.27 1.29a.658.658 0 0 1 -.51.78c-.04 0-.09.01-.13.01a.663.663 0 0 1 -.65-.52l-.27-1.28a.648.648 0 0 1 .48-.77c-22.55 2.9-44.73 10.17-59.59 28.34a20.852 20.852 0 0 0 -1.81-2.59 12.058 12.058 0 0 0 -.12-4.44 13.638 13.638 0 0 0 -1.81-4.4 9.445 9.445 0 0 0 -6.26-4.46c-2.43-.27-1.44 1.04-.24 1.55 3.02 1.38 5.58 5.53 5.37 8.25-2.46-2.24-5.83-3.77-9.24-3.2a7.866 7.866 0 0 0 -6.51 9.04c1.35 8.69 12.61 9.62 16.96 2.29.25.36.62.97.96 1.55a50.092 50.092 0 0 0 -8.6 31.11 62.615 62.615 0 0 0 4.48 20.34c1.52 3.81 3.85 7.08 5.21 10.63 1.98 5.14.56 8.35-.91 12.62a32.726 32.726 0 0 0 -2.01 9.87c.03 3.43.97 7.57 1.36 11.12.67 5.98.98 13.37.42 17.47-.32 4.64-.47 8.13 1.88 11.28.26.35.72.59.96.17a4.77 4.77 0 0 0 .23-1.3 6.2 6.2 0 0 1 1.06-2.86 19.763 19.763 0 0 0 4.51 7.16 6.528 6.528 0 0 0 2.94 3.24c2.11.86 5.09.98 8.06.85a9.764 9.764 0 0 0 3.2-.46c1.27-.53 1.44-1.58.35-3.52a20.078 20.078 0 0 0 -4.63-5.23 34.975 34.975 0 0 1 -4.6-10.19c-.52-12.18 2.89-20.12 8.59-26.65-.14.17-.28.33-.43.5a1.741 1.741 0 0 1 -.12-.14.661.661 0 0 1 .19-.91l1.1-.72a.672.672 0 0 1 .92.18.659.659 0 0 1 -.19.91l-1.11.73a.455.455 0 0 1 -.19.08l-.17-.63c.19.72.4 1.52.63 2.42a166.148 166.148 0 0 1 3.66 20.3c.26 4.65.57 8.15 3.42 11.3.31.35.82.6 1.01.18a4.3 4.3 0 0 0 .08-1.31 5.334 5.334 0 0 1 .73-2.86 23.68 23.68 0 0 0 5.61 7.17c.52.92 1.9 2.87 3.48 3.47 2.3.88 5.42.99 8.49.86 4.79-.11 4.28-2.45 2.15-5.09a31.4 31.4 0 0 0 -4.78-4.37 40.308 40.308 0 0 1 -6.1-10.22c-2.32-13.33.97-21.6 7.11-28.48l-.48.54-.98-.29a.66.66 0 1 1 .39-1.26l1.26.38a.661.661 0 0 1 .45.77c33.94 8.13 77.48 10.07 110.38 1.27a.55.55 0 0 1 -.02-.22l.13-1.31a.651.651 0 0 1 .72-.59.66.66 0 0 1 .59.72l-.13 1.31-.01.05c1.2.24 2.46.45 3.77.63l.01-.06a.659.659 0 0 1 .8-.48c.42.11.85.21 1.27.31a.652.652 0 0 1 -.14 1.29.757.757 0 0 1 -.15-.01c-.33-.08-.66-.16-1-.24l-.14-.71c1.87 9.48 3.57 19.35 3.08 27.78-.52 4.65-1.26 8.14.96 11.25.24.34.69.58.95.16a5.339 5.339 0 0 0 .29-1.31 6.5 6.5 0 0 1 1.17-2.88 18.389 18.389 0 0 0 4.22 7.08 5.978 5.978 0 0 0 2.81 3.19c2.15.86 9.35 1.23 11.69.23a1.553 1.553 0 0 0 1-1.04 14.922 14.922 0 0 0 2 2.14 6.862 6.862 0 0 0 3.11 3.18c2.24.87 9.48 1.24 11.72.24 3.42-1.53-3.61-7.55-5.21-8.72a36.483 36.483 0 0 1 -5.16-10.11c-.81-8.23 1.21-20.62 3.01-31.28 2.95-.03 9.78-.57 12.66-.99a.669.669 0 0 1 0-.2l.19-1.3a.662.662 0 0 1 1.31.19l-.19 1.3-.01.05c17.47 3.93 25.95 2.91 48.96-3.17 7.26 1.58 9.4.03 16.12-.88 3.74-.52 7.3.05 10.21-2.61 2.77-2.54 4.46-6.67 5.19-10.19.89-4.35-1.83-7.78-5.18-5.44zm-301.52-59.18c-2.84-1.84-2.48-6.66 1.18-7.26a7.854 7.854 0 0 1 7.54 3.92c-1.98 3.91-6.21 4.98-8.72 3.34zm90.88 23.92q3.39-18.12 7.79-35.62a2.031 2.031 0 0 1 1.18-.88 9.162 9.162 0 0 1 2.17-.67c1.71-.31 2.47-.13 2.29.5q-4.38 17.535-7.74 35.47a14.852 14.852 0 0 0 5.83.67.832.832 0 0 1 .94.4.928.928 0 0 1 -.62.83 8.077 8.077 0 0 1 -4.05 1.06 22.279 22.279 0 0 1 -5.5-.34c-1.68.28-2.5.21-2.44-.21a1.487 1.487 0 0 0 .04-.33 3.075 3.075 0 0 0 .03-.32c-.17-.14-.14-.33.08-.56zm14.04 18.19-1.32.01a.658.658 0 0 1 -.67-.64.668.668 0 0 1 .66-.67l1.32-.01h.01a.655.655 0 1 1 0 1.31zm1.19 6.78 1.2.56a.657.657 0 0 1 -.28 1.25.717.717 0 0 1 -.29-.06l-1.19-.56a.643.643 0 0 1 -.31-.87.655.655 0 0 1 .87-.32zm-3.28-.76a.64.64 0 0 1 -.6.39.857.857 0 0 1 -.27-.05l-1.2-.52a.653.653 0 0 1 -.35-.86.67.67 0 0 1 .87-.35l1.21.52a.655.655 0 0 1 .34.87zm-5.18-6.57a.673.673 0 0 1 .65-.67l1.32-.02h.01a.655.655 0 0 1 .66.64.645.645 0 0 1 -.64.67l-1.32.03h-.02a.671.671 0 0 1 -.66-.65zm.32 4.53a.647.647 0 0 1 -.61.41.727.727 0 0 1 -.25-.04l-1.22-.48a.645.645 0 0 1 -.37-.85.658.658 0 0 1 .85-.38l1.23.49a.645.645 0 0 1 .37.85zm-2.96-4.47a.657.657 0 0 1 -.64.67l-1.32.03h-.02a.655.655 0 1 1 -.01-1.31l1.32-.04a.687.687 0 0 1 .67.65zm-3.61 1.3 1.25.45a.658.658 0 0 1 .4.84.669.669 0 0 1 -.62.43.62.62 0 0 1 -.23-.04l-1.24-.44a.661.661 0 0 1 -.4-.84.67.67 0 0 1 .84-.4zm-.07 15.38a5.723 5.723 0 0 1 -1.41.12 1.306 1.306 0 0 1 -.89-.22 7.9 7.9 0 0 0 -1.07-1.14c-.19-.17-.08-.35.35-.55a3.838 3.838 0 0 1 .85-.27 5.684 5.684 0 0 1 1.41-.12 1.6 1.6 0 0 1 .88.22 7.453 7.453 0 0 1 1.07 1.14c.26.33-.13.61-1.19.82zm-4.94-17.06.83.27a.58.58 0 0 1 .51-.35l1.32-.04a.638.638 0 0 1 .68.63.66.66 0 0 1 -.64.68l-1.02.03c-.01 0 0 .01 0 .01a.673.673 0 0 1 -.63.46.779.779 0 0 1 -.21-.04l-1.25-.4a.646.646 0 0 1 -.42-.83.653.653 0 0 1 .83-.42zm-3.94.1 1.32-.05a.655.655 0 0 1 .05 1.31l-1.32.05h-.03a.667.667 0 0 1 -.66-.63.66.66 0 0 1 .64-.68zm-4.57-24.98a.654.654 0 0 1 .59.72l-.14 1.31a.643.643 0 0 1 -.65.58h-.08a.652.652 0 0 1 -.58-.72l.14-1.3a.649.649 0 0 1 .72-.59zm-.4-3.31.08-1.31a.661.661 0 0 1 1.32.07l-.08 1.32a.664.664 0 0 1 -.66.61h-.05a.643.643 0 0 1 -.61-.69zm-.21 8.52a.655.655 0 0 1 .55.75c-.06.44-.13.87-.2 1.31a.656.656 0 0 1 -.65.55.448.448 0 0 1 -.11-.01.648.648 0 0 1 -.54-.75c.07-.43.13-.86.2-1.29a.666.666 0 0 1 .75-.56zm-.87 5.18a.665.665 0 0 1 .52.77c-.09.44-.18.87-.27 1.3a.663.663 0 0 1 -.65.52.784.784 0 0 1 -.14-.02.649.649 0 0 1 -.5-.78c.09-.42.17-.85.26-1.27a.662.662 0 0 1 .78-.52zm.77 14.8 1.32-.06a.686.686 0 0 1 .69.63.668.668 0 0 1 -.64.69l-1.31.05h-.03a.655.655 0 0 1 -.03-1.31zm1.85-33.69a.655.655 0 0 1 -.66.64h-.01a.666.666 0 0 1 -.65-.67l.02-1.31a.666.666 0 0 1 .67-.65.668.668 0 0 1 .66.67zm.01-5.28a.659.659 0 0 1 -.65.67h-.01a.664.664 0 0 1 -.66-.65l-.03-1.3a.666.666 0 0 1 .64-.68.629.629 0 0 1 .68.64zm-.27-6.58.08 1.31a.66.66 0 0 1 -.63.69h-.03a.658.658 0 0 1 -.66-.62l-.08-1.3a.666.666 0 0 1 .62-.7.66.66 0 0 1 .7.62zm-.43-5.25.12 1.3a.661.661 0 0 1 -.6.72h-.05a.663.663 0 0 1 -.66-.6l-.13-1.3a.675.675 0 0 1 .6-.72.668.668 0 0 1 .72.6zm-.6-5.24.16 1.3a.657.657 0 0 1 -.57.74h-.08a.66.66 0 0 1 -.66-.58l-.16-1.29a.655.655 0 0 1 .57-.74.662.662 0 0 1 .74.57zm-.76-5.21.2 1.3a.663.663 0 0 1 -.55.75h-.1a.674.674 0 0 1 -.66-.55l-.2-1.3a.663.663 0 0 1 1.31-.2zm-1.68-5.71a.652.652 0 0 1 .77.52l.24 1.3a.669.669 0 0 1 -.54.76c-.04 0-.07.01-.11.01a.655.655 0 0 1 -.65-.54l-.24-1.29a.649.649 0 0 1 .53-.76zm-.83 57.76a.656.656 0 1 1 1.27.33c-.11.42-.22.85-.34 1.28a.651.651 0 0 1 -.63.48 1.1 1.1 0 0 1 -.18-.02.658.658 0 0 1 -.46-.81c.12-.42.23-.84.34-1.26zm-1.45 5.01a.661.661 0 0 1 1.26.4c-.13.42-.27.84-.41 1.26a.667.667 0 0 1 -.63.45.522.522 0 0 1 -.21-.04.648.648 0 0 1 -.41-.83c.13-.41.27-.82.4-1.24zm-1.73 4.92a.382.382 0 0 1 .09-.09.553.553 0 0 1 .24-.26c.02-.01.03-.01.05-.02a.614.614 0 0 1 .23-.11l1.32-.06a.671.671 0 0 1 .69.62.66.66 0 0 1 -.63.69l-.89.04-.35.88a.657.657 0 0 1 -.61.42.687.687 0 0 1 -.24-.05.648.648 0 0 1 -.37-.85zm-2.56 5.98c.18-.39.37-.79.55-1.18a.658.658 0 0 1 1.2.54c-.18.4-.37.8-.56 1.2a.648.648 0 0 1 -.6.37.568.568 0 0 1 -.28-.06.643.643 0 0 1 -.31-.87zm-56.05 44.62c-.43-.11-.86-.22-1.29-.34a.658.658 0 0 1 -.46-.81.666.666 0 0 1 .81-.46c.42.12.85.23 1.27.33a.661.661 0 0 1 -.17 1.3 1 1 0 0 1 -.16-.02zm11.15 22.93a24.105 24.105 0 0 1 -3.91-.57c.02.26.06.52.1.77s.08.43.11.57a29.944 29.944 0 0 0 3.25.47.783.783 0 0 1 .44.76 1.868 1.868 0 0 1 .04.51c0 .15-.03.22-.08.22-.98-.08-2.05-.24-3.23-.45a.7.7 0 0 1 -.03.51c-.06.09-.15.06-.26-.12a2.007 2.007 0 0 1 -.17-.32 1.041 1.041 0 0 0 -.05-.18c-.71-.14-1.67-.36-2.89-.64-1.39-.33-2.35-.55-2.88-.67a.518.518 0 0 1 -.22-.31 2.448 2.448 0 0 1 -.18-.56c-.08-.44-.03-.64.13-.6.54.11 1.47.33 2.81.65 1.18.27 2.12.48 2.81.63a11.805 11.805 0 0 1 -.24-1.36c-.59-.14-1.47-.36-2.64-.67s-2.04-.53-2.62-.66a.6.6 0 0 1 -.23-.31 2.376 2.376 0 0 1 -.17-.57c-.08-.44-.04-.64.13-.6.58.13 1.48.37 2.71.69 1.18.32 2.09.55 2.72.69 0-.16 0-.29.01-.41a.229.229 0 0 1 .1-.24.235.235 0 0 1 .21.16 1.731 1.731 0 0 1 .24.61 22.615 22.615 0 0 0 3.59.5.774.774 0 0 1 .44.77 1.839 1.839 0 0 1 .05.5c-.01.15-.04.23-.09.23zm-7.06-11.21a2.59 2.59 0 0 0 1.05.86 6.633 6.633 0 0 0 1.56.5 7.342 7.342 0 0 0 1.61.13 3.9 3.9 0 0 0 1.53-.28 1.1 1.1 0 0 0 .43-.33.467.467 0 0 0 -.09-.1 3.118 3.118 0 0 0 -.56-.41 1.307 1.307 0 0 1 -.41-.88 1.451 1.451 0 0 1 -.02-.37c.01-.21.06-.28.16-.23a3.113 3.113 0 0 1 1.44 1.72c.33 1.03.19 1.71-.45 2.04a5.111 5.111 0 0 1 -3.11.23 4.765 4.765 0 0 1 -2.86-1.32 3.659 3.659 0 0 1 -.88-1.87 1.711 1.711 0 0 1 .33-1.51 1.648 1.648 0 0 1 1.25-.47 1.906 1.906 0 0 1 1.24.51 1.468 1.468 0 0 1 .36 1 .964.964 0 0 1 -.02.31c-.04.12-.11.13-.22.04a1.62 1.62 0 0 0 -2.12.05 1.055 1.055 0 0 0 -.2.28.944.944 0 0 1 -.03.09.01.01 0 0 0 .01.01zm6.93 7.36a.949.949 0 0 1 -1.04.74 7.011 7.011 0 0 1 -2.12-.18 11.865 11.865 0 0 1 -2.2-.65 3.167 3.167 0 0 1 -1.37-.91 1.507 1.507 0 0 1 -.21-.51 1.093 1.093 0 0 1 -.23-.43 1.306 1.306 0 0 1 -.09-.96 2.2 2.2 0 0 1 1.97-1.05 6.261 6.261 0 0 1 2.32.37 5.145 5.145 0 0 1 2.1 1.18 3.007 3.007 0 0 1 .7 1.11 2.571 2.571 0 0 1 .17 1.29zm2.22-13.04a15.383 15.383 0 0 1 -2.42 1 20.551 20.551 0 0 0 -2.44.96 8.933 8.933 0 0 0 1.95.4.785.785 0 0 1 .44.76 1.909 1.909 0 0 1 .05.51c-.01.15-.04.23-.09.23-.22-.02-1.06-.2-2.49-.55-.71-.18-1.49-.36-2.34-.53-.03.1-.08.13-.15.08a1.36 1.36 0 0 1 -.17-.12c.02.01 0 0-.05-.03-.25-.06-.69-.14-1.31-.26-.57-.1-1.01-.18-1.32-.25-.29-.06-.66-.15-1.13-.26-.56-.14-.93-.24-1.13-.29a.519.519 0 0 1 -.22-.3 2.532 2.532 0 0 1 -.18-.57c-.08-.44-.03-.64.14-.6s.55.14 1.12.28c.47.12.84.21 1.13.27.24.04.81.15 1.71.32l-.21-.51a4.666 4.666 0 0 1 -.3-1.58.929.929 0 0 1 .36-.82 1.23 1.23 0 0 1 1.01.04 3.188 3.188 0 0 1 1.12.82 4.668 4.668 0 0 1 .98 1.44c.05.11.09.22.13.32a14.136 14.136 0 0 1 2.69-1.15 20.82 20.82 0 0 0 2.72-1.1c.05-.03.12.02.2.15a2.151 2.151 0 0 1 .22.48c.16.48.16.77-.02.86zm-9.86-5.95a.652.652 0 0 1 .77-.53c.43.08.86.16 1.29.23a.654.654 0 0 1 -.11 1.3.448.448 0 0 1 -.11-.01c-.43-.07-.87-.15-1.31-.23a.656.656 0 0 1 -.53-.76zm5.22.8a.668.668 0 0 1 .72-.59c.44.05.87.09 1.3.12a.655.655 0 0 1 .61.71.663.663 0 0 1 -.66.6h-.05c-.44-.04-.89-.07-1.33-.12a.66.66 0 0 1 -.59-.72zm1.05-51.59a21.7 21.7 0 0 1 -5.17-.33c-1.57.27-2.34.2-2.29-.2a1.862 1.862 0 0 0 .05-.3c.01-.15.02-.25.02-.3-.16-.13-.13-.31.08-.52q3.18-17.025 7.31-33.44a1.893 1.893 0 0 1 1.11-.83 8.53 8.53 0 0 1 2.04-.63c1.6-.29 2.31-.12 2.14.48q-4.11 16.44-7.26 33.29a13.844 13.844 0 0 0 5.47.62.807.807 0 0 1 .89.38.89.89 0 0 1 -.59.78 7.591 7.591 0 0 1 -3.8 1zm6.2 52.61h-1.33a.653.653 0 0 1 -.65-.67.639.639 0 0 1 .67-.64h1.3a.63.63 0 0 1 .67.65.659.659 0 0 1 -.66.66zm11.71-10.95-1.07.77a.689.689 0 0 1 -.39.12.649.649 0 0 1 -.53-.27.638.638 0 0 1 .15-.91l1.06-.77a.656.656 0 0 1 .92.14.649.649 0 0 1 -.14.92zm-.77-47.85a11.269 11.269 0 0 1 -3.55 2.01 9.064 9.064 0 0 1 -4.79.59q-2.625-.645-2.62-4.8a37.752 37.752 0 0 1 .45-5.84 25.9 25.9 0 0 1 2.57-8.62 12.244 12.244 0 0 1 2.44-3.7 9.935 9.935 0 0 1 5.34-2.56c2.4-.43 4.06-.2 4.96.7a5.069 5.069 0 0 1 1.39 3.46 18.12 18.12 0 0 1 -1.2 7.21 2.894 2.894 0 0 1 -1.72 1.08 7.179 7.179 0 0 1 -2.08.45c-.37.01-1.41.01-3.11 0a30.8 30.8 0 0 0 -3.09.12 32.924 32.924 0 0 0 -.56 4.49 14.815 14.815 0 0 0 .2 4 3.17 3.17 0 0 0 .79 1.59 7.635 7.635 0 0 0 .9-.91 8.853 8.853 0 0 0 1.92-4 1.862 1.862 0 0 1 1.11-.83 8.048 8.048 0 0 1 2.03-.63c1.53-.27 2.25-.1 2.14.5a9.293 9.293 0 0 1 -3.52 5.69zm4.98 44.62-1.04.82a.649.649 0 0 1 -.41.15.668.668 0 0 1 -.52-.25.652.652 0 0 1 .11-.92l1.02-.82a.664.664 0 0 1 .93.1.652.652 0 0 1 -.09.92zm5.46-2.93a.687.687 0 0 1 -.24-.05l-1.18-.46v.01l-1 .87a.65.65 0 0 1 -.43.17.7.7 0 0 1 -.5-.22.662.662 0 0 1 .06-.93l.98-.87a.662.662 0 0 1 .65-.09.61.61 0 0 1 .67-.18l1.23.48a.656.656 0 0 1 -.24 1.27zm2.43-4.14-.94.93a.7.7 0 0 1 -.46.19.673.673 0 0 1 -.48-.2.661.661 0 0 1 .01-.93l.94-.92a.658.658 0 0 1 .93.93zm2.53 5.93a.761.761 0 0 1 -.21-.03l-1.25-.44a.648.648 0 0 1 -.41-.83.659.659 0 0 1 .84-.41l1.25.43a.657.657 0 0 1 -.22 1.28zm1.12-9.77-.89.98a.666.666 0 0 1 -.49.21.66.66 0 0 1 -.49-1.1l.88-.97a.674.674 0 0 1 .94-.05.662.662 0 0 1 .05.93zm3.42-4.05-.83 1.03a.661.661 0 0 1 -1.03-.83l.83-1.02a.652.652 0 0 1 .92-.1.644.644 0 0 1 .11.92zm.78-21.7a13.354 13.354 0 0 1 -3.01 4.47 10.881 10.881 0 0 1 -7.33 3 7.388 7.388 0 0 1 -3.1-.65 3.711 3.711 0 0 1 -2.11-2.23q-.48-1.485.7-5.74c.18-.63 1.22-1.16 3.07-1.6 1.64-.38 2.36-.26 2.17.38-.76 2.72-.98 4.47-.68 5.26a3.418 3.418 0 0 0 1.89 1.88 7.189 7.189 0 0 0 .71.27c.15-.17.26-.28.32-.35a9.882 9.882 0 0 0 1.29-1.83 20.354 20.354 0 0 0 1.86-4.71q.66-2.37 1.24-5.26a12.625 12.625 0 0 1 -5.09 1.91 5.3 5.3 0 0 1 -4.71-1.51 6.948 6.948 0 0 1 -1.64-5.38 20.7 20.7 0 0 1 6.05-13.96 14.035 14.035 0 0 1 7.35-4.66 6.258 6.258 0 0 1 3.35-.12 8.946 8.946 0 0 1 2.2-.72 6.513 6.513 0 0 1 1.18-.18c.69-.05 1.03.05 1.01.3a.451.451 0 0 1 -.03.13v.12a41.1 41.1 0 0 1 -1.94 7.72q-.3 2.07-1.33 7.61c-.48 3.74-.92 6.61-1.36 8.61a45.076 45.076 0 0 1 -2.06 7.24zm2.4 17.45c-.26.36-.51.72-.77 1.08a.664.664 0 0 1 -.54.28.6.6 0 0 1 -.38-.13.638.638 0 0 1 -.15-.91l.76-1.07a.657.657 0 0 1 1.08.75zm2.91-4.43c-.23.37-.46.75-.7 1.12a.666.666 0 0 1 -.56.31.643.643 0 0 1 -.35-.1.664.664 0 0 1 -.21-.91c.24-.37.47-.74.7-1.11a.658.658 0 1 1 1.12.69zm2.64-4.6c-.21.39-.42.78-.63 1.16a.671.671 0 0 1 -.58.34.609.609 0 0 1 -.32-.08.647.647 0 0 1 -.26-.89c.21-.38.42-.76.62-1.15a.662.662 0 0 1 1.17.62zm13.6 20.55a5.4 5.4 0 0 1 -1.46 2.24 9.077 9.077 0 0 1 -4.2 2.19 8.31 8.31 0 0 1 -5.31-.13 3.917 3.917 0 0 1 -2.43-2.77 3.245 3.245 0 0 1 .07-1.87 2.731 2.731 0 0 1 1.33-1.32 4.123 4.123 0 0 1 2.6-.33.614.614 0 0 1 .59.33.677.677 0 0 1 -.5.45 1.5 1.5 0 0 0 -.52 1.54 3.693 3.693 0 0 0 .51 1.8 3.144 3.144 0 0 0 1.45 1.22 2.562 2.562 0 0 0 .46.17.771.771 0 0 0 .25.03.41.41 0 0 0 .11.01.838.838 0 0 1 .1-.02c.08-.03.15-.05.23-.08a1.786 1.786 0 0 1 .25-.11 6.123 6.123 0 0 0 .73-.42 5.141 5.141 0 0 0 1.31-1.28 3.9 3.9 0 0 0 .95-2.47 2.43 2.43 0 0 0 -1.06-1.67 13.554 13.554 0 0 0 -1.76-1.01c-2.12-1.09-3.35-2.07-3.71-2.95q-1.125-2.79.95-6.82a10.787 10.787 0 0 1 5.34-5.37 10.292 10.292 0 0 1 4.63-.78 2.923 2.923 0 0 1 2.41 1.05c.68 1.05.67 2.65-.03 4.82a13.494 13.494 0 0 1 -2.25 4.5 4.423 4.423 0 0 1 -3.1.58c-.49-.08-.65-.22-.47-.44a12.908 12.908 0 0 0 2.45-5.22 6.779 6.779 0 0 0 .21-2.5 2.507 2.507 0 0 0 -.31-1.02c-.06-.08-.14-.18-.23-.28-.15-.12-.22-.19-.24-.2a2.16 2.16 0 0 0 -.25-.1 2.232 2.232 0 0 0 -.37.17 7.944 7.944 0 0 0 -2.58 2.15 10.87 10.87 0 0 0 -2.82 6.94 4.233 4.233 0 0 0 .63 2.57 6.528 6.528 0 0 0 1.81 1.4c.2.12.53.29.98.51.49.23.84.41 1.07.53a5.317 5.317 0 0 1 1.84 1.43 2.659 2.659 0 0 1 .34 2.53zm5.08.01a9.71 9.71 0 0 0 -1.12 3.2c.02.42-.58.69-1.8.82s-1.83.01-1.86-.37a10.671 10.671 0 0 1 1.22-3.5c.61-1.35 1.16-2.57 1.62-3.67 1.11-2.64 2.06-5.13 2.84-7.49a1.252 1.252 0 0 1 .78-.43 5.626 5.626 0 0 1 1.41-.22c1.04-.05 1.49.12 1.37.51-.8 2.4-1.75 4.9-2.83 7.49-.54 1.23-1.08 2.45-1.63 3.66zm11.96 5.76a5.615 5.615 0 0 1 -1.4.23c-.28 0-.52 0-.7-.02a5.406 5.406 0 0 1 -4.74-.47 4.273 4.273 0 0 1 -1.83-3.2 13.409 13.409 0 0 1 1.5-7.05q2.01-4.365 4.96-5.54a8.542 8.542 0 0 1 3.44-.61 3.473 3.473 0 0 1 1.44.33c.89-2.4 1.8-4.58 2.72-6.56a1.358 1.358 0 0 1 .79-.45 5.626 5.626 0 0 1 1.41-.22c1.09-.04 1.54.13 1.36.52q-1.755 3.81-8.15 22.6a1.36 1.36 0 0 1 -.8.44zm15.33-6.6a1.968 1.968 0 0 1 -1.23.55 4.533 4.533 0 0 1 -1.41.1c-.24-.02-.93-.11-2.04-.28a18.057 18.057 0 0 0 -2.04-.19 22.171 22.171 0 0 0 -.78 2.89 9.792 9.792 0 0 0 -.23 2.65 2.051 2.051 0 0 0 .37 1.11 4.328 4.328 0 0 0 .67-.51 5.987 5.987 0 0 0 1.63-2.46 1.287 1.287 0 0 1 .8-.44 5.465 5.465 0 0 1 1.4-.23c1.03-.04 1.48.14 1.36.52a6.137 6.137 0 0 1 -2.84 3.42 7.3 7.3 0 0 1 -2.51.99 5.957 5.957 0 0 1 -3.2-.04c-1.11-.44-1.54-1.57-1.28-3.39a24.806 24.806 0 0 1 .83-3.79 16.993 16.993 0 0 1 2.48-5.43 8.3 8.3 0 0 1 1.94-2.21 6.53 6.53 0 0 1 3.74-1.19c1.62-.07 2.69.23 3.2.91a3.368 3.368 0 0 1 .59 2.39 12.152 12.152 0 0 1 -1.45 4.63zm-3.9-30.02-1.32.01a.66.66 0 0 1 -.01-1.32h1.33a.655.655 0 1 1 0 1.31zm.67 9.13 1.18.61a.64.64 0 0 1 .28.88.674.674 0 0 1 -.89.28l-1.17-.6a.657.657 0 0 1 .6-1.17zm2.63-9.79a.659.659 0 0 1 .66-.66h1.32a.655.655 0 1 1 0 1.31h-1.32a.657.657 0 0 1 -.66-.65zm3.47 13.79a.671.671 0 0 1 -.58.33.609.609 0 0 1 -.32-.08l-1.15-.63a.652.652 0 0 1 -.26-.89.661.661 0 0 1 .89-.27l1.17.64a.666.666 0 0 1 .25.9zm1.81-13.78a.641.641 0 0 1 .67-.65l1.32.01a.655.655 0 1 1 -.01 1.31l-1.32-.01a.659.659 0 0 1 -.66-.66zm2.75 16.41a.645.645 0 0 1 -.57.32.656.656 0 0 1 -.33-.09l-1.14-.66a.661.661 0 0 1 .67-1.14l1.14.67a.656.656 0 0 1 .23.9zm-.23-47.01a19.9 19.9 0 0 1 -4.53 7.95 11.741 11.741 0 0 1 -4.25 2.67 10.545 10.545 0 0 1 -4.96.66c-1.66-.21-2.61-1.53-2.84-3.94a27.148 27.148 0 0 1 .7-8.06 44.59 44.59 0 0 1 2.49-8.33q1.62-3.9 3.49-5.2a5.843 5.843 0 0 1 1.93-.8 4.766 4.766 0 0 1 1.67-.88c1.75-.61 2.97-.71 3.67-.32 2.49 1.34 3.83 3.84 4.03 7.47a23.474 23.474 0 0 1 -1.4 8.78zm45.68 31.66 1.32.09a.655.655 0 0 1 -.04 1.31h-.04l-1.32-.09a.661.661 0 0 1 -.62-.7.652.652 0 0 1 .7-.61zm-5.27-.32 1.32.07a.661.661 0 0 1 -.04 1.32.06.06 0 0 1 -.04-.01l-1.32-.07a.661.661 0 0 1 -.62-.7.63.63 0 0 1 .7-.61zm1.38 18.63a2.666 2.666 0 0 1 -.72.16.648.648 0 0 1 -.47-.05 3.746 3.746 0 0 0 -.63-.5c-.11-.08-.07-.18.14-.32a2.319 2.319 0 0 1 .42-.19 3.18 3.18 0 0 1 .71-.17.84.84 0 0 1 .47.06 3.746 3.746 0 0 1 .63.5c.16.16-.03.33-.55.51zm-3.71-12.67a1.752 1.752 0 0 1 .47 1.19 6.219 6.219 0 0 1 -.41 2.47.983.983 0 0 1 -.59.37 2.56 2.56 0 0 1 -.72.16h-1.06a9.925 9.925 0 0 0 -1.06.04 12.591 12.591 0 0 0 -.2 1.54 5.061 5.061 0 0 0 .08 1.37.907.907 0 0 0 .27.54 2.135 2.135 0 0 0 .3-.31 2.949 2.949 0 0 0 .66-1.37.618.618 0 0 1 .38-.28 2.871 2.871 0 0 1 .7-.22c.53-.09.77-.03.74.17a3.213 3.213 0 0 1 -1.21 1.95 3.764 3.764 0 0 1 -1.22.69 3.151 3.151 0 0 1 -1.64.21q-.9-.225-.9-1.65a12.421 12.421 0 0 1 .15-2 8.934 8.934 0 0 1 .88-2.96 4.242 4.242 0 0 1 .84-1.27 3.426 3.426 0 0 1 1.83-.88 1.917 1.917 0 0 1 1.71.24zm-1.66-4.87a.227.227 0 0 1 -.04-.01l-1.32-.06a.661.661 0 0 1 .07-1.32l1.32.07a.661.661 0 0 1 -.03 1.32zm-16.38-46.76c.08-.64.96-1.19 2.63-1.63a9.9 9.9 0 0 1 1.66-.27c1.01-.09 1.48.03 1.44.35-.3 1.98-.76 4.31-1.36 7a17.367 17.367 0 0 1 1.39-1.53 15.312 15.312 0 0 1 7.95-3.95c1.38-.26 2.16-.18 2.33.27a15.877 15.877 0 0 1 .81 6.83 66.732 66.732 0 0 1 -.99 7.5q-2.235 12.36-3.44 16.68a2.127 2.127 0 0 1 -1.18.85 8.6 8.6 0 0 1 -2.17.67q-2.58.48-2.31-.51 1.215-4.32 3.38-16.38 1.56-8.655.72-12.3a11.485 11.485 0 0 0 -1.07 1.15 31.928 31.928 0 0 0 -3.83 6.13 139.116 139.116 0 0 0 -5.24 12.89c-.2.57-1.21 1.04-3.03 1.42s-2.69.34-2.66-.14a80.826 80.826 0 0 1 2.26-12.57q2.19-9.075 2.71-12.46zm11.76 45.86a.66.66 0 0 1 -.66.63h-.03l-1.32-.06a.666.666 0 0 1 -.63-.69.639.639 0 0 1 .69-.62l1.32.06a.651.651 0 0 1 .63.68zm-5.28-.23a.66.66 0 0 1 -.66.63h-.02l-1.32-.06a.66.66 0 0 1 -.64-.68.606.606 0 0 1 .69-.63l1.32.05a.66.66 0 0 1 .63.69zm-5.28-.21a.655.655 0 0 1 -.66.64h-.02l-1.32-.05a.657.657 0 0 1 -.64-.67.669.669 0 0 1 .66-.64h.03l1.32.05a.643.643 0 0 1 .63.67zm-5.27-.16a.66.66 0 0 1 -.66.63h-.02l-1.32-.03a.662.662 0 0 1 -.65-.68.669.669 0 0 1 .66-.64c.01 0 .02 0 .02.01l1.32.03a.662.662 0 0 1 .65.68zm-7.49-54.1a6.746 6.746 0 0 1 1.3-.61 10.145 10.145 0 0 1 2.22-.51 2.571 2.571 0 0 1 1.45.17 12.687 12.687 0 0 1 1.96 1.57c.49.48-.08 1-1.71 1.57a9.084 9.084 0 0 1 -2.23.51 2.042 2.042 0 0 1 -1.45-.17 13.838 13.838 0 0 0 -1.96-1.56c-.35-.24-.21-.56.42-.97zm-3.74 72.91a.653.653 0 0 1 -.56.31.643.643 0 0 1 -.35-.1l-1.12-.68a.658.658 0 1 1 .69-1.12l1.12.68a.665.665 0 0 1 .22.91zm0-18.4h-.01l-1.32-.02a.673.673 0 0 1 -.65-.67.745.745 0 0 1 .67-.65l1.28.02a.676.676 0 0 1 .67.67.64.64 0 0 1 -.64.65zm-1.78-21.18c-.16-.78.22-2.72 1.16-5.84.67-2.27 1.27-4.34 1.76-6.19q1.785-6.675 2.85-12.54a1.966 1.966 0 0 1 1.16-.86 8.984 8.984 0 0 1 2.2-.66q2.445-.465 2.28.51c-.74 3.99-1.69 8.18-2.84 12.54q-.87 3.12-1.78 6.18-1.29 4.275-1.07 5.34c.13.67-.77 1.23-2.69 1.71-1.89.49-2.9.42-3.03-.19zm7.73 20.63a.662.662 0 0 1 -.66.64h-.02l-1.32-.02a.66.66 0 0 1 .01-1.32h.02l1.32.03a.673.673 0 0 1 .65.67zm-1.47 21.72a.666.666 0 0 1 -.56.31.643.643 0 0 1 -.35-.1l-1.12-.7a.65.65 0 0 1 -.21-.9.662.662 0 0 1 .91-.21l1.12.7a.65.65 0 0 1 .21.9zm-1.25-5.85a2.053 2.053 0 0 1 -1.45-1.25 1.632 1.632 0 0 1 -.09-.96 1.368 1.368 0 0 1 .58-.77 2.2 2.2 0 0 1 1.31-.36.32.32 0 0 1 .33.13.371.371 0 0 1 -.23.27.772.772 0 0 0 -.15.82 1.837 1.837 0 0 0 .39.89 1.6 1.6 0 0 0 .83.52 1.023 1.023 0 0 0 .25.06h.13c.02 0 .03-.01.05-.01a.433.433 0 0 0 .05-.01 1.091 1.091 0 0 0 .11-.06c.02-.01.06-.04.13-.08a3.349 3.349 0 0 0 .34-.26 2.8 2.8 0 0 0 .58-.75 2.021 2.021 0 0 0 .31-1.33 1.3 1.3 0 0 0 -.67-.79 6.833 6.833 0 0 0 -.97-.39 4.036 4.036 0 0 1 -2.11-1.25 4.2 4.2 0 0 1 0-3.56 5.53 5.53 0 0 1 2.35-3.13 5.375 5.375 0 0 1 2.31-.73 1.547 1.547 0 0 1 1.32.37 2.993 2.993 0 0 1 .33 2.47 7.216 7.216 0 0 1 -.83 2.47 1.6 1.6 0 0 1 -1.09.49 1.7 1.7 0 0 1 -.46.03c-.26-.01-.35-.07-.28-.2a6.558 6.558 0 0 0 .89-2.85 3.452 3.452 0 0 0 -.07-1.29 1.371 1.371 0 0 0 -.24-.5 1.583 1.583 0 0 0 -.13-.13.809.809 0 0 1 -.14-.09.857.857 0 0 1 -.13-.03c-.08.05-.14.08-.19.11a4.218 4.218 0 0 0 -1.16 1.29 5.6 5.6 0 0 0 -.95 3.75 2.25 2.25 0 0 0 .51 1.28 3.586 3.586 0 0 0 1.03.59c.11.05.29.11.53.19.27.08.46.15.59.2a2.714 2.714 0 0 1 1.04.6 1.35 1.35 0 0 1 .36 1.27 2.809 2.809 0 0 1 -.59 1.25 4.656 4.656 0 0 1 -1.99 1.42 4.268 4.268 0 0 1 -2.73.31zm5.73 8.61a.663.663 0 0 1 -.56.32.674.674 0 0 1 -.34-.1l-1.13-.69a.658.658 0 0 1 .69-1.12l1.12.69a.644.644 0 0 1 .22.9zm4.53 2.69a.655.655 0 0 1 -.9.24l-1.14-.67a.645.645 0 0 1 -.23-.9.662.662 0 0 1 .9-.23l1.13.67a.645.645 0 0 1 .24.89zm1.67-18.01a18.352 18.352 0 0 1 -.88 2.99 6.214 6.214 0 0 1 -1.41 2.34 3.15 3.15 0 0 1 -1.82.74 1.7 1.7 0 0 1 -.86-.12c-.29 1.27-.52 2.37-.7 3.31a.693.693 0 0 1 -.39.28 2.952 2.952 0 0 1 -.71.22c-.52.09-.77.04-.73-.16.22-1.13.53-2.56.93-4.28.59-2.5.92-3.91 1-4.25a.122.122 0 0 1 -.1-.18c.11-.23.19-.42.26-.57.22-1.01.4-1.93.56-2.77a.584.584 0 0 1 .37-.27 3.176 3.176 0 0 1 .7-.22c.53-.1.78-.04.75.17a1.038 1.038 0 0 0 -.03.12c-.01.07-.02.11-.02.13a3.7 3.7 0 0 1 1.61-.46 1.408 1.408 0 0 1 1.54.66 4.477 4.477 0 0 1 -.07 2.32zm2.93 20.57a.654.654 0 0 1 -.57.35.722.722 0 0 1 -.32-.08l-1.16-.63a.658.658 0 1 1 .64-1.15l1.15.63a.638.638 0 0 1 .26.88zm1.36-14.76c-.19-.01-.29-.05-.28-.11.03-.42.08-.87.15-1.34a5.134 5.134 0 0 1 -.68.6 3.15 3.15 0 0 1 -1.31.51 1.658 1.658 0 0 1 -1.04-.08 1.9 1.9 0 0 1 -.65-1.65 8.472 8.472 0 0 1 1.11-4.33 4.818 4.818 0 0 1 2.54-2.06 2.776 2.776 0 0 1 2.04-.2.958.958 0 0 1 .49.96c.39-.05.58-.01.58.1a6.368 6.368 0 0 1 -.51 2.24 30.918 30.918 0 0 0 -.88 4.75.953.953 0 0 1 -.94.55 3.784 3.784 0 0 1 -.62.06zm3.35 17.14a.677.677 0 0 1 -.6.37.581.581 0 0 1 -.28-.07c-.4-.19-.8-.38-1.2-.58a.657.657 0 1 1 .6-1.17l1.17.57a.657.657 0 0 1 .31.88zm1.68-20.7c-.27 1.51-.46 2.49-.58 2.93a1.254 1.254 0 0 1 -.98.46c-.59.12-.87.1-.86-.05a.453.453 0 0 1 .01-.08 12.99 12.99 0 0 1 .59-2.99c.08-.46.17-.86.24-1.19a14.949 14.949 0 0 0 .64-3.49c-.02-.23.28-.41.89-.56a2.72 2.72 0 0 1 .65-.07c.2.01.3.05.31.14a3.611 3.611 0 0 1 -.02.98h.01l.01-.01a3.014 3.014 0 0 1 1.14-.55 1.782 1.782 0 0 1 1.24.03 1.053 1.053 0 0 1 .43 1.17 4.914 4.914 0 0 1 -.55 1.63 4.133 4.133 0 0 1 -.83 1.16 2.2 2.2 0 0 1 -1.25.44.928.928 0 0 1 -.38-.04c-.17-.05-.19-.13-.05-.26a2.8 2.8 0 0 0 .65-.91 4.831 4.831 0 0 0 .53-1.42 1.653 1.653 0 0 0 .03-.69 10.067 10.067 0 0 0 -1.87 3.37zm3.12 22.86a.65.65 0 0 1 -.6.4.583.583 0 0 1 -.26-.06l-1.22-.52a.658.658 0 1 1 .54-1.2l1.2.52a.649.649 0 0 1 .34.86zm4.29 2.35a.682.682 0 0 1 -.23-.05l-1.24-.46a.658.658 0 0 1 -.38-.85.665.665 0 0 1 .86-.38l1.22.47a.64.64 0 0 1 .39.84.669.669 0 0 1 -.62.43zm2.11-6.22a2.334 2.334 0 0 1 -.42.2 1.481 1.481 0 0 1 -1.19.11 16.976 16.976 0 0 1 -2.64-2.78c-.57-.71-.91-1.12-1-1.23a.01.01 0 0 0 -.01-.01h-.01c-.08.38-.24 1.14-.49 2.27a.618.618 0 0 1 -.38.28 2.565 2.565 0 0 1 -.71.22c-.53.1-.78.04-.73-.17a69.389 69.389 0 0 0 1.71-10.57h-.1q-.06.015-.15.03c-.59.15-.92.14-.97-.03-.05-.2.23-.38.85-.53q.255-.06.42-.09a4.693 4.693 0 0 1 4.19.81 3.218 3.218 0 0 1 1.05 1.65 3.4 3.4 0 0 1 -.05 1.97 5.411 5.411 0 0 1 -1.97 2.63 5.736 5.736 0 0 1 -1.12.69c.1.1.43.49.99 1.18a20.727 20.727 0 0 0 2.86 3.06c.12.08.07.18-.13.31zm-.41-1.2a5.637 5.637 0 0 1 .37-1.88c.22-.73.41-1.4.57-1.99.38-1.43.69-2.78.92-4.04a.663.663 0 0 1 .37-.27 2.952 2.952 0 0 1 .71-.22c.52-.09.77-.04.73.17-.23 1.28-.54 2.63-.91 4.03-.19.67-.37 1.34-.57 2a5.209 5.209 0 0 0 -.35 1.71c.04.22-.25.4-.86.56s-.94.13-.98-.07zm3.29 9.13a.693.693 0 0 1 -.2-.03l-1.26-.41a.649.649 0 0 1 -.42-.83.665.665 0 0 1 .83-.42l1.25.41a.644.644 0 0 1 .43.82.663.663 0 0 1 -.63.46zm5.06 1.47a.5.5 0 0 1 -.17-.02l-1.28-.35a.655.655 0 1 1 .36-1.26l1.26.34a.655.655 0 0 1 -.17 1.29zm1.01-13.91a8.437 8.437 0 0 1 -2.31 2.86 3.578 3.578 0 0 1 -2.46.85 1.132 1.132 0 0 1 -.8-.35.915.915 0 0 1 .06-.93c0-.01.05-.26.12-.76.04-.27.07-.49.11-.67.08-.43.19-.89.32-1.4.35-1.37.59-2.34.72-2.93.28-1.39.5-2.38.65-2.97.05-.16.11-.42.2-.77.09-.33.15-.59.2-.77a4.053 4.053 0 0 0 .19-1.26c-.03-.22.26-.4.87-.55s.94-.12.97.06a4.364 4.364 0 0 1 -.19 1.32c-.04.17-.1.4-.18.7-.09.33-.15.57-.18.71-.13.51-.28 1.12-.43 1.83a2.786 2.786 0 0 1 1.58-.07 1.743 1.743 0 0 1 1.14 1.03 4.688 4.688 0 0 1 -.58 4.07zm60.79-38.56a.659.659 0 0 1 -.66.66.657.657 0 0 1 -.66-.65l-.02-1.31a.673.673 0 0 1 .65-.67.728.728 0 0 1 .68.65zm-.75 1.77a.667.667 0 0 1 -.66.57.277.277 0 0 1 -.09-.01l-1.31-.17a.655.655 0 0 1 -.56-.74.638.638 0 0 1 .74-.56l1.31.17a.67.67 0 0 1 .57.74zm.66-7.04a.66.66 0 0 1 -.64.68h-.02a.664.664 0 0 1 -.66-.65l-.03-1.31a.657.657 0 0 1 .64-.67.6.6 0 0 1 .68.64zm-.16-5.26a.66.66 0 0 1 -.64.68h-.02a.647.647 0 0 1 -.66-.63l-.05-1.31a.645.645 0 0 1 .63-.68.608.608 0 0 1 .69.62zm-.31-6.57.07 1.31a.66.66 0 0 1 -.63.69h-.03a.658.658 0 0 1 -.66-.62l-.07-1.31a.66.66 0 0 1 .63-.69.651.651 0 0 1 .69.62zm-.32-5.26.08 1.32a.643.643 0 0 1 -.61.69.076.076 0 0 1 -.04.01.658.658 0 0 1 -.66-.62l-.09-1.31a.658.658 0 0 1 .61-.7.668.668 0 0 1 .71.61zm-.39-5.25.1 1.32a.652.652 0 0 1 -.61.7h-.05a.663.663 0 0 1 -.66-.6l-.1-1.31a.662.662 0 0 1 1.32-.11zm-.46-5.24.12 1.31a.66.66 0 0 1 -.6.71.127.127 0 0 1 -.06.01.663.663 0 0 1 -.66-.6l-.12-1.31a.663.663 0 0 1 1.32-.12zm-.52-5.24.13 1.31a.647.647 0 0 1 -.59.72.127.127 0 0 1 -.06.01.663.663 0 0 1 -.66-.6l-.14-1.3a.661.661 0 0 1 .59-.72.67.67 0 0 1 .73.58zm-1.31-5.81a.675.675 0 0 1 .73.58l.15 1.31a.668.668 0 0 1 -.58.73h-.08a.658.658 0 0 1 -.65-.58l-.15-1.31a.668.668 0 0 1 .58-.73zm-5.08 31.65a13.934 13.934 0 0 0 .86-3.24c0-.21.29-.36.88-.45a2.664 2.664 0 0 1 .62-.02.261.261 0 0 1 .28.15 3.323 3.323 0 0 1 -.1.92h.01l.01-.01a2.881 2.881 0 0 1 1.12-.42 1.608 1.608 0 0 1 1.15.11 1 1 0 0 1 .32 1.14 4.784 4.784 0 0 1 -.64 1.48 3.674 3.674 0 0 1 -.87 1.03 2.041 2.041 0 0 1 -1.2.32 1.046 1.046 0 0 1 -.36-.06c-.15-.06-.16-.14-.02-.25a2.992 2.992 0 0 0 .68-.81 4.833 4.833 0 0 0 .6-1.29 1.77 1.77 0 0 0 .08-.65 9.546 9.546 0 0 0 -2.01 3.03c-.36 1.4-.62 2.3-.77 2.7a1.147 1.147 0 0 1 -.95.37q-.84.09-.81-.12a.327.327 0 0 0 .02-.08 12.683 12.683 0 0 1 .78-2.76c.12-.42.22-.79.32-1.09zm2.65 13.33a.66.66 0 0 1 -.66.58.249.249 0 0 1 -.08-.01l-1.31-.16a.647.647 0 0 1 -.57-.73.637.637 0 0 1 .73-.57l1.32.16a.66.66 0 0 1 .57.73zm-3.34-17.15a1.651 1.651 0 0 1 .35 1.15 5.661 5.661 0 0 1 -.57 2.29.942.942 0 0 1 -.58.31 2.309 2.309 0 0 1 -.68.09c-.12 0-.46-.03-1-.08a10.005 10.005 0 0 0 -1-.04 11.91 11.91 0 0 0 -.3 1.43 4.856 4.856 0 0 0 -.03 1.3.974.974 0 0 0 .21.53c.12-.1.23-.19.31-.27a2.893 2.893 0 0 0 .72-1.24.621.621 0 0 1 .38-.24 2.271 2.271 0 0 1 .67-.15c.5-.05.73.02.68.21a3.064 3.064 0 0 1 -1.28 1.75 3.685 3.685 0 0 1 -1.2.55 2.93 2.93 0 0 1 -1.56.07 1.346 1.346 0 0 1 -.72-1.61 12.585 12.585 0 0 1 .3-1.87 8.382 8.382 0 0 1 1.05-2.71 3.961 3.961 0 0 1 .88-1.13 3.238 3.238 0 0 1 1.79-.69 1.811 1.811 0 0 1 1.58.35zm-1.91 16.52a.651.651 0 0 1 -.65.58h-.08l-1.31-.15a.668.668 0 0 1 -.58-.73.651.651 0 0 1 .73-.58l1.32.15a.647.647 0 0 1 .57.73zm-8.56 14.98a.072.072 0 1 1 -.02.02 4.2 4.2 0 0 0 -.48.73 13.16 13.16 0 0 0 -.78 1.83c-.12.32-.39.97-.81 1.94a10.283 10.283 0 0 0 -.45 1.16c-.08.48-.16.9-.25 1.26a1.154 1.154 0 0 1 -.95.46c-.59.11-.87.1-.86-.05a5.05 5.05 0 0 1 .12-.82 3.434 3.434 0 0 1 .14-.5c.31-2.02.49-3.11.52-3.28.19-.71.31-1.24.37-1.59a4.632 4.632 0 0 0 .09-1.29 12.269 12.269 0 0 0 -1.27 2.4c-.38.93-.73 1.93-1.06 3a16.848 16.848 0 0 0 -.5 1.93.661.661 0 0 1 -.38.27 2.871 2.871 0 0 1 -.7.22c-.51.09-.76.06-.74-.08a34.051 34.051 0 0 1 .94-4.07 16.965 16.965 0 0 0 .7-4.09c0-.24.3-.42.92-.54a2.39 2.39 0 0 1 .63-.06c.18 0 .28.04.28.11 0 .18-.01.35-.02.53a1.778 1.778 0 0 1 .37-.26 3.762 3.762 0 0 1 1.47-.49c.7-.09 1.09.12 1.17.61a2.911 2.911 0 0 1 .02.67 3.638 3.638 0 0 1 2.3-1.04 1.052 1.052 0 0 1 .87.18 1 1 0 0 1 .22.65 11.2 11.2 0 0 1 -.43 2.64c-.49 1.98-.73 2.94-.72 2.9-.05.26-.11.71-.18 1.36a9.608 9.608 0 0 1 -.23 1.36.618.618 0 0 1 -.38.28 2.791 2.791 0 0 1 -.69.22c-.54.09-.78.04-.73-.17a8.843 8.843 0 0 0 .21-1.25c.06-.6.11-1.02.15-1.24.07-.38.29-1.27.65-2.67a16.522 16.522 0 0 0 .51-2.64 2.144 2.144 0 0 0 -.02-.6zm-7.99 25.48a.7.7 0 0 1 -.38.27 2.534 2.534 0 0 1 -.69.22c-.53.1-.78.04-.73-.17.48-2 .76-3.14.82-3.44-.08.13-.14.24-.2.34a9.125 9.125 0 0 1 -1.6 2.13 3.113 3.113 0 0 1 -2.46.83.209.209 0 0 1 -.16-.11 14.206 14.206 0 0 1 1.97-7.85 1.586 1.586 0 0 1 1.08-.49 1.65 1.65 0 0 1 .45-.03c.26.01.35.08.28.2a13.959 13.959 0 0 0 -1.94 6.56 15.982 15.982 0 0 0 .91-1.5 45.9 45.9 0 0 0 2.38-4.68 1.39 1.39 0 0 1 .97-.44c.57-.13.86-.12.84.04a57.308 57.308 0 0 1 -1.54 8.12zm1.03 32.4a.669.669 0 0 1 -.66.64h-.03l-1.32-.06a.645.645 0 0 1 -.63-.68.617.617 0 0 1 .69-.62l1.31.05a.657.657 0 0 1 .64.67zm-10.41-53.3a3.064 3.064 0 0 1 -.62.01c-.22.7-.45 1.44-.67 2.23a.7.7 0 0 1 -.38.28 2.934 2.934 0 0 1 -.69.22c-.55.09-.79.04-.73-.17.26-.96.53-1.84.8-2.64h-.16a1.5 1.5 0 0 0 -.24.02 2.347 2.347 0 0 1 -1.23.31.261.261 0 0 1 -.29-.12.288.288 0 0 1 .18-.27 4.715 4.715 0 0 1 1.97-.62c.32-.89.64-1.73.99-2.53.15-.34.35-.8.62-1.4.3-.67.51-1.13.62-1.4a20.513 20.513 0 0 1 1.22-2.51 1.673 1.673 0 0 1 1.07-.5 1.21 1.21 0 0 1 .71.04c.23 0 .35.03.35.11q0 2.145-.25 6.43t-.26 6.43c0 .23-.3.42-.91.54a2.466 2.466 0 0 1 -.63.06c-.19-.01-.29-.04-.29-.11 0-1.22.05-2.69.14-4.42a4.819 4.819 0 0 0 -1.32.01zm-5.84-30.77c-.55.08-.82.04-.79-.1a97.78 97.78 0 0 1 3.35-11.68.614.614 0 0 1 .37-.23 2.5 2.5 0 0 1 .68-.15c.52-.05.74.02.68.21q-1.08 3.135-1.74 5.33a3.663 3.663 0 0 1 .94-.81 3.43 3.43 0 0 1 1.47-.41.939.939 0 0 1 1.18.64 4.146 4.146 0 0 1 -.04 1.43c-.07.39-.17.88-.31 1.46a10.115 10.115 0 0 1 -.48 1.61 11.366 11.366 0 0 0 -.8 2.44.9.9 0 0 1 -.91.44 2.445 2.445 0 0 1 -.6.01c-.18-.03-.26-.06-.26-.12a7.1 7.1 0 0 1 .55-1.92 15.955 15.955 0 0 0 .68-1.89 14.935 14.935 0 0 0 .45-2.46 3.108 3.108 0 0 0 -.04-.7 8.809 8.809 0 0 0 -1.19 1.78c-.41.74-.87 1.69-1.37 2.85s-.79 1.81-.86 1.93a1.425 1.425 0 0 1 -.96.34zm.2 8.45a.658.658 0 0 1 -.66.62h-.03l-1.32-.07a.661.661 0 0 1 -.62-.7.653.653 0 0 1 .69-.62l1.32.07a.667.667 0 0 1 .62.7zm14.17-10.44a47.448 47.448 0 0 0 2.62-4.25 1.3 1.3 0 0 1 .95-.36c.55-.07.82-.04.8.11a56.847 56.847 0 0 1 -2.08 7.59.709.709 0 0 1 -.38.23 2.821 2.821 0 0 1 -.68.16c-.51.05-.74-.02-.68-.22.61-1.86.96-2.93 1.04-3.2-.08.11-.15.22-.21.31a8.9 8.9 0 0 1 -1.69 1.89 2.923 2.923 0 0 1 -2.39.61.185.185 0 0 1 -.15-.12 13.625 13.625 0 0 1 2.47-7.31 1.524 1.524 0 0 1 1.06-.37 1.546 1.546 0 0 1 .43 0c.25.03.33.1.25.2a13.354 13.354 0 0 0 -2.33 6.09 14.275 14.275 0 0 0 .97-1.36zm5.29 3.21a.673.673 0 0 1 -.38.22 2.854 2.854 0 0 1 -.67.16c-.52.05-.74-.02-.69-.21q.06-.195 1.6-5.83a34.843 34.843 0 0 1 1.98-5.7 1.3 1.3 0 0 1 1.06-.39c.54-.05.77.02.67.22q.09-.195-3.57 11.53zm1.61 8.87a.654.654 0 0 1 -.66.59h-.06l-1.32-.13a.645.645 0 0 1 -.59-.71.638.638 0 0 1 .72-.59l1.32.12a.667.667 0 0 1 .59.72zm-5.27-.49a.646.646 0 0 1 -.65.6h-.06l-1.32-.11a.658.658 0 1 1 .12-1.31l1.31.11a.646.646 0 0 1 .6.71zm-5.07-12.02a6.047 6.047 0 0 1 -1.57 2.29 3.454 3.454 0 0 1 -1.34.71 3.181 3.181 0 0 1 -1.52.08 1.087 1.087 0 0 1 -.76-1.26 8.219 8.219 0 0 1 .4-2.42 13.132 13.132 0 0 1 .96-2.46 3.572 3.572 0 0 1 1.18-1.48 1.838 1.838 0 0 1 .6-.2 1.537 1.537 0 0 1 .53-.23 1.448 1.448 0 0 1 1.11 0 2.494 2.494 0 0 1 1.04 2.35 7.131 7.131 0 0 1 -.63 2.62zm-5.46 11.2a.65.65 0 0 1 -.66.61h-.04l-1.32-.09a.643.643 0 0 1 -.61-.69.627.627 0 0 1 .7-.62l1.31.09a.66.66 0 0 1 .62.7zm3.24.89a.668.668 0 0 1 -.61-.71.626.626 0 0 1 .71-.6l1.32.1a.652.652 0 0 1 .61.7.664.664 0 0 1 -.66.61h-.05zm1.11 23.82a12.747 12.747 0 0 1 .59-2.95c.08-.46.16-.85.24-1.18a14.875 14.875 0 0 0 .63-3.46c-.02-.22.28-.4.88-.54a3.369 3.369 0 0 1 .65-.08c.19.02.29.06.3.14a3.611 3.611 0 0 1 -.02.98l.01-.01.01-.01a3.028 3.028 0 0 1 1.13-.54 1.724 1.724 0 0 1 1.22.03 1.038 1.038 0 0 1 .43 1.16 4.888 4.888 0 0 1 -.55 1.61 4.014 4.014 0 0 1 -.82 1.15 2.237 2.237 0 0 1 -1.23.43.928.928 0 0 1 -.38-.04c-.17-.04-.18-.13-.05-.25a3.092 3.092 0 0 0 .65-.91 4.682 4.682 0 0 0 .52-1.4 1.783 1.783 0 0 0 .03-.68 9.836 9.836 0 0 0 -1.85 3.33c-.26 1.49-.46 2.46-.57 2.9a1.28 1.28 0 0 1 -.97.46c-.58.11-.87.09-.86-.06a.2.2 0 0 0 .01-.08zm1.15 50.3a.66.66 0 0 1 -.65.6c-.02 0-.05-.01-.07-.01l-1.32-.13a.667.667 0 0 1 -.59-.72.691.691 0 0 1 .73-.59l1.31.14a.645.645 0 0 1 .59.71zm6.78-38.16a37.312 37.312 0 0 1 1.6-6.13 1.391 1.391 0 0 1 1.07-.49c.57-.1.81-.04.73.17q.075-.21-2.78 12.36a.619.619 0 0 1 -.37.27 3.016 3.016 0 0 1 -.7.22c-.53.09-.77.04-.73-.17q.045-.195 1.18-6.23zm6.74-34.56a.653.653 0 0 1 -.59-.72.665.665 0 0 1 .72-.58l1.32.13a.657.657 0 0 1 -.07 1.31h-.07zm1.7-9.29a2.346 2.346 0 0 1 -.67.15 2.037 2.037 0 0 1 -.34.01 2.635 2.635 0 0 1 -2.32-.09 2.12 2.12 0 0 1 -.98-1.5 6.56 6.56 0 0 1 .53-3.48 4.79 4.79 0 0 1 2.25-2.83 4.174 4.174 0 0 1 1.66-.4 1.686 1.686 0 0 1 .7.12q.555-1.785 1.14-3.27a.7.7 0 0 1 .37-.24 3.247 3.247 0 0 1 .68-.15c.53-.05.75.03.68.22-.5 1.26-1.6 5.01-3.32 11.22a.621.621 0 0 1 -.38.24zm3.16-24.05a1.791 1.791 0 0 1 1.58.35 1.607 1.607 0 0 1 .36 1.15 6.054 6.054 0 0 1 -.57 2.3 1 1 0 0 1 -.58.3 2.37 2.37 0 0 1 -.69.09c-.12 0-.45-.03-1-.08a9.9 9.9 0 0 0 -1-.04 10.3 10.3 0 0 0 -.29 1.43 4.962 4.962 0 0 0 -.04 1.3 1.159 1.159 0 0 0 .21.53 2.365 2.365 0 0 0 .32-.27 3 3 0 0 0 .72-1.24.586.586 0 0 1 .38-.24 2.271 2.271 0 0 1 .67-.15c.5-.05.72.02.67.21a3.02 3.02 0 0 1 -1.28 1.75 3.639 3.639 0 0 1 -1.19.55 2.931 2.931 0 0 1 -1.56.07 1.346 1.346 0 0 1 -.72-1.61 12.585 12.585 0 0 1 .3-1.87 7.948 7.948 0 0 1 1.05-2.71 3.793 3.793 0 0 1 .88-1.13 3.206 3.206 0 0 1 1.78-.69zm-7.43-.3a4.168 4.168 0 0 1 1.65-.4 1.919 1.919 0 0 1 .71.12c.37-1.19.75-2.28 1.13-3.27a.756.756 0 0 1 .37-.24 3.5 3.5 0 0 1 .69-.15c.52-.05.75.03.67.22q-.735 1.9-3.31 11.22a.659.659 0 0 1 -.38.24 2.425 2.425 0 0 1 -.67.15 2.155 2.155 0 0 1 -.35.01 2.613 2.613 0 0 1 -2.31-.09 2.1 2.1 0 0 1 -.99-1.5 6.66 6.66 0 0 1 .53-3.48 4.837 4.837 0 0 1 2.26-2.83zm-5.31-.48a2.559 2.559 0 0 1 1.93-.04.926.926 0 0 1 .39.94c.37-.01.55.03.54.14a6.135 6.135 0 0 1 -.65 2.07 28.057 28.057 0 0 0 -1.18 4.39.9.9 0 0 1 -.93.44 2.361 2.361 0 0 1 -.59.01c-.17-.02-.26-.06-.25-.12.06-.39.14-.81.24-1.25a4.153 4.153 0 0 1 -.68.51 2.9 2.9 0 0 1 -1.27.39 1.5 1.5 0 0 1 -.97-.16 1.774 1.774 0 0 1 -.49-1.59 8 8 0 0 1 1.37-3.98 4.51 4.51 0 0 1 2.54-1.75zm-4.02-4.19a1.389 1.389 0 0 1 1.07-.38c.54-.06.76.02.67.21q.09-.2-3.57 11.53a.665.665 0 0 1 -.38.23 2.848 2.848 0 0 1 -.67.15q-.78.075-.69-.21.06-.2 1.6-5.83a35.913 35.913 0 0 1 1.97-5.7zm-9.36 8.13q.3-1.02.84-2.43a38.03 38.03 0 0 0 1.61-4.93 1.037 1.037 0 0 1 .04-.1h-.11a.277.277 0 0 1 -.08.01.418.418 0 0 0 -.16.03c-.59.13-.9.09-.94-.1q-.045-.24.84-.42a4.133 4.133 0 0 1 3.11.33 2.4 2.4 0 0 1 1.18 2.09 4.945 4.945 0 0 1 -1.18 3.05 8.183 8.183 0 0 1 -1.4 1.42c1.59-.16 2.3.26 2.11 1.26a3.128 3.128 0 0 1 -2.27 2.19 8.032 8.032 0 0 1 -3.82.55.376.376 0 0 1 -.22-.08c-.28-.01-.4-.08-.34-.22-.02.03999999999.25-.85.79-2.65000000001zm-10.9 17.29a1.261 1.261 0 0 1 .61-.68 1.951 1.951 0 0 1 1.25-.24.306.306 0 0 1 .3.15.36.36 0 0 1 -.23.23.72.72 0 0 0 -.21.76 1.65 1.65 0 0 0 .3.86 1.457 1.457 0 0 0 .74.56 2.189 2.189 0 0 0 .23.07.833.833 0 0 0 .12.01h.05a.169.169 0 0 1 .05-.02.76.76 0 0 0 .11-.04 1.3 1.3 0 0 1 .12-.07 2.216 2.216 0 0 0 .34-.22 2.368 2.368 0 0 0 .6-.66 1.928 1.928 0 0 0 .39-1.23 1.212 1.212 0 0 0 -.56-.78 7.212 7.212 0 0 0 -.89-.44 3.8 3.8 0 0 1 -1.89-1.33 3.977 3.977 0 0 1 .27-3.35 5.326 5.326 0 0 1 2.44-2.76 5.033 5.033 0 0 1 2.23-.51 1.467 1.467 0 0 1 1.21.44 2.882 2.882 0 0 1 .12 2.35 6.538 6.538 0 0 1 -.97 2.25 1.445 1.445 0 0 1 -1.05.38 1.248 1.248 0 0 1 -.43-.01c-.25-.02-.33-.09-.25-.2a6.257 6.257 0 0 0 1.04-2.61 3.182 3.182 0 0 0 .03-1.22 1.324 1.324 0 0 0 -.18-.49 1.31 1.31 0 0 0 -.12-.13q-.105-.075-.12-.09c-.05-.02-.09-.03-.12-.04l-.18.09a3.881 3.881 0 0 0 -1.19 1.12 5.3 5.3 0 0 0 -1.17 3.46 1.99 1.99 0 0 0 .38 1.23 3.056 3.056 0 0 0 .92.63 3.6 3.6 0 0 0 .49.22c.24.1.42.18.53.23a2.562 2.562 0 0 1 .94.64 1.3 1.3 0 0 1 .24 1.22 2.756 2.756 0 0 1 -.65 1.14 4.428 4.428 0 0 1 -1.98 1.18 3.978 3.978 0 0 1 -2.58.09 1.931 1.931 0 0 1 -1.27-1.28 1.568 1.568 0 0 1 -.01-.91zm2.6 10a.658.658 0 0 1 -.66.62h-.03l-1.31-.05a.668.668 0 0 1 -.64-.69.6.6 0 0 1 .69-.62l1.32.05a.654.654 0 0 1 .63.69zm-6.59-7.63a.659.659 0 0 1 -.66.66.651.651 0 0 1 -.66-.65l-.01-1.31a.645.645 0 0 1 .65-.66h.01a.664.664 0 0 1 .66.65zm.01 3.94v1.32a.66.66 0 0 1 -1.32 0v-1.32a.66.66 0 0 1 1.32 0zm-.07-9.2a.666.666 0 0 1 -.65.67h-.01a.657.657 0 0 1 -.66-.65l-.02-1.31a.657.657 0 0 1 .64-.67.736.736 0 0 1 .68.65zm-.11-5.25a.657.657 0 0 1 -.64.67h-.02a.662.662 0 0 1 -.66-.64l-.03-1.3 1.32-.05zm-.14-5.26a.666.666 0 0 1 -.64.68h-.02a.669.669 0 0 1 -.67-.63l-.04-1.32a.657.657 0 0 1 .64-.67.616.616 0 0 1 .68.63zm-.26-6.57.06 1.32a.657.657 0 0 1 -.63.68h-.03a.66.66 0 0 1 -.66-.63l-.06-1.31a.66.66 0 0 1 .64-.68.592.592 0 0 1 .68.62zm-.18-3.93a.66.66 0 0 1 -.63.69h-.03a.667.667 0 0 1 -.66-.63l-.07-1.31a.66.66 0 0 1 .63-.69.678.678 0 0 1 .69.62zm-.36-6.57.08 1.32a.66.66 0 0 1 -.63.69h-.03a.658.658 0 0 1 -.66-.62l-.08-1.31a.661.661 0 0 1 1.32-.08zm-.25-3.93a.666.666 0 0 1 -.62.7h-.04a.664.664 0 0 1 -.66-.61l-.08-1.27 1.31-.13zm-.47-6.55.1 1.31a.665.665 0 0 1 -.61.7h-.05a.657.657 0 0 1 -.66-.61l-.1-1.3a.655.655 0 0 1 .61-.71.648.648 0 0 1 .71.61zm-1.14-5.84a.653.653 0 0 1 .71.6l.11 1.3a.66.66 0 0 1 -.6.71c-.02 0-.04.01-.06.01a.654.654 0 0 1 -.65-.61l-.11-1.3a.641.641 0 0 1 .6-.71zm.57 106.92a.663.663 0 0 1 -.66.6h-.06a.654.654 0 0 1 -.59-.72l.11-1.31a.663.663 0 0 1 1.32.12zm.45-5.24a.657.657 0 0 1 -.66.61.433.433 0 0 0 -.05-.01.654.654 0 0 1 -.6-.71l.1-1.3a.7.7 0 0 1 .71-.6.652.652 0 0 1 .61.7zm.41-5.24a.664.664 0 0 1 -.66.61h-.05a.664.664 0 0 1 -.61-.7l.09-1.31a.662.662 0 0 1 1.32.09zm.35-5.25a.656.656 0 0 1 -.65.62h-.05a.658.658 0 0 1 -.61-.7l.08-1.23.66-.04.66.04zm.31-5.24a.649.649 0 0 1 -.65.62h-.04a.658.658 0 0 1 -.62-.69l.07-1.32a.633.633 0 0 1 .69-.62.66.66 0 0 1 .63.69zm.27-5.26a.66.66 0 0 1 -.66.63h-.03a.66.66 0 0 1 -.63-.69l.06-1.3a.622.622 0 0 1 .68-.63.66.66 0 0 1 .64.68zm.22-5.25a.66.66 0 0 1 -.66.63h-.03a.645.645 0 0 1 -.63-.68l.02-.72-1.26-.09a.659.659 0 0 1 -.61-.7.645.645 0 0 1 .71-.61l1.32.1a.707.707 0 0 1 .26.13.467.467 0 0 1 .28-.05.653.653 0 0 1 .64.68zm.17-5.25a.669.669 0 0 1 -.66.64c-.01 0-.02 0-.02-.01a.645.645 0 0 1 -.64-.67l.03-1.31a.647.647 0 0 1 .68-.64.657.657 0 0 1 .64.67zm.12-5.26a.664.664 0 0 1 -.66.65h-.01a.659.659 0 0 1 -.65-.67l.02-1.31a.735.735 0 0 1 .67-.65.668.668 0 0 1 .66.67zm.08-5.25a.662.662 0 0 1 -.66.64h-.01a.651.651 0 0 1 -.65-.66l.01-1.31a.657.657 0 0 1 .66-.65h.01a.657.657 0 0 1 .65.66zm.67-2.46h-.02l-1.32-.04a.655.655 0 0 1 .02-1.31h.02l1.32.04a.655.655 0 0 1 -.02 1.31zm4.74 43.89a4.242 4.242 0 0 1 -2.7.31 2.037 2.037 0 0 1 -1.43-1.23 1.724 1.724 0 0 1 -.09-.96 1.432 1.432 0 0 1 .58-.76 2.112 2.112 0 0 1 1.29-.35.331.331 0 0 1 .33.13.392.392 0 0 1 -.23.26.793.793 0 0 0 -.15.82 1.759 1.759 0 0 0 .39.87 1.574 1.574 0 0 0 .82.52 1.67 1.67 0 0 0 .24.05.227.227 0 0 0 .13 0h.06l.04-.02a.672.672 0 0 0 .12-.06 1.3 1.3 0 0 1 .12-.07c.13-.09.24-.18.34-.26a2.761 2.761 0 0 0 .57-.74 2.046 2.046 0 0 0 .31-1.32 1.28 1.28 0 0 0 -.66-.77 5.787 5.787 0 0 0 -.97-.39 4.027 4.027 0 0 1 -2.08-1.24 4.186 4.186 0 0 1 0-3.52 5.512 5.512 0 0 1 2.32-3.09 5.109 5.109 0 0 1 2.29-.72 1.513 1.513 0 0 1 1.3.36 2.928 2.928 0 0 1 .33 2.44 6.834 6.834 0 0 1 -.83 2.44 1.537 1.537 0 0 1 -1.07.49 1.662 1.662 0 0 1 -.45.02c-.26 0-.35-.07-.28-.18a6.5 6.5 0 0 0 .87-2.82 3.466 3.466 0 0 0 -.06-1.29 1.492 1.492 0 0 0 -.23-.49c-.04-.04-.08-.08-.14-.13a.842.842 0 0 0 -.14-.08.345.345 0 0 0 -.13-.03 1.182 1.182 0 0 0 -.18.11 3.994 3.994 0 0 0 -1.15 1.27 5.581 5.581 0 0 0 -.94 3.71 2.179 2.179 0 0 0 .51 1.26 3.238 3.238 0 0 0 1.01.58c.11.05.29.11.53.19.27.09.46.15.58.2a2.935 2.935 0 0 1 1.04.59 1.386 1.386 0 0 1 .35 1.26 2.776 2.776 0 0 1 -.59 1.24 4.5 4.5 0 0 1 -1.97 1.4zm2.6 13.76h-.1c-.45-.07-.88-.14-1.32-.21a.659.659 0 0 1 .22-1.3c.43.07.86.14 1.3.21a.653.653 0 0 1 -.1 1.3zm5.24.63h-.06c-.45-.04-.89-.09-1.32-.13a.658.658 0 1 1 .13-1.31c.43.05.87.09 1.31.13a.656.656 0 0 1 -.06 1.31zm2.02-21.54c-.03.42-.09.93-.19 1.55a11.3 11.3 0 0 1 -.37 1.73 11.978 11.978 0 0 0 -.64 2.62.951.951 0 0 1 -.91.54 3.9 3.9 0 0 1 -.63.06c-.19-.02-.28-.05-.28-.11a7.478 7.478 0 0 1 .41-2.06 13.482 13.482 0 0 0 .55-2.03 15.178 15.178 0 0 0 .27-2.61 3.915 3.915 0 0 0 -.09-.73 8.932 8.932 0 0 0 -1.11 1.96c-.36.81-.76 1.84-1.19 3.1s-.68 1.96-.74 2.09a1.492 1.492 0 0 1 -.97.44c-.58.12-.85.11-.84-.05a101.549 101.549 0 0 1 2.53-12.5.709.709 0 0 1 .37-.27 2.489 2.489 0 0 1 .7-.21c.54-.1.78-.04.73.16q-.87 3.375-1.38 5.73a3.618 3.618 0 0 1 .91-.92 3.407 3.407 0 0 1 1.51-.56.984.984 0 0 1 1.29.57 4.266 4.266 0 0 1 .07 1.5zm.28 2.88a15.065 15.065 0 0 1 .79-2.65 3.884 3.884 0 0 1 1.11-1.66 2.226 2.226 0 0 1 .62-.25 1.4 1.4 0 0 1 .53-.28 1.629 1.629 0 0 1 1.17-.11 2.672 2.672 0 0 1 1.29 2.38 7.672 7.672 0 0 1 -.45 2.8 6.273 6.273 0 0 1 -1.45 2.53 3.744 3.744 0 0 1 -1.35.85 3.4 3.4 0 0 1 -1.58.21 1.162 1.162 0 0 1 -.9-1.26 8.83 8.83 0 0 1 .22-2.56zm.09 20.78-.16-1.3a.662.662 0 0 1 .58-.73.644.644 0 0 1 .73.58l.16 1.3a.668.668 0 0 1 -.58.73h-.08a.65.65 0 0 1 -.65-.58zm.72 5.23-.2-1.3a.665.665 0 0 1 .56-.75.652.652 0 0 1 .75.55l.2 1.3a.663.663 0 0 1 -.55.75h-.1a.666.666 0 0 1 -.66-.55zm1.57 5.73a.663.663 0 0 1 -.65-.53l-.25-1.3a.661.661 0 0 1 1.3-.24l.25 1.28a.652.652 0 0 1 -.52.77.688.688 0 0 1 -.13.02zm3.08 20.08c-.05 0-.09.01-.13.01a.663.663 0 0 1 -.65-.53c-.08-.44-.15-.89-.2-1.36a.652.652 0 0 1 .37-.66c.09.2.19.4.28.59a28 28 0 0 1 -2.51-7.1 51.513 51.513 0 0 1 .64-7.59l-.09.65a.638.638 0 0 1 -.55-.49l-.06-.27a.651.651 0 0 1 .5-.78.669.669 0 0 1 .79.5l.05.24a.647.647 0 0 1 -.49.79h-.01l-.14-.64a62.917 62.917 0 0 1 1.87 14.69c.01-.22.01-.43.01-.65a.652.652 0 0 1 .65.58c.05.43.11.84.19 1.25a.665.665 0 0 1 -.52.77zm2.22 4.72a.651.651 0 0 1 -.37.12.676.676 0 0 1 -.55-.3 13.653 13.653 0 0 1 -.71-1.18.659.659 0 0 1 .27-.89.683.683 0 0 1 .9.28 10.282 10.282 0 0 0 .64 1.06.656.656 0 0 1 -.18.91zm3.83 3.59a.649.649 0 0 1 -.53.27.612.612 0 0 1 -.39-.13c-.37-.27-.73-.56-1.07-.85a.654.654 0 0 1 -.07-.93.672.672 0 0 1 .93-.07c.32.28.65.54.99.8a.636.636 0 0 1 .14.91zm1.08-8.67c.04.18.06.32.09.42a23.869 23.869 0 0 0 2.38.34.568.568 0 0 1 .31.56 1.733 1.733 0 0 1 .04.37c-.01.11-.03.17-.06.16a23.725 23.725 0 0 1 -2.36-.33.568.568 0 0 1 -.03.38q-.06.1-.18-.09a.945.945 0 0 1 -.13-.24.4.4 0 0 0 -.04-.13c-.52-.1-1.22-.26-2.11-.47q-1.53-.36-2.1-.48a.418.418 0 0 1 -.17-.23 1.786 1.786 0 0 1 -.13-.41c-.06-.32-.02-.47.1-.44.39.09 1.07.24 2.05.47.87.21 1.55.36 2.05.46-.07-.34-.13-.67-.17-.99-.43-.1-1.08-.26-1.93-.49s-1.49-.39-1.92-.48a.42.42 0 0 1 -.16-.23 1.6 1.6 0 0 1 -.13-.42c-.06-.31-.03-.46.1-.43.42.1 1.08.26 1.98.5.86.23 1.53.4 1.99.51v-.3a.15.15 0 0 1 .08-.17c.04-.02.1.02.15.11a1.452 1.452 0 0 1 .18.44 16.275 16.275 0 0 0 2.62.37.562.562 0 0 1 .33.56 2.616 2.616 0 0 1 .03.37c-.01.11-.03.17-.07.17a19.013 19.013 0 0 1 -2.86-.42c.02.19.05.38.07.56zm-2.37-8.34a1.831 1.831 0 0 0 .77.62 4.617 4.617 0 0 0 1.14.37 5.278 5.278 0 0 0 1.18.1 2.972 2.972 0 0 0 1.11-.2.868.868 0 0 0 .32-.25c-.03-.03-.05-.06-.06-.07a2.252 2.252 0 0 0 -.42-.3.95.95 0 0 1 -.29-.64 1.23 1.23 0 0 1 -.02-.28c.01-.15.04-.2.12-.16a2.29 2.29 0 0 1 1.05 1.26 1.084 1.084 0 0 1 -.33 1.48 3.654 3.654 0 0 1 -2.27.17 3.414 3.414 0 0 1 -2.09-.96 2.573 2.573 0 0 1 -.64-1.36 1.222 1.222 0 0 1 .24-1.11 1.168 1.168 0 0 1 .91-.34 1.382 1.382 0 0 1 .9.36 1.067 1.067 0 0 1 .27.74.786.786 0 0 1 -.02.23c-.03.08-.08.09-.16.02a1.057 1.057 0 0 0 -.72-.27 1.071 1.071 0 0 0 -.83.31.765.765 0 0 0 -.14.21l-.03.06v.01zm5.07 5.38a.686.686 0 0 1 -.76.54 5.3 5.3 0 0 1 -1.55-.13 8.712 8.712 0 0 1 -1.61-.48 2.154 2.154 0 0 1 -1-.66 1.148 1.148 0 0 1 -.16-.37 1.179 1.179 0 0 1 -.17-.32.994.994 0 0 1 -.06-.7 1.616 1.616 0 0 1 1.44-.77 4.662 4.662 0 0 1 1.7.27 3.793 3.793 0 0 1 1.53.86 2.424 2.424 0 0 1 .51.81 1.892 1.892 0 0 1 .13.95zm1.62-9.53a12.313 12.313 0 0 1 -1.77.73 14.929 14.929 0 0 0 -1.78.7 6 6 0 0 0 1.42.29.562.562 0 0 1 .33.56 1.228 1.228 0 0 1 .03.37c0 .11-.02.17-.06.17-.17-.01-.78-.15-1.83-.41-.51-.13-1.08-.25-1.71-.38-.02.07-.05.09-.1.06a1.014 1.014 0 0 1 -.13-.09l-.03-.03c-.19-.03-.51-.1-.96-.18-.42-.08-.74-.14-.97-.18-.21-.05-.48-.11-.83-.2-.4-.1-.68-.17-.82-.21a.38.38 0 0 1 -.16-.22 1.786 1.786 0 0 1 -.13-.41c-.06-.32-.03-.47.1-.44s.4.1.82.2c.34.09.61.15.82.2q.27.045 1.26.24c-.06-.13-.11-.26-.16-.38a3.211 3.211 0 0 1 -.22-1.16.636.636 0 0 1 .27-.59.873.873 0 0 1 .74.03 2.386 2.386 0 0 1 .81.6 3.4 3.4 0 0 1 .72 1.05c.03.08.07.16.09.23a10.723 10.723 0 0 1 1.97-.84 12.946 12.946 0 0 0 1.99-.81q.06-.03.15.12a1.547 1.547 0 0 1 .16.34c.12.36.11.57-.02.64zm.1-2.48q-.66.03-1.32.03h-.01a.657.657 0 0 1 -.66-.65.645.645 0 0 1 .65-.66l1.31-.03a.66.66 0 0 1 .68.64.653.653 0 0 1 -.65.67zm4.38-33.13a2.523 2.523 0 0 1 -.69.21 3.057 3.057 0 0 1 -.36.05 2.805 2.805 0 0 1 -2.44.09 2.231 2.231 0 0 1 -1.15-1.49 6.88 6.88 0 0 1 .27-3.68 5.115 5.115 0 0 1 2.11-3.16 4.4 4.4 0 0 1 1.71-.55 1.814 1.814 0 0 1 .75.07c.28-1.28.59-2.45.91-3.52a.7.7 0 0 1 .37-.27 2.871 2.871 0 0 1 .7-.22c.55-.1.79-.04.72.17q-.615 2.055-2.52 12.02a.7.7 0 0 1 -.38.28zm6.72-4.05a2.2 2.2 0 0 1 -.71.15c-.12.01-.48.01-1.05 0a9.151 9.151 0 0 0 -1.05.05 10.675 10.675 0 0 0 -.19 1.52 4.641 4.641 0 0 0 .07 1.35 1.081 1.081 0 0 0 .26.54 2.259 2.259 0 0 0 .31-.31 3.01 3.01 0 0 0 .65-1.35.618.618 0 0 1 .38-.28 2.662 2.662 0 0 1 .69-.22c.52-.09.76-.03.72.17a3.119 3.119 0 0 1 -1.19 1.93 3.59 3.59 0 0 1 -1.21.68 3.038 3.038 0 0 1 -1.62.2c-.59-.14-.89-.69-.89-1.63a13.627 13.627 0 0 1 .15-1.98 8.584 8.584 0 0 1 .88-2.92 4.1 4.1 0 0 1 .82-1.25 3.35 3.35 0 0 1 1.82-.87 1.865 1.865 0 0 1 1.68.24 1.7 1.7 0 0 1 .47 1.17 6.155 6.155 0 0 1 -.41 2.45 1 1 0 0 1 -.58.36zm6.26-.77a3.988 3.988 0 0 1 -.82 1.14 2.273 2.273 0 0 1 -1.24.44.928.928 0 0 1 -.38-.04c-.17-.05-.18-.13-.04-.25a3.245 3.245 0 0 0 .64-.91 5.034 5.034 0 0 0 .53-1.4 1.763 1.763 0 0 0 .02-.68 10.009 10.009 0 0 0 -1.85 3.33c-.26 1.49-.45 2.46-.57 2.9a1.229 1.229 0 0 1 -.97.45c-.58.12-.87.1-.85-.05v-.08a13.384 13.384 0 0 1 .59-2.96c.09-.45.16-.84.24-1.17a15.787 15.787 0 0 0 .64-3.46c-.03-.22.27-.4.88-.54a2.6 2.6 0 0 1 .64-.08c.19.01.29.06.3.14a4.039 4.039 0 0 1 -.01.98v-.01l.01-.01a3.028 3.028 0 0 1 1.13-.54 1.724 1.724 0 0 1 1.22.03 1.032 1.032 0 0 1 .43 1.16 5.185 5.185 0 0 1 -.54 1.61zm1.95 11.25a.668.668 0 0 1 -.66.58c-.02 0-.05-.01-.08-.01a.662.662 0 0 1 -.57-.74l.15-1.15.67-.07.66.09zm.64-5.22a.658.658 0 0 1 -.65.58.22.22 0 0 1 -.08-.01.652.652 0 0 1 -.58-.72l.15-1.31a.655.655 0 0 1 .73-.58.662.662 0 0 1 .58.73zm.56-5.24a.652.652 0 0 1 -.65.59h-.07a.667.667 0 0 1 -.59-.72l.13-1.3a.66.66 0 0 1 .71-.6.668.668 0 0 1 .6.72zm.48-5.24a.663.663 0 0 1 -.66.6h-.05a.652.652 0 0 1 -.6-.71l.1-1.31a.666.666 0 0 1 .71-.6.652.652 0 0 1 .61.7zm.4-5.26a.672.672 0 0 1 -.66.62h-.05a.658.658 0 0 1 -.61-.7l.08-1.31a.641.641 0 0 1 .7-.62.666.666 0 0 1 .62.7zm.31-5.25a.658.658 0 0 1 -.66.62h-.04a.658.658 0 0 1 -.62-.69l.06-1.31a.661.661 0 0 1 1.32.06zm.23-5.28a.676.676 0 0 1 -.66.64h-.03a.643.643 0 0 1 -.63-.67l.04-1.31a.63.63 0 0 1 .68-.64.666.666 0 0 1 .64.68zm.14-5.26a.657.657 0 0 1 -.66.65h-.01a.657.657 0 0 1 -.65-.66l.03-1.31a.7.7 0 0 1 .67-.65.666.666 0 0 1 .65.67zm.07-5.25a.657.657 0 0 1 -.66.65.653.653 0 0 1 -.66-.66v-1.31a.664.664 0 0 1 .66-.65h.01a.659.659 0 0 1 .66.66zm12.95 17.21c-.61 1.98-1.05 3.5-1.34 4.55.26.01.49.02.69.04a.411.411 0 0 1 .41.19.382.382 0 0 1 -.28.35 3.249 3.249 0 0 1 -1.06.37 38.747 38.747 0 0 0 -1.08 6.04c-.03.33-.47.57-1.33.7a3.313 3.313 0 0 1 -.87.04c-.26-.02-.39-.07-.39-.16a41.844 41.844 0 0 1 1.21-6.58q-.66.03-1.32.12c-.41.06-.74.11-.98.15a52.066 52.066 0 0 0 -1 5.48c-.04.33-.48.56-1.33.69a3.313 3.313 0 0 1 -.87.04c-.26-.02-.39-.07-.38-.14q.315-2.49.98-5.44a1.251 1.251 0 0 1 -.88-.1q-.24-.15.21-.42a3.246 3.246 0 0 1 .58-.26q.06-.015.3-.09.435-1.785 1.28-4.84c.65-2.34 1.08-3.95 1.32-4.83a.9.9 0 0 1 .54-.36 4.013 4.013 0 0 1 .98-.26c.74-.11 1.08-.02 1.01.26-.23.9-.65 2.46-1.28 4.7-.55 1.99-.97 3.56-1.25 4.71.8-.15 1.58-.25 2.34-.32.27-.99.7-2.46 1.3-4.41s1.03-3.42 1.3-4.41a1.038 1.038 0 0 1 .54-.36 4.222 4.222 0 0 1 .99-.26c.75-.11 1.09-.02 1.01.26-.26.97-.72 2.49-1.35 4.55zm3.05 10.19a1.494 1.494 0 0 0 .35.77 2.994 2.994 0 0 0 .44-.42 4.188 4.188 0 0 0 .98-1.87.9.9 0 0 1 .54-.37 3.364 3.364 0 0 1 .98-.26c.74-.11 1.07-.01 1.01.27a4.389 4.389 0 0 1 -1.77 2.64 5.279 5.279 0 0 1 -1.72.9 4.38 4.38 0 0 1 -2.29.2c-.82-.24-1.21-1.01-1.16-2.33a17.878 17.878 0 0 1 .31-2.77 12.3 12.3 0 0 1 1.37-4.05 5.683 5.683 0 0 1 1.23-1.72 4.642 4.642 0 0 1 2.58-1.12 2.66 2.66 0 0 1 2.35.41 2.4 2.4 0 0 1 .6 1.67 8.764 8.764 0 0 1 -.7 3.41 1.35 1.35 0 0 1 -.83.48 3.594 3.594 0 0 1 -1 .18c-.18 0-.67-.02-1.48-.06a13.681 13.681 0 0 0 -1.47.01 16.321 16.321 0 0 0 -.35 2.13 7 7 0 0 0 .03 1.9zm12.73 1.45c-.03.34-.47.57-1.33.7a3.846 3.846 0 0 1 -.86.06c-.26-.03-.39-.08-.38-.16.06-.59.15-1.2.27-1.85a6.483 6.483 0 0 1 -.97.79 4.24 4.24 0 0 1 -1.84.65 2.268 2.268 0 0 1 -1.44-.17 2.621 2.621 0 0 1 -.82-2.31 11.714 11.714 0 0 1 1.76-5.95 6.587 6.587 0 0 1 3.63-2.73 3.841 3.841 0 0 1 2.84-.19 1.383 1.383 0 0 1 .63 1.37c.54-.05.8.01.8.17a9.234 9.234 0 0 1 -.82 3.08 44.131 44.131 0 0 0 -1.47 6.54zm9.15.32a1.028 1.028 0 0 1 -.55.37 4.055 4.055 0 0 1 -.97.26 3.535 3.535 0 0 1 -.51.04 3.883 3.883 0 0 1 -3.42.01 3.133 3.133 0 0 1 -1.54-2.15 9.668 9.668 0 0 1 .56-5.14c.74-2.18 1.78-3.61 3.13-4.32a6.1 6.1 0 0 1 2.41-.68 2.488 2.488 0 0 1 1.05.13c.47-1.78.95-3.41 1.46-4.89a.972.972 0 0 1 .53-.37 4.222 4.222 0 0 1 .99-.26c.78-.11 1.11-.02 1.01.27q-.975 2.85-4.15 16.73zm-41.95-82.94a.694.694 0 0 0 .13.05.694.694 0 0 1 -.13-.05zm-.14 100.9c-.18.03-.39.06-.62.09.23-.03.44-.06.62-.09zm31.58-28.52-.01.01q-.135.075-.21.12a.143.143 0 0 1 -.08.04c-.01.01-.01.02-.02.03a7.161 7.161 0 0 0 -.73.58 3.572 3.572 0 0 0 -.55.67 13.5 13.5 0 0 0 -.66 1.23 13.243 13.243 0 0 0 -1.02 3.09 6.011 6.011 0 0 0 .02 2.89 3.114 3.114 0 0 0 .12.3c.14-.16.5-.6 1.06-1.3a18.639 18.639 0 0 0 2.39-3.62c.29-1.04.51-1.87.67-2.49-.5.02-.74-.03-.73-.16a1.7 1.7 0 0 0 -.25-1.39zm-198.63-37.09a1.379 1.379 0 0 0 -.25-.17 21.082 21.082 0 0 0 -5.31 7.31 14.915 14.915 0 0 0 -1.94 7.44 8.437 8.437 0 0 0 .48 3.36 3.821 3.821 0 0 0 2.54 2.7c.1-.07.18-.13.23-.17a11.815 11.815 0 0 0 1.98-2.01 17.845 17.845 0 0 0 2.05-3.15q1.41-9.99 2.26-13.58a1.119 1.119 0 0 1 -1.18-.38 3.871 3.871 0 0 0 -.86-1.35zm-18.26 2.76a4.286 4.286 0 0 0 -1.24-3.08c-.1-.07-.19-.11-.25-.15a.376.376 0 1 0 -.08.07 4.581 4.581 0 0 0 -.51.61 13.819 13.819 0 0 0 -1.08 1.78q-.975 2.025-1.71 3.9c-.21.85-.43 1.76-.63 2.71a43.488 43.488 0 0 1 4.84-.35 14.784 14.784 0 0 0 .66-5.49zm171.14 45.15a2.346 2.346 0 0 0 -.55-1.5.138.138 0 0 1 -.04-.03 1.172 1.172 0 0 0 -.16.15 6.174 6.174 0 0 0 -1.32 2.77 6.6 6.6 0 0 0 -.15 3.07 2.157 2.157 0 0 0 .87 1.31c.08.05.15.09.23.13a.3.3 0 0 1 .03-.04.934.934 0 0 1 .41-.3c.09-.49.26-1.39.49-2.71.2-1.15.37-2.06.5-2.72-.21-.01-.31-.05-.31-.13zm-9.26 41.76a1.522 1.522 0 0 0 -.66-.33.46.46 0 0 0 -.44.07.278.278 0 0 0 -.08.15c0 .01-.01.01-.01.02a.24.24 0 0 1 .02.08.106.106 0 0 0 .02.05.393.393 0 0 0 .02.06c.02.03.02.05.03.06a.737.737 0 0 0 .06.11.635.635 0 0 0 .07.12 1.982 1.982 0 0 0 .16.24 1.942 1.942 0 0 0 .23.25l.01.01c.8.16 1.21.24 1.22.24a.623.623 0 0 1 .03-.37v-.01c-.04-.06-.07-.11-.09-.14a2.632 2.632 0 0 0 -.59-.61zm-6.38-93.17a12.918 12.918 0 0 0 -.78 1.74 8.279 8.279 0 0 0 -.7 3.57 1.318 1.318 0 0 0 .19.59q.165-.135.3-.27a6.144 6.144 0 0 0 .85-1.22 7.19 7.19 0 0 0 .9-3.07 2.96 2.96 0 0 0 -.43-1.86c-.11.16-.22.33-.33.52zm8.64 101.32a4.643 4.643 0 0 0 -1.99-.41 1.928 1.928 0 0 0 -1.16.36c.11.06.22.12.35.18a7.183 7.183 0 0 0 1.14.41 5.58 5.58 0 0 0 2.3.26 1.086 1.086 0 0 0 .37-.15c-.07-.07-.13-.13-.19-.18a4.623 4.623 0 0 0 -.82-.47zm13-51.3c-.04.02-.05.03-.03.02a1.566 1.566 0 0 0 -.17.21 4.6 4.6 0 0 0 -.37.6c-.22.46-.41.9-.58 1.33-.07.28-.14.59-.21.91a15.744 15.744 0 0 1 1.64-.12 5.018 5.018 0 0 0 .22-1.86 1.425 1.425 0 0 0 -.42-1.04.251.251 0 0 0 -.08-.05zm-4.57-48.16a2.172 2.172 0 0 0 -.41-1.46.062.062 0 0 0 -.04-.03c-.06.04-.11.09-.16.13a5.988 5.988 0 0 0 -1.46 2.52 6.271 6.271 0 0 0 -.37 2.91 2 2 0 0 0 .73 1.31 2.426 2.426 0 0 0 .2.14.3.3 0 0 1 .03-.04.961.961 0 0 1 .42-.25c.12-.45.34-1.3.67-2.54.28-1.07.5-1.92.67-2.54-.19-.02-.28-.07-.28-.15zm-191.23 96.01a6.148 6.148 0 0 0 -2.72-.56 2.683 2.683 0 0 0 -1.59.49c.15.08.31.17.48.25a10.473 10.473 0 0 0 1.56.55 7.4 7.4 0 0 0 3.14.36 1.222 1.222 0 0 0 .51-.21 2.84 2.84 0 0 0 -.26-.24 5.747 5.747 0 0 0 -1.12-.64zm194.33-110.66a4.872 4.872 0 0 0 .36-1.75 1.462 1.462 0 0 0 -.32-1.03c-.04-.02-.06-.04-.08-.05-.04.02-.05.03-.03.02a1.527 1.527 0 0 0 -.18.18c-.14.18-.27.36-.39.55-.25.42-.46.82-.65 1.21-.1.27-.19.56-.28.86a13.877 13.877 0 0 1 1.57.01zm-197.41 99.51a2.152 2.152 0 0 0 -.91-.45.646.646 0 0 0 -.61.09.534.534 0 0 0 -.11.21v.02a.225.225 0 0 1 .02.12.488.488 0 0 1 .03.07s.01.03.03.08a.271.271 0 0 1 .03.08c.04.08.07.13.08.16.04.06.07.12.1.16.09.14.16.24.22.32a3.929 3.929 0 0 0 .32.35.01.01 0 0 1 .01.01h.01c1.09.21 1.64.33 1.67.33a.843.843 0 0 1 .03-.51v-.01a2.361 2.361 0 0 0 -.13-.2 3.9 3.9 0 0 0 -.79-.83z" fill="#202020" fill-rule="evenodd" transform="translate(-3339.03 -2671)"/></svg>